{"glyphs":{"0":{"ha":770,"x_min":81,"x_max":689,"o":"m 689 578 l 689 412 q 669 223 689 304 q 609 91 648 143 q 514 12 570 38 q 386 -14 458 -14 q 282 3 329 -14 q 197 53 235 19 q 134 137 160 86 q 95 257 109 188 q 81 412 81 326 l 81 578 q 102 767 81 688 q 162 899 123 847 q 257 976 201 951 q 385 1002 313 1002 q 490 985 442 1002 q 574 936 537 969 q 636 853 611 903 q 675 734 662 802 q 689 578 689 666 m 608 403 l 608 589 q 598 711 608 656 q 572 807 589 766 q 527 876 554 848 q 465 918 500 904 q 385 932 429 932 q 288 910 330 932 q 219 845 246 888 q 177 738 191 802 q 163 589 163 673 l 163 403 q 172 282 163 336 q 199 185 181 227 q 244 115 217 143 q 306 71 271 86 q 386 56 342 56 q 484 79 442 56 q 553 146 525 102 q 594 255 581 191 q 608 403 608 320 z "},"1":{"ha":770,"x_min":121,"x_max":471,"o":"m 471 991 l 471 0 l 390 0 l 390 889 l 121 789 l 121 866 l 457 991 l 471 991 z "},"2":{"ha":770,"x_min":72,"x_max":712,"o":"m 712 70 l 712 0 l 94 0 l 94 64 l 417 430 q 513 551 477 499 q 565 646 549 603 q 581 729 581 688 q 558 834 581 789 q 488 905 534 880 q 375 931 442 931 q 257 902 307 931 q 180 821 207 873 q 153 703 153 769 l 72 703 q 108 852 72 785 q 212 961 144 920 q 375 1001 280 1001 q 528 969 464 1001 q 628 879 593 938 q 663 736 663 820 q 647 647 663 692 q 603 556 631 602 q 541 467 576 511 q 469 380 507 423 l 193 70 l 712 70 z "},"3":{"ha":770,"x_min":67,"x_max":687,"o":"m 274 539 l 357 539 q 484 565 433 539 q 561 634 535 591 q 587 730 587 677 q 565 835 587 790 q 497 906 543 880 q 380 931 451 931 q 269 907 318 931 q 191 837 220 882 q 163 729 163 791 l 82 729 q 121 870 82 809 q 227 966 159 932 q 380 1001 295 1001 q 532 969 467 1001 q 633 876 597 937 q 669 728 669 815 q 649 640 669 684 q 592 562 630 597 q 497 505 554 526 q 367 484 441 484 l 274 484 l 274 539 m 274 469 l 274 523 l 367 523 q 512 503 451 523 q 611 449 572 484 q 668 368 650 414 q 687 269 687 321 q 664 149 687 201 q 601 60 642 96 q 504 5 559 24 q 383 -14 449 -14 q 267 4 323 -14 q 165 57 210 22 q 94 145 120 92 q 67 268 67 198 l 149 268 q 178 158 149 205 q 261 83 208 111 q 383 56 315 56 q 503 81 453 56 q 579 152 553 105 q 606 266 606 199 q 574 382 606 337 q 487 448 543 427 q 357 469 431 469 l 274 469 z "},"4":{"ha":770,"x_min":46,"x_max":746,"o":"m 746 319 l 746 250 l 46 250 l 46 296 l 503 987 l 571 987 l 474 820 l 146 319 l 746 319 m 591 987 l 591 0 l 511 0 l 511 987 l 591 987 z "},"5":{"ha":770,"x_min":114,"x_max":710,"o":"m 213 488 l 149 507 l 197 987 l 690 987 l 690 911 l 267 911 l 231 579 q 306 615 257 597 q 417 633 355 633 q 537 611 484 633 q 630 548 591 589 q 689 448 669 507 q 710 315 710 389 q 693 184 710 243 q 640 80 675 124 q 548 11 604 35 q 415 -14 492 -14 q 304 3 356 -14 q 212 54 252 20 q 145 139 171 88 q 114 260 120 191 l 193 260 q 228 149 200 194 q 303 80 256 103 q 415 56 351 56 q 508 74 468 56 q 574 124 547 91 q 615 204 601 157 q 629 313 629 252 q 614 411 629 366 q 570 489 599 455 q 499 541 541 522 q 403 559 457 559 q 291 540 332 559 q 213 488 249 521 z "},"6":{"ha":770,"x_min":89,"x_max":701,"o":"m 560 995 l 572 995 l 572 924 l 560 924 q 394 893 467 924 q 271 805 321 863 q 196 667 222 748 q 170 484 170 585 l 170 348 q 189 226 170 280 q 239 134 207 172 q 315 76 272 96 q 408 56 358 56 q 497 77 458 56 q 564 134 536 98 q 606 218 591 170 q 621 321 621 267 q 607 419 621 373 q 567 502 594 466 q 499 558 540 538 q 404 578 458 578 q 288 550 342 578 q 199 474 233 522 q 162 370 164 427 l 116 371 q 145 486 121 435 q 210 574 170 537 q 303 629 250 610 q 416 648 355 648 q 541 623 488 648 q 630 552 594 597 q 683 448 665 507 q 701 324 701 389 q 681 192 701 253 q 623 84 661 130 q 531 12 585 38 q 408 -14 477 -14 q 275 15 334 -14 q 174 94 216 43 q 111 210 132 144 q 89 350 89 275 l 89 436 q 118 665 89 562 q 205 842 146 768 q 352 955 264 916 q 560 995 441 995 z "},"7":{"ha":770,"x_min":53,"x_max":702,"o":"m 702 987 l 702 941 l 280 0 l 195 0 l 614 918 l 53 918 l 53 987 l 702 987 z "},"8":{"ha":770,"x_min":73,"x_max":701,"o":"m 701 262 q 659 111 701 172 q 546 18 617 50 q 387 -14 475 -14 q 227 18 298 -14 q 114 111 155 50 q 73 262 73 172 q 96 370 73 321 q 161 454 119 418 q 261 509 203 490 q 386 528 318 528 q 546 494 475 528 q 660 400 618 460 q 701 262 701 340 m 619 262 q 589 372 619 325 q 505 446 558 420 q 386 472 452 472 q 266 446 318 472 q 183 372 213 420 q 153 262 153 325 q 183 150 153 196 q 266 80 213 104 q 387 56 319 56 q 507 80 455 56 q 589 150 559 104 q 619 262 619 196 m 675 734 q 637 605 675 661 q 533 516 599 548 q 387 484 468 484 q 238 516 303 484 q 135 605 172 548 q 98 734 98 661 q 135 879 98 820 q 238 970 173 939 q 385 1001 303 1001 q 533 970 468 1001 q 637 879 599 939 q 675 734 675 820 m 594 734 q 567 836 594 792 q 492 906 539 880 q 385 931 445 931 q 279 907 326 931 q 205 840 232 884 q 179 734 179 795 q 205 632 179 675 q 279 565 232 589 q 387 542 326 542 q 493 565 446 542 q 567 632 540 589 q 594 734 594 675 z "},"9":{"ha":770,"x_min":69,"x_max":682,"o":"m 205 64 l 222 64 q 403 96 330 64 q 519 183 475 127 q 582 314 563 239 q 601 477 601 389 l 601 615 q 584 752 601 693 q 536 851 567 811 q 462 911 505 890 q 369 931 420 931 q 277 909 317 931 q 208 849 236 888 q 164 762 179 811 q 149 659 149 713 q 163 561 149 608 q 204 476 176 513 q 271 416 231 438 q 363 395 311 395 q 467 417 421 395 q 545 475 513 439 q 594 552 577 511 q 613 633 612 594 l 654 634 q 631 516 654 572 q 567 417 608 460 q 471 349 526 374 q 353 324 416 324 q 230 352 283 324 q 141 426 177 379 q 87 532 106 473 q 69 655 69 591 q 89 789 69 726 q 148 899 109 851 q 242 974 186 947 q 368 1001 297 1001 q 506 972 447 1001 q 604 890 565 943 q 662 766 643 838 q 682 607 682 694 l 682 529 q 668 361 682 441 q 623 214 654 281 q 538 97 591 147 q 408 20 486 47 q 222 -7 330 -7 l 205 -7 l 205 64 z "},"\u0000":{"ha":0,"x_min":0,"x_max":0,"o":""},"\u0002":{"ha":0,"x_min":0,"x_max":0,"o":""},"\r":{"ha":338,"x_min":0,"x_max":0,"o":""}," ":{"ha":338,"x_min":0,"x_max":0,"o":""},"!":{"ha":314,"x_min":104,"x_max":216,"o":"m 197 987 l 193 275 l 118 275 l 113 987 l 197 987 m 104 48 q 119 87 104 71 q 160 104 134 104 q 201 87 186 104 q 216 48 216 71 q 201 10 216 26 q 160 -6 186 -6 q 119 10 134 -6 q 104 48 104 26 z "},"\"":{"ha":399,"x_min":98,"x_max":326,"o":"m 165 1042 l 165 947 l 152 734 l 98 734 l 99 943 l 99 1042 l 165 1042 m 326 1042 l 326 947 l 312 734 l 257 734 l 259 945 l 259 1042 l 326 1042 z "},"#":{"ha":808,"x_min":58,"x_max":814,"o":"m 179 0 l 364 987 l 432 987 l 246 0 l 179 0 m 459 0 l 646 987 l 713 987 l 526 0 l 459 0 m 814 640 l 109 640 l 109 705 l 814 705 l 814 640 m 764 278 l 58 278 l 58 342 l 764 342 l 764 278 z "},"$":{"ha":770,"x_min":79,"x_max":693,"o":"m 435 1138 l 435 958 l 366 958 l 366 1138 l 435 1138 m 433 26 l 433 -141 l 363 -141 l 363 26 l 433 26 m 612 244 q 591 331 612 294 q 522 398 570 368 q 390 457 473 428 q 242 520 304 485 q 147 609 180 555 q 113 743 113 662 q 149 880 113 822 q 248 970 184 939 q 399 1002 312 1002 q 519 982 467 1002 q 609 923 572 962 q 666 828 646 884 q 686 697 686 771 l 605 697 q 592 789 605 747 q 552 863 578 831 q 487 912 526 895 q 399 929 449 929 q 283 904 329 929 q 216 837 238 879 q 195 745 195 795 q 213 658 195 695 q 280 591 231 621 q 418 530 328 560 q 565 467 503 502 q 660 379 627 431 q 693 245 693 326 q 656 105 693 163 q 551 17 618 47 q 394 -14 484 -14 q 280 1 336 -14 q 178 51 224 16 q 106 143 133 86 q 79 284 79 201 l 160 284 q 181 175 160 219 q 236 106 201 132 q 312 70 271 81 q 394 59 353 59 q 512 84 463 59 q 586 151 560 109 q 612 244 612 193 z "},"%":{"ha":1027,"x_min":75,"x_max":958,"o":"m 75 745 l 75 798 q 98 900 75 854 q 165 974 122 946 q 268 1002 209 1002 q 370 974 327 1002 q 437 900 414 946 q 461 798 461 854 l 461 745 q 438 644 461 690 q 371 570 414 598 q 269 543 328 543 q 166 570 210 543 q 98 644 122 598 q 75 745 75 690 m 140 798 l 140 745 q 154 676 140 709 q 197 623 168 644 q 269 602 226 602 q 340 623 312 602 q 381 676 368 644 q 395 745 395 709 l 395 798 q 381 868 395 835 q 339 922 368 901 q 268 943 311 943 q 197 922 225 943 q 154 868 168 901 q 140 798 140 835 m 571 189 l 571 242 q 595 344 571 298 q 662 418 618 390 q 764 446 705 446 q 867 418 824 446 q 934 344 910 390 q 958 242 958 298 l 958 189 q 934 87 958 134 q 868 14 911 41 q 766 -14 825 -14 q 663 14 706 -14 q 595 87 619 41 q 571 189 571 134 m 637 242 l 637 189 q 651 120 637 153 q 693 66 665 87 q 766 45 722 45 q 837 66 808 45 q 879 120 865 87 q 892 189 892 153 l 892 242 q 879 314 892 281 q 836 367 865 347 q 764 387 808 387 q 694 367 722 387 q 651 314 665 347 q 637 242 637 281 m 777 854 l 295 82 l 244 115 l 726 887 l 777 854 z "},"&":{"ha":855,"x_min":74,"x_max":836,"o":"m 265 532 l 424 652 q 495 721 467 684 q 523 808 523 758 q 488 894 523 856 q 389 932 454 932 q 309 911 342 932 q 260 856 277 890 q 243 779 243 821 q 257 712 243 747 q 295 639 270 677 q 355 560 320 602 l 836 0 l 737 0 l 328 475 q 240 583 278 534 q 182 680 203 633 q 162 777 162 726 q 190 897 162 846 q 269 974 218 947 q 389 1002 320 1002 q 503 975 456 1002 q 575 904 550 948 q 600 808 600 861 q 581 726 600 764 q 531 657 561 688 q 468 600 500 626 l 287 461 q 201 375 229 414 q 164 305 173 336 q 155 252 155 275 q 179 156 155 201 q 254 84 203 111 q 380 56 304 56 q 504 84 444 56 q 610 163 563 112 q 685 285 657 214 q 712 442 712 356 l 787 442 q 775 322 787 378 q 738 218 762 266 q 677 130 713 170 q 670 119 672 123 q 663 110 668 115 q 535 20 608 53 q 380 -14 463 -14 q 217 20 286 -14 q 111 113 148 54 q 74 252 74 173 q 99 360 74 312 q 168 450 124 408 q 265 532 211 492 z "},"'":{"ha":237,"x_min":81,"x_max":154,"o":"m 154 1042 l 154 947 l 142 739 l 81 739 l 85 941 l 85 1042 l 154 1042 z "},"(":{"ha":444,"x_min":96,"x_max":422,"o":"m 96 389 l 96 399 q 123 647 96 532 q 197 855 151 762 q 296 1012 242 947 q 402 1107 349 1076 l 422 1052 q 333 960 376 1020 q 254 814 290 899 q 198 625 219 730 q 177 401 177 521 l 177 388 q 198 164 177 269 q 254 -25 219 60 q 333 -172 290 -111 q 422 -266 376 -233 l 402 -319 q 296 -224 349 -288 q 197 -70 242 -161 q 123 138 151 22 q 96 389 96 254 z "},")":{"ha":453,"x_min":23,"x_max":349,"o":"m 349 399 l 349 389 q 321 138 349 254 q 248 -70 293 22 q 149 -224 203 -161 q 43 -319 95 -288 l 23 -266 q 111 -173 68 -234 q 190 -26 155 -112 q 247 164 226 59 q 268 388 268 269 l 268 401 q 246 626 268 521 q 189 816 224 731 q 109 962 153 901 q 23 1055 66 1023 l 43 1107 q 149 1012 95 1076 q 248 855 203 947 q 321 647 293 762 q 349 399 349 532 z "},"*":{"ha":589,"x_min":20,"x_max":572,"o":"m 98 475 l 245 679 l 20 751 l 42 821 l 267 738 l 264 988 l 335 988 l 329 735 l 549 821 l 572 751 l 346 674 l 497 475 l 439 432 l 294 639 l 155 433 l 98 475 z "},"+":{"ha":785,"x_min":52,"x_max":728,"o":"m 728 503 l 728 426 l 52 426 l 52 503 l 728 503 m 427 818 l 427 99 l 346 99 l 346 818 l 427 818 z "},",":{"ha":267,"x_min":41,"x_max":184,"o":"m 184 129 l 184 33 q 159 -87 184 -28 q 90 -185 134 -145 l 41 -149 q 77 -93 62 -121 q 98 -35 91 -65 q 105 32 105 -4 l 105 129 l 184 129 z "},"-":{"ha":398,"x_min":34,"x_max":359,"o":"m 359 471 l 359 401 l 34 401 l 34 471 l 359 471 z "},".":{"ha":332,"x_min":99,"x_max":214,"o":"m 99 50 q 114 91 99 74 q 157 107 130 107 q 199 91 183 107 q 214 50 214 74 q 199 10 214 26 q 157 -6 183 -6 q 114 10 130 -6 q 99 50 99 26 z "},"/":{"ha":552,"x_min":21,"x_max":507,"o":"m 507 987 l 95 -85 l 21 -85 l 433 987 l 507 987 z "},":":{"ha":292,"x_min":85,"x_max":203,"o":"m 86 50 q 101 91 86 74 q 144 107 117 107 q 186 91 170 107 q 201 50 201 74 q 186 10 201 26 q 144 -6 170 -6 q 101 10 117 -6 q 86 50 86 26 m 88 676 q 103 716 88 700 q 146 733 119 733 q 188 716 172 733 q 203 676 203 700 q 188 636 203 652 q 146 620 172 620 q 103 636 119 620 q 88 676 88 652 z "},";":{"ha":271,"x_min":41,"x_max":195,"o":"m 80 676 q 95 716 80 700 q 138 733 111 733 q 180 716 164 733 q 195 676 195 700 q 180 636 195 652 q 138 620 164 620 q 95 636 111 620 q 80 676 80 652 m 184 129 l 184 33 q 159 -87 184 -28 q 90 -185 134 -145 l 41 -149 q 77 -93 62 -121 q 98 -35 91 -65 q 105 32 105 -4 l 105 129 l 184 129 z "},"<":{"ha":710,"x_min":52,"x_max":614,"o":"m 107 460 l 614 242 l 614 155 l 52 412 l 52 466 l 107 460 m 614 649 l 108 430 l 52 425 l 52 479 l 614 735 l 614 649 z "},"=":{"ha":768,"x_min":102,"x_max":667,"o":"m 667 635 l 667 562 l 102 562 l 102 635 l 667 635 m 667 356 l 667 283 l 102 283 l 102 356 l 667 356 z "},">":{"ha":720,"x_min":85,"x_max":658,"o":"m 597 435 l 85 652 l 85 736 l 658 480 l 658 426 l 597 435 m 85 241 l 598 461 l 658 468 l 658 414 l 85 157 l 85 241 z "},"?":{"ha":631,"x_min":57,"x_max":572,"o":"m 336 275 l 255 275 q 267 372 256 332 q 302 447 277 412 q 368 521 326 481 q 431 588 404 557 q 475 656 459 619 q 491 747 491 693 q 472 842 491 801 q 415 905 453 882 q 321 928 377 928 q 228 908 269 928 q 163 849 186 888 q 138 757 139 811 l 57 757 q 94 889 58 834 q 189 972 130 943 q 321 1001 248 1001 q 458 969 401 1001 q 543 880 514 937 q 572 748 572 823 q 552 639 572 688 q 496 548 532 591 q 413 462 460 505 q 353 377 369 425 q 336 275 336 329 m 244 48 q 259 87 244 71 q 300 104 274 104 q 341 87 326 104 q 356 48 356 71 q 341 10 356 26 q 300 -6 326 -6 q 259 10 274 -6 q 244 48 244 26 z "},"@":{"ha":1269,"x_min":79,"x_max":1193,"o":"m 1188 348 q 1170 220 1185 284 q 1122 103 1154 157 q 1041 18 1090 50 q 924 -14 992 -14 q 847 2 880 -14 q 793 47 814 18 q 762 118 771 77 q 758 212 753 160 l 791 597 l 860 597 l 826 212 q 831 124 822 157 q 858 74 840 91 q 896 51 876 57 q 932 45 916 45 q 1012 68 977 45 q 1071 133 1046 92 q 1109 229 1095 174 q 1125 348 1122 284 q 1116 536 1130 450 q 1067 690 1102 623 q 977 804 1033 758 q 844 876 922 851 q 665 900 766 900 q 502 874 578 900 q 363 798 425 848 q 255 677 301 748 q 183 518 210 607 q 151 324 156 429 q 163 136 146 223 q 217 -22 180 48 q 312 -142 254 -92 q 445 -219 369 -193 q 613 -246 520 -246 q 734 -232 673 -246 q 837 -193 795 -217 l 858 -247 q 742 -292 812 -277 q 610 -307 671 -307 q 422 -279 507 -307 q 272 -197 337 -251 q 163 -66 206 -143 q 99 109 119 11 q 83 324 79 208 q 118 536 88 438 q 198 713 147 635 q 319 848 249 792 q 478 934 390 904 q 668 964 566 964 q 862 936 777 964 q 1011 856 948 908 q 1116 728 1075 803 q 1175 557 1156 652 q 1188 348 1193 461 m 455 290 q 454 194 450 237 q 474 119 459 151 q 514 71 489 87 q 574 54 539 54 q 628 63 600 54 q 681 96 655 73 q 730 160 707 119 q 770 261 753 200 l 803 220 q 762 119 787 162 q 706 46 737 75 q 637 1 674 16 q 559 -14 600 -14 q 475 8 511 -14 q 417 70 439 30 q 385 165 394 110 q 382 290 376 221 q 407 419 389 359 q 453 525 426 478 q 516 604 481 571 q 593 654 552 637 q 677 671 633 671 q 785 649 746 671 q 860 597 825 627 l 814 553 q 761 592 793 576 q 682 608 728 608 q 604 589 641 608 q 536 530 566 570 q 484 431 505 490 q 455 290 463 371 z "},"A":{"ha":868,"x_min":21,"x_max":848,"o":"m 450 928 l 108 0 l 21 0 l 394 987 l 455 987 l 450 928 m 760 0 l 418 928 l 414 987 l 474 987 l 848 0 l 760 0 m 700 349 l 700 277 l 175 277 l 175 349 l 700 349 z "},"B":{"ha":852,"x_min":125,"x_max":775,"o":"m 466 475 l 187 475 l 186 546 l 426 546 q 550 567 498 546 q 628 629 602 588 q 655 732 655 671 q 629 835 655 794 q 549 896 602 876 q 417 916 496 916 l 209 916 l 209 0 l 125 0 l 125 987 l 417 987 q 552 972 492 987 q 653 926 612 958 q 717 845 695 894 q 739 730 739 797 q 712 620 739 669 q 636 539 686 570 q 518 501 587 509 l 466 475 m 459 0 l 161 0 l 203 72 l 459 72 q 584 97 532 72 q 664 168 636 121 q 692 277 692 214 q 667 378 692 333 q 593 449 643 422 q 466 475 543 475 l 292 475 l 294 546 l 538 546 l 553 520 q 670 479 621 513 q 747 393 720 446 q 775 279 775 340 q 735 126 775 189 q 625 32 696 64 q 459 0 554 0 z "},"C":{"ha":902,"x_min":90,"x_max":824,"o":"m 741 309 l 824 309 q 769 136 814 208 q 647 25 725 64 q 461 -14 570 -14 q 309 18 377 -14 q 191 109 240 50 q 116 250 142 168 q 90 432 90 332 l 90 555 q 116 738 90 656 q 192 878 142 819 q 311 969 241 937 q 467 1001 380 1001 q 649 963 572 1001 q 769 852 725 924 q 824 679 814 781 l 741 679 q 699 814 731 759 q 609 900 666 870 q 467 929 552 929 q 343 903 398 929 q 251 827 289 876 q 193 709 213 778 q 173 557 173 641 l 173 432 q 192 283 173 351 q 248 164 212 214 q 338 86 285 114 q 461 58 392 58 q 607 86 549 58 q 698 170 665 114 q 741 309 730 226 z "},"D":{"ha":910,"x_min":125,"x_max":823,"o":"m 395 0 l 172 0 l 174 72 l 395 72 q 579 119 502 72 q 698 252 656 167 q 740 449 740 337 l 740 541 q 716 695 740 626 q 647 813 692 764 q 540 889 602 863 q 401 916 478 916 l 168 916 l 168 987 l 401 987 q 571 956 494 987 q 705 865 648 924 q 792 723 762 806 q 823 538 823 640 l 823 449 q 792 264 823 347 q 705 123 762 182 q 569 32 648 64 q 395 0 491 0 m 209 987 l 209 0 l 125 0 l 125 987 l 209 987 z "},"E":{"ha":790,"x_min":125,"x_max":739,"o":"m 739 72 l 739 0 l 184 0 l 184 72 l 739 72 m 209 987 l 209 0 l 125 0 l 125 987 l 209 987 m 670 545 l 670 473 l 184 473 l 184 545 l 670 545 m 736 987 l 736 916 l 184 916 l 184 987 l 736 987 z "},"F":{"ha":781,"x_min":125,"x_max":737,"o":"m 209 987 l 209 0 l 125 0 l 125 987 l 209 987 m 669 534 l 669 461 l 182 461 l 182 534 l 669 534 m 737 987 l 737 916 l 182 916 l 182 987 l 737 987 z "},"G":{"ha":950,"x_min":98,"x_max":838,"o":"m 838 470 l 838 118 q 780 63 821 94 q 668 9 738 32 q 495 -14 598 -14 q 335 18 408 -14 q 209 109 262 50 q 127 252 156 168 q 98 438 98 335 l 98 557 q 125 741 98 659 q 201 881 151 823 q 322 970 252 939 q 481 1001 393 1001 q 667 963 592 1001 q 784 859 742 925 q 838 709 827 793 l 753 709 q 714 818 744 768 q 628 899 684 868 q 481 929 571 929 q 354 903 410 929 q 260 827 298 876 q 202 710 222 779 q 182 559 182 642 l 182 438 q 204 282 182 352 q 268 162 227 212 q 367 85 309 112 q 495 58 425 58 q 623 73 570 58 q 708 107 676 87 q 755 144 741 127 l 755 398 l 490 398 l 490 470 l 838 470 z "},"H":{"ha":983,"x_min":125,"x_max":857,"o":"m 789 545 l 789 473 l 190 473 l 190 545 l 789 545 m 209 987 l 209 0 l 125 0 l 125 987 l 209 987 m 857 987 l 857 0 l 773 0 l 773 987 l 857 987 z "},"I":{"ha":370,"x_min":144,"x_max":227,"o":"m 227 987 l 227 0 l 144 0 l 144 987 l 227 987 z "},"J":{"ha":765,"x_min":49,"x_max":645,"o":"m 562 294 l 562 987 l 645 987 l 645 294 q 606 126 645 195 q 500 22 568 58 q 347 -14 433 -14 q 191 18 258 -14 q 86 113 123 49 q 49 273 49 176 l 132 273 q 158 154 132 201 q 231 82 183 106 q 347 58 279 58 q 455 85 407 58 q 533 164 504 111 q 562 294 562 217 z "},"K":{"ha":877,"x_min":125,"x_max":852,"o":"m 209 987 l 209 0 l 125 0 l 125 987 l 209 987 m 820 987 l 394 535 l 179 324 l 171 418 l 343 597 l 715 987 l 820 987 m 750 0 l 334 507 l 385 575 l 852 0 l 750 0 z "},"L":{"ha":732,"x_min":125,"x_max":696,"o":"m 696 72 l 696 0 l 184 0 l 184 72 l 696 72 m 210 987 l 210 0 l 125 0 l 125 987 l 210 987 z "},"M":{"ha":1202,"x_min":125,"x_max":1076,"o":"m 151 987 l 235 987 l 600 118 l 966 987 l 1050 987 l 632 0 l 568 0 l 151 987 m 125 987 l 199 987 l 209 431 l 209 0 l 125 0 l 125 987 m 1002 987 l 1076 987 l 1076 0 l 993 0 l 993 431 l 1002 987 z "},"N":{"ha":987,"x_min":125,"x_max":861,"o":"m 861 987 l 861 0 l 777 0 l 210 844 l 210 0 l 125 0 l 125 987 l 210 987 l 778 144 l 778 987 l 861 987 z "},"O":{"ha":941,"x_min":85,"x_max":855,"o":"m 855 547 l 855 441 q 828 254 855 338 q 751 110 801 170 q 630 18 701 50 q 471 -14 559 -14 q 314 18 385 -14 q 192 110 243 50 q 113 254 141 170 q 85 441 85 338 l 85 547 q 113 734 85 650 q 191 878 140 818 q 313 969 242 937 q 470 1001 384 1001 q 628 969 557 1001 q 750 878 699 937 q 828 734 801 818 q 855 547 855 650 m 772 441 l 772 548 q 752 705 772 635 q 693 825 732 775 q 597 901 654 874 q 470 927 541 927 q 344 901 399 927 q 249 825 288 874 q 190 705 210 775 q 169 548 169 635 l 169 441 q 190 283 169 353 q 250 163 211 212 q 345 87 290 113 q 471 60 401 60 q 599 87 543 60 q 693 163 654 113 q 752 283 732 212 q 772 441 772 353 z "},"P":{"ha":855,"x_min":125,"x_max":794,"o":"m 462 402 l 180 402 l 180 474 l 462 474 q 605 503 550 474 q 685 581 660 531 q 711 692 711 630 q 685 803 711 752 q 605 885 660 854 q 462 916 550 916 l 209 916 l 209 0 l 125 0 l 125 987 l 462 987 q 644 950 570 987 q 756 846 718 913 q 794 693 794 780 q 756 537 794 602 q 645 437 719 471 q 462 402 570 402 z "},"Q":{"ha":941,"x_min":83,"x_max":852,"o":"m 614 78 l 840 -120 l 783 -172 l 558 23 l 614 78 m 852 547 l 852 441 q 825 254 852 338 q 748 110 798 170 q 627 18 697 50 q 468 -14 556 -14 q 311 18 382 -14 q 189 110 240 50 q 110 254 138 170 q 83 441 83 338 l 83 547 q 110 734 83 650 q 189 878 138 818 q 310 969 239 937 q 467 1001 380 1001 q 626 969 555 1001 q 747 878 696 937 q 825 734 798 818 q 852 547 852 650 m 769 441 l 769 548 q 749 705 769 635 q 689 825 728 775 q 594 901 650 874 q 467 927 538 927 q 341 901 397 927 q 247 825 286 874 q 187 705 208 775 q 166 548 166 635 l 166 441 q 187 283 166 353 q 247 163 208 212 q 342 87 286 113 q 468 60 398 60 q 596 87 540 60 q 690 163 652 113 q 749 283 729 212 q 769 441 769 353 z "},"R":{"ha":882,"x_min":123,"x_max":822,"o":"m 123 987 l 444 987 q 622 954 547 987 q 738 856 697 921 q 779 697 779 791 q 750 570 779 627 q 669 475 721 513 q 549 422 617 437 l 521 412 l 178 412 l 177 483 l 463 483 q 592 513 541 483 q 670 592 644 543 q 696 697 696 641 q 667 813 696 764 q 582 889 638 863 q 444 916 526 916 l 208 916 l 208 0 l 123 0 l 123 987 m 733 0 l 477 441 l 567 443 l 822 9 l 822 0 l 733 0 z "},"S":{"ha":823,"x_min":60,"x_max":768,"o":"m 684 243 q 671 316 684 284 q 626 373 657 347 q 544 420 595 398 q 414 464 492 442 q 281 510 340 485 q 179 568 221 535 q 114 644 136 600 q 92 746 92 688 q 116 850 92 803 q 185 930 140 897 q 290 983 229 964 q 423 1001 351 1001 q 603 962 527 1001 q 720 856 679 922 q 762 706 762 789 l 678 706 q 648 821 678 770 q 561 900 618 871 q 423 929 505 929 q 287 904 342 929 q 203 839 231 880 q 176 747 176 798 q 189 683 176 712 q 233 628 203 653 q 315 581 264 602 q 441 538 366 559 q 580 491 519 517 q 683 430 641 465 q 747 350 725 395 q 768 245 768 304 q 743 137 768 184 q 672 55 718 89 q 565 4 627 22 q 429 -14 503 -14 q 298 3 363 -14 q 179 56 233 20 q 93 148 125 92 q 60 283 60 204 l 144 283 q 169 177 144 220 q 236 108 194 134 q 328 70 277 82 q 429 58 378 58 q 564 81 507 58 q 653 146 621 104 q 684 243 684 188 z "},"T":{"ha":829,"x_min":36,"x_max":795,"o":"m 456 987 l 456 0 l 374 0 l 374 987 l 456 987 m 795 987 l 795 916 l 36 916 l 36 987 l 795 987 z "},"U":{"ha":913,"x_min":111,"x_max":805,"o":"m 722 987 l 805 987 l 805 319 q 758 134 805 208 q 632 23 711 60 q 458 -14 553 -14 q 281 23 359 -14 q 156 134 202 60 q 111 319 111 208 l 111 987 l 193 987 l 193 319 q 228 175 193 233 q 321 87 262 117 q 458 58 381 58 q 594 87 534 58 q 688 175 654 117 q 722 319 722 233 l 722 987 z "},"V":{"ha":857,"x_min":22,"x_max":836,"o":"m 434 123 l 745 987 l 836 987 l 469 0 l 401 0 l 434 123 m 113 987 l 422 123 l 456 0 l 389 0 l 22 987 l 113 987 z "},"W":{"ha":1245,"x_min":41,"x_max":1209,"o":"m 376 261 l 590 987 l 657 987 l 604 772 l 374 0 l 310 0 l 376 261 m 127 987 l 307 268 l 361 0 l 294 0 l 41 987 l 127 987 m 946 269 l 1124 987 l 1209 987 l 957 0 l 890 0 l 946 269 m 665 987 l 876 261 l 941 0 l 877 0 l 653 772 l 598 987 l 665 987 z "},"X":{"ha":850,"x_min":38,"x_max":813,"o":"m 148 987 l 426 571 l 704 987 l 803 987 l 476 501 l 813 0 l 713 0 l 426 431 l 137 0 l 38 0 l 375 501 l 48 987 l 148 987 z "},"Y":{"ha":832,"x_min":16,"x_max":813,"o":"m 116 987 l 415 450 l 716 987 l 813 987 l 456 372 l 456 0 l 373 0 l 373 372 l 16 987 l 116 987 z "},"Z":{"ha":831,"x_min":62,"x_max":772,"o":"m 772 72 l 772 0 l 92 0 l 92 72 l 772 72 m 750 927 l 115 0 l 62 0 l 62 64 l 696 987 l 750 987 l 750 927 m 713 987 l 713 916 l 79 916 l 79 987 l 713 987 z "},"[":{"ha":333,"x_min":111,"x_max":335,"o":"m 335 1128 l 335 1059 l 193 1059 l 193 -142 l 335 -142 l 335 -212 l 111 -212 l 111 1128 l 335 1128 z "},"\\":{"ha":548,"x_min":33,"x_max":525,"o":"m 446 -85 l 33 987 l 113 987 l 525 -85 l 446 -85 z "},"]":{"ha":333,"x_min":1,"x_max":225,"o":"m 1 1059 l 1 1128 l 225 1128 l 225 -212 l 1 -212 l 1 -142 l 143 -142 l 143 1059 l 1 1059 z "},"^":{"ha":578,"x_min":53,"x_max":519,"o":"m 295 902 l 131 494 l 53 494 l 256 987 l 310 987 l 295 902 m 440 494 l 277 902 l 262 987 l 317 987 l 519 494 l 440 494 z "},"_":{"ha":600,"x_min":1,"x_max":599,"o":"m 599 0 l 599 -70 l 1 -70 l 1 0 l 599 0 z "},"`":{"ha":397,"x_min":70,"x_max":298,"o":"m 168 1042 l 298 852 l 224 852 l 70 1042 l 168 1042 z "},"a":{"ha":745,"x_min":68,"x_max":656,"o":"m 553 132 l 553 510 q 531 600 553 562 q 467 659 509 638 q 363 679 425 679 q 262 659 307 679 q 192 605 218 639 q 167 531 167 572 l 86 532 q 106 612 86 573 q 163 681 126 650 q 253 729 201 711 q 368 747 304 747 q 506 721 446 747 q 600 642 566 694 q 634 509 634 589 l 634 154 q 640 75 634 116 q 656 9 646 35 l 656 0 l 570 0 q 557 61 562 24 q 553 132 553 98 m 572 427 l 573 365 l 414 365 q 303 354 352 365 q 220 321 254 342 q 168 270 186 300 q 150 202 150 240 q 170 130 150 163 q 227 79 189 98 q 315 60 264 60 q 434 84 382 60 q 519 150 486 109 q 565 239 553 191 l 600 192 q 568 123 591 159 q 508 56 545 87 q 420 6 471 25 q 305 -14 370 -14 q 180 14 234 -14 q 98 89 127 41 q 68 195 68 136 q 92 292 68 249 q 158 365 115 335 q 263 411 201 395 q 403 427 326 427 l 572 427 z "},"b":{"ha":770,"x_min":105,"x_max":697,"o":"m 105 1042 l 186 1042 l 186 142 l 181 0 l 105 0 l 105 1042 m 697 374 l 697 359 q 679 209 697 277 q 624 91 660 141 q 536 14 588 41 q 417 -14 484 -14 q 300 7 351 -14 q 214 66 250 28 q 156 157 178 104 q 125 271 134 209 l 125 452 q 158 572 136 518 q 216 666 180 627 q 301 726 252 705 q 416 747 351 747 q 535 721 483 747 q 624 646 588 695 q 679 528 660 597 q 697 374 697 459 m 615 359 l 615 374 q 603 493 615 438 q 565 589 591 548 q 498 653 538 630 q 400 676 457 676 q 301 657 342 676 q 234 606 260 637 q 191 537 207 574 q 168 464 176 500 l 168 254 q 208 158 180 202 q 284 86 237 113 q 401 58 332 58 q 497 81 457 58 q 564 145 538 104 q 603 241 590 186 q 615 359 615 296 z "},"c":{"ha":716,"x_min":64,"x_max":660,"o":"m 378 56 q 474 76 429 56 q 548 134 519 96 q 582 227 578 172 l 660 227 q 617 103 656 157 q 515 18 578 49 q 378 -14 452 -14 q 242 15 300 -14 q 144 93 183 43 q 84 209 104 142 q 64 353 64 275 l 64 381 q 84 525 64 458 q 144 642 104 592 q 241 720 183 692 q 377 747 300 747 q 518 715 456 747 q 618 625 581 684 q 660 487 656 567 l 582 487 q 551 589 578 546 q 477 654 523 631 q 377 677 432 677 q 270 653 315 677 q 198 588 226 629 q 158 493 171 546 q 146 381 146 439 l 146 353 q 158 241 146 294 q 198 146 171 188 q 270 80 226 104 q 378 56 315 56 z "},"d":{"ha":772,"x_min":74,"x_max":665,"o":"m 583 142 l 583 1042 l 665 1042 l 665 0 l 589 0 l 583 142 m 74 359 l 74 374 q 94 528 74 459 q 150 646 113 597 q 239 721 187 695 q 357 747 292 747 q 471 726 422 747 q 556 666 521 705 q 614 572 592 627 q 646 452 636 518 l 646 271 q 616 157 638 209 q 559 66 595 104 q 472 7 523 28 q 356 -14 422 -14 q 239 14 291 -14 q 150 91 186 41 q 94 209 113 141 q 74 359 74 277 m 156 374 l 156 359 q 169 241 156 296 q 208 145 182 186 q 275 81 235 104 q 371 58 316 58 q 488 85 441 58 q 564 156 536 112 q 606 254 593 201 l 606 464 q 582 537 597 500 q 539 606 566 574 q 472 657 513 637 q 372 676 431 676 q 276 653 317 676 q 208 589 235 630 q 169 493 182 548 q 156 374 156 438 z "},"e":{"ha":718,"x_min":61,"x_max":666,"o":"m 391 -14 q 258 13 319 -14 q 154 87 198 39 q 85 202 110 136 q 61 347 61 268 l 61 376 q 86 529 61 460 q 156 647 112 597 q 256 722 199 696 q 376 747 313 747 q 499 723 446 747 q 591 653 553 698 q 647 546 628 608 q 666 411 666 485 l 666 361 l 111 361 l 111 431 l 585 431 l 585 440 q 560 556 583 502 q 491 644 536 610 q 376 677 445 677 q 281 656 323 677 q 207 594 238 634 q 159 498 176 553 q 142 376 142 443 l 142 347 q 161 233 142 286 q 212 141 179 180 q 292 78 245 101 q 394 56 338 56 q 509 80 458 56 q 600 156 559 104 l 650 117 q 591 52 626 81 q 506 4 555 22 q 391 -14 456 -14 z "},"f":{"ha":460,"x_min":43,"x_max":468,"o":"m 246 0 l 165 0 l 165 825 q 191 951 165 900 q 266 1029 217 1003 q 381 1056 314 1056 q 425 1054 403 1056 q 468 1045 447 1051 l 462 976 q 428 982 446 981 q 388 984 410 984 q 312 965 344 984 q 263 911 280 947 q 246 825 246 876 l 246 0 m 421 734 l 421 667 l 43 667 l 43 734 l 421 734 z "},"g":{"ha":771,"x_min":74,"x_max":665,"o":"m 589 734 l 665 734 l 665 13 q 628 -151 665 -82 q 526 -256 592 -220 q 371 -292 460 -292 q 277 -279 325 -292 q 187 -237 229 -265 q 115 -167 144 -209 l 161 -117 q 256 -198 205 -172 q 366 -223 307 -223 q 484 -195 435 -223 q 558 -115 532 -168 q 583 10 583 -63 l 583 572 l 589 734 m 74 359 l 74 374 q 93 528 74 459 q 149 646 113 597 q 238 721 186 695 q 357 747 291 747 q 471 726 422 747 q 556 666 521 705 q 614 572 592 627 q 646 452 636 518 l 646 271 q 616 157 638 209 q 559 66 595 104 q 472 7 523 28 q 356 -14 422 -14 q 238 14 290 -14 q 149 91 186 41 q 93 209 113 141 q 74 359 74 277 m 155 374 l 155 359 q 168 241 155 296 q 208 145 181 186 q 275 81 234 104 q 371 58 315 58 q 488 85 441 58 q 563 156 535 112 q 604 254 591 201 l 604 464 q 581 537 596 500 q 539 606 566 574 q 471 657 512 637 q 372 676 431 676 q 275 653 316 676 q 208 589 234 630 q 168 493 181 548 q 155 374 155 438 z "},"h":{"ha":763,"x_min":106,"x_max":660,"o":"m 187 1042 l 187 0 l 106 0 l 106 1042 l 187 1042 m 170 412 l 134 433 q 159 555 137 498 q 220 655 182 612 q 311 723 258 699 q 426 747 363 747 q 524 732 481 747 q 598 685 568 718 q 644 602 628 653 q 660 478 660 551 l 660 0 l 578 0 l 578 479 q 557 597 578 554 q 498 659 536 640 q 406 677 459 677 q 304 651 348 677 q 231 586 260 626 q 186 499 201 545 q 170 412 170 454 z "},"i":{"ha":312,"x_min":102,"x_max":214,"o":"m 197 734 l 197 0 l 116 0 l 116 734 l 197 734 m 102 946 q 116 985 102 969 q 157 1001 131 1001 q 198 985 183 1001 q 214 946 214 969 q 198 908 214 924 q 157 892 183 892 q 116 908 131 892 q 102 946 102 924 z "},"j":{"ha":317,"x_min":-71,"x_max":210,"o":"m 113 734 l 194 734 l 194 -87 q 172 -201 194 -155 q 107 -272 150 -248 q 1 -296 64 -296 q -35 -293 -16 -296 q -71 -283 -55 -290 l -69 -216 q -41 -222 -58 -219 q -8 -224 -24 -224 q 58 -209 31 -224 q 99 -163 85 -194 q 113 -87 113 -133 l 113 734 m 98 946 q 113 985 98 969 q 154 1001 128 1001 q 195 985 180 1001 q 210 946 210 969 q 195 908 210 924 q 154 892 180 892 q 113 908 128 892 q 98 946 98 924 z "},"k":{"ha":681,"x_min":106,"x_max":675,"o":"m 188 1042 l 188 0 l 106 0 l 106 1042 l 188 1042 m 648 734 l 305 393 l 159 252 l 147 332 l 264 459 l 545 734 l 648 734 m 577 0 l 271 381 l 315 452 l 675 0 l 577 0 z "},"l":{"ha":312,"x_min":116,"x_max":197,"o":"m 197 1042 l 197 0 l 116 0 l 116 1042 l 197 1042 z "},"m":{"ha":1232,"x_min":102,"x_max":1132,"o":"m 184 583 l 184 0 l 102 0 l 102 734 l 180 734 l 184 583 m 168 412 l 130 433 q 154 555 133 498 q 212 655 175 612 q 301 723 249 699 q 420 747 354 747 q 517 733 474 747 q 592 687 561 718 q 640 607 623 656 q 656 489 656 558 l 656 0 l 576 0 l 576 486 q 553 600 576 559 q 490 659 530 642 q 397 677 450 677 q 291 651 334 677 q 221 586 248 626 q 182 499 195 545 q 168 412 170 454 m 656 476 l 602 475 q 626 577 605 528 q 685 664 648 626 q 774 725 722 703 q 891 747 826 747 q 993 732 948 747 q 1068 684 1038 717 q 1116 601 1099 652 q 1132 479 1132 550 l 1132 0 l 1050 0 l 1050 479 q 1028 600 1050 557 q 965 660 1005 643 q 871 677 925 677 q 779 657 819 676 q 712 609 739 639 q 671 544 685 578 q 656 476 657 509 z "},"n":{"ha":764,"x_min":106,"x_max":660,"o":"m 187 577 l 187 0 l 106 0 l 106 734 l 184 734 l 187 577 m 170 412 l 134 433 q 159 555 137 498 q 220 655 182 612 q 311 723 258 699 q 426 747 363 747 q 524 732 481 747 q 598 685 568 718 q 644 602 628 653 q 660 478 660 551 l 660 0 l 578 0 l 578 479 q 557 597 578 554 q 498 659 536 640 q 406 677 459 677 q 304 651 348 677 q 231 586 260 626 q 186 499 201 545 q 170 412 170 454 z "},"o":{"ha":779,"x_min":62,"x_max":717,"o":"m 62 356 l 62 378 q 85 526 62 458 q 151 643 109 593 q 254 720 194 692 q 389 747 315 747 q 524 720 463 747 q 628 643 585 692 q 694 526 671 593 q 717 378 717 458 l 717 356 q 694 209 717 276 q 628 91 671 141 q 525 14 585 41 q 390 -14 465 -14 q 255 14 315 -14 q 152 91 195 41 q 85 209 109 141 q 62 356 62 276 m 143 378 l 143 356 q 159 242 143 296 q 207 146 175 188 q 284 80 238 104 q 390 56 330 56 q 495 80 450 56 q 572 146 541 104 q 620 242 604 188 q 635 356 635 296 l 635 378 q 620 491 635 437 q 572 587 604 545 q 494 653 541 629 q 389 677 448 677 q 284 653 330 677 q 207 587 238 629 q 159 491 175 545 q 143 378 143 437 z "},"p":{"ha":770,"x_min":105,"x_max":696,"o":"m 186 593 l 186 -282 l 105 -282 l 105 734 l 181 734 l 186 593 m 696 374 l 696 359 q 678 209 696 277 q 623 91 659 141 q 535 14 587 41 q 416 -14 484 -14 q 299 7 351 -14 q 211 65 248 27 q 152 153 174 102 q 121 264 130 204 l 121 452 q 155 572 132 518 q 214 666 178 627 q 300 726 250 705 q 415 747 351 747 q 535 721 482 747 q 623 646 587 695 q 678 528 659 597 q 696 374 696 459 m 615 359 l 615 374 q 602 493 615 438 q 562 589 589 548 q 494 653 535 630 q 397 676 453 676 q 297 657 338 676 q 230 606 256 637 q 187 537 203 574 q 164 464 172 500 l 164 248 q 205 153 177 196 q 281 83 234 109 q 398 56 329 56 q 494 80 454 56 q 562 144 535 103 q 602 240 589 185 q 615 359 615 296 z "},"q":{"ha":775,"x_min":74,"x_max":665,"o":"m 583 -282 l 583 593 l 589 734 l 665 734 l 665 -282 l 583 -282 m 74 359 l 74 374 q 93 528 74 459 q 149 646 112 597 q 238 721 186 695 q 358 747 291 747 q 473 726 423 747 q 559 666 523 705 q 618 572 595 627 q 651 452 641 518 l 651 271 q 621 157 643 209 q 562 66 599 104 q 474 7 526 28 q 357 -14 423 -14 q 238 14 290 -14 q 149 91 185 41 q 93 209 113 141 q 74 359 74 277 m 156 374 l 156 359 q 169 240 156 296 q 209 144 182 185 q 276 80 235 103 q 372 56 317 56 q 490 83 442 56 q 567 156 538 111 q 608 254 595 201 l 608 464 q 585 536 602 498 q 542 605 569 573 q 473 657 514 637 q 374 677 431 677 q 276 654 317 677 q 209 589 235 631 q 169 493 182 548 q 156 374 156 438 z "},"r":{"ha":468,"x_min":106,"x_max":448,"o":"m 187 612 l 187 0 l 106 0 l 106 734 l 186 734 l 187 612 m 448 739 l 445 665 q 419 668 432 667 q 391 669 406 669 q 298 650 338 669 q 232 596 258 631 q 191 517 205 562 q 174 418 176 471 l 144 408 q 159 541 144 479 q 205 649 174 603 q 282 722 235 696 q 394 747 330 747 q 424 745 409 747 q 448 739 439 743 z "},"s":{"ha":704,"x_min":69,"x_max":627,"o":"m 546 187 q 531 247 546 218 q 474 300 516 275 q 350 341 431 324 q 240 372 288 355 q 160 412 193 389 q 111 469 127 436 q 94 548 94 503 q 112 625 94 589 q 163 689 130 661 q 244 732 197 716 q 352 747 292 747 q 498 719 437 747 q 591 640 558 690 q 623 528 623 591 l 542 528 q 520 600 542 566 q 455 656 498 634 q 352 677 413 677 q 250 659 289 677 q 193 610 211 640 q 175 550 175 581 q 182 506 175 526 q 211 469 190 486 q 271 437 232 452 q 370 408 309 422 q 516 360 459 388 q 600 291 572 332 q 627 192 627 250 q 608 109 627 146 q 554 44 589 71 q 468 1 518 16 q 357 -14 418 -14 q 199 18 264 -14 q 102 99 135 49 q 69 207 69 149 l 151 207 q 186 116 154 149 q 264 70 218 83 q 357 56 311 56 q 460 75 418 56 q 524 123 503 93 q 546 187 546 153 z "},"t":{"ha":447,"x_min":16,"x_max":397,"o":"m 385 734 l 385 667 l 16 667 l 16 734 l 385 734 m 151 922 l 233 922 l 233 179 q 246 102 233 128 q 281 67 259 76 q 328 59 303 59 q 363 61 347 59 q 394 66 380 64 l 397 -3 q 358 -11 382 -7 q 311 -14 334 -14 q 228 4 264 -14 q 172 64 192 22 q 151 179 151 106 l 151 922 z "},"u":{"ha":763,"x_min":104,"x_max":659,"o":"m 576 170 l 576 734 l 659 734 l 659 0 l 580 0 l 576 170 m 591 306 l 633 307 q 617 179 633 238 q 566 78 601 121 q 477 11 532 35 q 345 -14 422 -14 q 247 2 291 -14 q 170 51 202 18 q 121 136 138 83 q 104 264 104 189 l 104 734 l 184 734 l 184 263 q 198 165 184 205 q 234 102 211 125 q 288 68 258 79 q 354 58 319 58 q 495 93 444 58 q 569 183 547 127 q 591 306 591 240 z "},"v":{"ha":668,"x_min":26,"x_max":642,"o":"m 323 79 l 558 734 l 642 734 l 367 0 l 308 0 l 323 79 m 110 734 l 349 77 l 361 0 l 301 0 l 26 734 l 110 734 z "},"w":{"ha":1048,"x_min":43,"x_max":1000,"o":"m 310 172 l 487 734 l 545 734 l 511 583 l 326 0 l 268 0 l 310 172 m 127 734 l 282 168 l 315 0 l 256 0 l 43 734 l 127 734 m 764 170 l 916 734 l 1000 734 l 786 0 l 728 0 l 764 170 m 556 734 l 730 176 l 774 0 l 717 0 l 528 583 l 496 734 l 556 734 z "},"x":{"ha":676,"x_min":33,"x_max":642,"o":"m 139 734 l 336 437 l 535 734 l 631 734 l 382 374 l 642 0 l 547 0 l 338 310 l 129 0 l 33 0 l 292 374 l 43 734 l 139 734 z "},"y":{"ha":661,"x_min":22,"x_max":640,"o":"m 324 73 l 553 734 l 640 734 l 330 -117 q 306 -173 321 -142 q 268 -232 292 -204 q 210 -278 245 -260 q 125 -296 175 -296 q 92 -293 112 -296 q 62 -287 71 -290 l 62 -219 q 83 -222 69 -220 q 103 -223 98 -223 q 177 -208 147 -223 q 228 -164 208 -193 q 264 -91 248 -134 l 324 73 m 111 734 l 345 104 l 367 20 l 307 -14 l 22 734 l 111 734 z "},"z":{"ha":676,"x_min":60,"x_max":637,"o":"m 637 70 l 637 0 l 89 0 l 89 70 l 637 70 m 607 673 l 110 0 l 60 0 l 60 61 l 555 734 l 607 734 l 607 673 m 570 734 l 570 663 l 73 663 l 73 734 l 570 734 z "},"{":{"ha":459,"x_min":47,"x_max":452,"o":"m 432 1083 l 450 1029 q 322 930 360 1001 q 285 768 285 860 l 285 614 q 261 498 285 550 q 184 415 237 446 q 47 384 132 384 l 47 440 q 167 487 130 440 q 203 614 203 534 l 203 768 q 224 901 203 839 q 295 1010 245 963 q 432 1083 345 1057 m 452 -219 l 432 -273 q 295 -200 345 -247 q 224 -92 245 -154 q 203 41 203 -31 l 203 193 q 187 286 203 247 q 137 347 171 325 q 47 368 102 368 l 47 425 q 184 394 132 425 q 261 311 237 363 q 285 193 285 258 l 285 41 q 302 -73 285 -21 q 355 -162 319 -124 q 452 -219 392 -199 z "},"|":{"ha":307,"x_min":121,"x_max":190,"o":"m 190 987 l 190 -183 l 121 -183 l 121 987 l 190 987 z "},"}":{"ha":459,"x_min":7,"x_max":412,"o":"m 9 1029 l 26 1083 q 164 1010 115 1057 q 235 901 214 963 q 256 768 256 839 l 256 614 q 272 522 256 561 q 322 461 288 483 q 412 440 357 440 l 412 387 q 275 417 328 387 q 198 498 222 447 q 174 614 174 550 l 174 768 q 158 882 174 829 q 105 972 142 934 q 9 1029 69 1010 m 26 -273 l 7 -219 q 104 -162 67 -199 q 157 -73 140 -124 q 174 41 174 -21 l 174 193 q 198 310 174 258 q 275 391 222 361 q 412 421 328 421 l 412 368 q 293 321 330 368 q 256 193 256 273 l 256 41 q 235 -92 256 -31 q 164 -200 214 -154 q 26 -273 115 -247 z "},"~":{"ha":951,"x_min":99,"x_max":851,"o":"m 781 519 l 851 519 q 838 430 851 472 q 798 356 824 389 q 734 306 772 324 q 650 287 697 287 q 546 312 590 287 q 448 385 502 337 q 373 442 406 423 q 299 461 340 461 q 231 443 260 461 q 188 390 203 425 q 172 305 172 355 l 99 304 q 112 394 99 353 q 151 468 125 436 q 214 517 177 500 q 299 535 252 535 q 405 509 360 535 q 502 437 450 483 q 579 378 547 396 q 650 360 611 360 q 720 380 691 360 q 765 435 749 399 q 781 519 781 471 z "},"¡":{"ha":307,"x_min":96,"x_max":208,"o":"m 114 -244 l 119 468 l 194 468 l 199 -244 l 114 -244 m 208 693 q 193 654 208 671 q 152 638 178 638 q 111 654 126 638 q 96 693 96 671 q 111 732 96 716 q 152 747 126 747 q 193 732 178 747 q 208 693 208 716 z "},"¢":{"ha":757,"x_min":81,"x_max":677,"o":"m 432 894 l 432 712 l 351 712 l 351 894 l 432 894 m 432 15 l 432 -166 l 351 -166 l 351 15 l 432 15 m 395 56 q 491 76 446 56 q 565 134 536 96 q 599 227 595 172 l 677 227 q 634 103 673 157 q 532 18 595 49 q 395 -14 469 -14 q 259 15 317 -14 q 161 93 200 43 q 101 209 121 142 q 81 353 81 275 l 81 381 q 101 525 81 458 q 161 642 121 592 q 258 720 200 692 q 394 747 317 747 q 535 715 473 747 q 635 625 597 684 q 677 487 673 567 l 599 487 q 568 589 595 546 q 494 654 540 631 q 394 677 449 677 q 287 653 332 677 q 215 588 243 629 q 175 493 188 546 q 163 381 163 439 l 163 353 q 175 241 163 294 q 215 146 188 188 q 287 80 243 104 q 395 56 332 56 z "},"£":{"ha":794,"x_min":63,"x_max":743,"o":"m 743 0 l 66 0 l 66 72 l 742 72 l 743 0 m 506 437 l 63 437 l 63 509 l 506 509 l 506 437 m 266 705 l 281 250 q 265 127 282 180 q 212 45 248 73 l 133 72 q 171 108 157 79 q 192 176 186 137 q 197 250 198 215 l 182 705 q 218 864 182 798 q 315 966 253 930 q 457 1001 376 1001 q 602 968 543 1001 q 693 875 661 935 q 724 738 724 816 l 641 738 q 615 849 641 806 q 546 910 589 891 q 452 930 503 930 q 355 904 397 930 q 290 827 313 878 q 266 705 266 777 z "},"¤":{"ha":1005,"x_min":75,"x_max":933,"o":"m 175 412 q 201 277 175 340 q 271 165 227 213 q 375 90 316 117 q 502 63 435 63 q 629 90 570 63 q 732 165 688 117 q 803 277 777 213 q 828 412 828 340 q 803 548 828 485 q 732 659 777 611 q 629 734 688 707 q 502 761 570 761 q 375 734 435 761 q 271 659 316 707 q 201 548 227 611 q 175 412 175 485 m 98 412 q 130 580 98 503 q 217 715 161 657 q 345 805 272 772 q 502 837 418 837 q 659 805 585 837 q 787 715 732 772 q 874 580 843 657 q 905 412 905 503 q 874 245 905 322 q 787 110 843 168 q 659 19 732 52 q 502 -14 585 -14 q 345 19 418 -14 q 217 110 272 52 q 130 245 161 168 q 98 412 98 322 m 933 798 l 796 659 l 737 718 l 874 858 l 933 798 m 269 122 l 132 -18 l 75 42 l 212 181 l 269 122 m 874 -18 l 737 121 l 796 181 l 933 42 l 874 -18 m 212 659 l 75 798 l 132 857 l 269 718 l 212 659 z "},"¥":{"ha":717,"x_min":16,"x_max":699,"o":"m 641 479 l 641 418 l 75 418 l 75 479 l 641 479 m 641 281 l 641 220 l 75 220 l 75 281 l 641 281 m 349 476 l 606 987 l 699 987 l 397 418 l 338 418 l 349 476 m 111 987 l 369 474 l 378 418 l 319 418 l 16 987 l 111 987 m 398 496 l 398 0 l 315 0 l 315 496 l 398 496 z "},"¦":{"ha":302,"x_min":109,"x_max":190,"o":"m 190 -183 l 109 -183 l 109 340 l 190 340 l 190 -183 m 190 987 l 190 473 l 109 473 l 109 987 l 190 987 z "},"§":{"ha":841,"x_min":70,"x_max":760,"o":"m 469 90 l 469 143 q 583 163 536 143 q 654 216 629 182 q 678 290 678 250 q 665 356 678 328 q 620 407 652 384 q 536 451 589 430 q 405 494 483 471 q 278 535 334 513 q 184 587 222 557 q 125 659 145 617 q 104 760 104 701 q 127 859 104 814 q 191 936 149 904 q 292 984 233 967 q 424 1002 351 1002 q 595 968 524 1002 q 706 869 667 934 q 744 709 744 804 l 663 709 q 635 821 663 770 q 554 902 608 871 q 424 932 501 932 q 289 909 342 932 q 211 847 236 886 q 186 762 186 808 q 197 696 186 724 q 236 646 208 668 q 313 604 263 624 q 438 563 362 585 q 574 520 514 543 q 675 468 633 498 q 738 395 716 438 q 760 292 760 353 q 739 209 760 246 q 680 144 718 171 q 589 104 642 118 q 469 90 535 90 m 352 578 l 352 526 q 241 506 284 526 q 176 452 197 486 q 155 375 155 418 q 167 308 155 336 q 209 257 179 279 q 293 215 239 235 q 428 172 346 195 q 556 130 500 152 q 650 78 612 107 q 709 6 689 48 q 729 -94 729 -35 q 707 -196 729 -151 q 643 -272 684 -241 q 542 -319 601 -303 q 412 -336 484 -336 q 288 -321 349 -336 q 178 -272 227 -306 q 99 -182 128 -238 q 70 -43 70 -125 l 151 -42 q 174 -149 151 -106 q 236 -218 197 -192 q 320 -255 274 -243 q 412 -266 366 -266 q 540 -243 487 -266 q 620 -183 593 -221 q 648 -96 648 -144 q 636 -33 648 -60 q 597 16 625 -6 q 520 59 569 39 q 397 99 471 79 q 263 141 323 118 q 161 195 203 164 q 97 270 119 227 q 74 374 74 313 q 94 459 74 421 q 150 523 113 496 q 237 564 186 549 q 352 578 288 578 z "},"¨":{"ha":598,"x_min":94,"x_max":503,"o":"m 94 947 q 109 986 94 970 q 149 1002 123 1002 q 190 986 175 1002 q 205 947 205 970 q 190 909 205 924 q 149 893 175 893 q 109 909 123 893 q 94 947 94 924 m 391 946 q 405 985 391 969 q 446 1002 420 1002 q 487 985 472 1002 q 503 946 503 969 q 487 908 503 924 q 446 892 472 892 q 405 908 420 892 q 391 946 391 924 z "},"©":{"ha":1111,"x_min":73,"x_max":1036,"o":"m 694 412 l 761 412 q 703 252 761 305 q 547 199 646 199 q 429 232 479 199 q 350 324 378 265 q 321 461 321 383 l 321 527 q 350 664 321 605 q 429 756 378 723 q 547 789 479 789 q 704 736 646 789 q 762 577 762 684 l 694 577 q 657 692 694 655 q 547 728 619 728 q 461 702 496 728 q 408 630 426 675 q 389 528 389 585 l 389 461 q 408 359 389 404 q 461 287 426 313 q 547 261 496 261 q 656 297 619 261 q 694 412 694 332 m 131 494 q 164 318 131 400 q 255 175 197 237 q 391 79 314 114 q 555 45 467 45 q 718 79 642 45 q 853 175 795 114 q 944 318 911 237 q 977 494 977 400 q 944 671 977 589 q 853 813 911 752 q 718 908 795 874 q 555 942 642 942 q 391 908 467 942 q 255 813 314 874 q 164 671 197 752 q 131 494 131 589 m 73 494 q 111 694 73 602 q 214 856 148 787 q 368 963 281 924 q 555 1001 455 1001 q 742 963 654 1001 q 895 856 829 924 q 998 694 961 787 q 1036 494 1036 602 q 998 294 1036 387 q 895 133 961 202 q 742 24 829 63 q 555 -14 654 -14 q 368 24 455 -14 q 214 133 281 63 q 111 294 148 202 q 73 494 73 387 z "},"ª":{"ha":615,"x_min":107,"x_max":516,"o":"m 425 585 l 425 815 q 413 880 425 853 q 376 921 401 907 q 315 935 352 935 q 220 911 255 935 q 184 839 184 888 l 112 844 q 137 925 112 890 q 209 981 163 961 q 315 1002 254 1002 q 411 981 370 1002 q 475 918 452 960 q 498 814 498 877 l 498 602 q 503 538 498 568 q 516 479 507 509 l 441 479 q 425 585 425 528 m 444 774 l 445 718 l 331 718 q 249 706 282 718 q 198 672 215 694 q 180 619 180 650 q 206 558 180 581 q 290 534 232 534 q 358 551 324 534 q 414 591 391 568 q 436 637 436 615 l 450 581 q 417 530 440 556 q 358 487 393 504 q 276 469 322 469 q 151 510 194 469 q 107 616 107 550 q 133 702 107 667 q 208 755 158 736 q 330 774 258 774 l 444 774 z "},"«":{"ha":633,"x_min":83,"x_max":565,"o":"m 355 628 l 166 361 l 83 362 l 83 371 l 283 628 l 355 628 m 166 368 l 355 100 l 283 100 l 83 358 l 83 367 l 166 368 m 565 628 l 376 361 l 293 362 l 293 371 l 493 628 l 565 628 m 376 368 l 565 100 l 493 100 l 293 358 l 293 367 l 376 368 z "},"¬":{"ha":758,"x_min":85,"x_max":635,"o":"m 635 527 l 635 454 l 85 454 l 85 527 l 635 527 m 635 486 l 635 262 l 554 262 l 554 486 l 635 486 z "},"®":{"ha":1114,"x_min":70,"x_max":1033,"o":"m 576 452 l 415 452 l 414 515 l 564 515 q 627 527 598 515 q 673 561 656 538 q 690 618 690 584 q 677 680 690 656 q 634 714 665 703 q 550 726 603 726 l 441 726 l 441 218 l 375 218 l 375 787 l 550 787 q 662 769 616 787 q 733 713 709 750 q 757 619 757 675 q 741 554 757 583 q 695 504 725 525 q 622 471 665 484 q 617 469 620 471 q 613 467 615 467 q 598 457 602 460 q 592 453 595 454 q 576 452 589 452 m 569 452 l 579 498 q 712 454 677 498 q 748 346 748 410 l 748 315 q 751 268 748 290 q 760 229 753 245 l 760 218 l 690 218 q 682 269 684 236 q 681 316 681 301 l 681 345 q 655 427 681 401 q 569 452 630 452 m 127 494 q 161 318 127 400 q 252 175 194 237 q 387 79 311 114 q 551 45 464 45 q 715 79 639 45 q 850 175 792 114 q 942 318 909 237 q 975 494 975 400 q 942 671 975 589 q 850 813 909 752 q 715 908 792 874 q 551 942 639 942 q 387 908 464 942 q 252 813 311 874 q 161 671 194 752 q 127 494 127 589 m 70 494 q 107 694 70 602 q 211 856 144 787 q 365 963 277 924 q 551 1001 452 1001 q 738 963 651 1001 q 892 856 825 924 q 996 694 958 787 q 1033 494 1033 602 q 996 294 1033 387 q 892 133 958 202 q 738 24 825 63 q 551 -14 651 -14 q 365 24 452 -14 q 211 133 277 63 q 107 294 144 202 q 70 494 70 387 z "},"¯":{"ha":593,"x_min":94,"x_max":513,"o":"m 513 977 l 513 911 l 94 911 l 94 977 l 513 977 z "},"°":{"ha":525,"x_min":98,"x_max":428,"o":"m 98 832 q 120 917 98 878 q 181 979 143 956 q 264 1002 218 1002 q 346 979 309 1002 q 406 917 383 956 q 428 832 428 878 q 406 747 428 785 q 346 687 383 709 q 264 665 309 665 q 181 687 218 665 q 120 747 143 709 q 98 832 98 785 m 158 832 q 189 757 158 787 q 264 727 220 727 q 338 757 309 727 q 367 832 367 787 q 338 909 367 878 q 264 939 309 939 q 189 909 220 939 q 158 832 158 878 z "},"±":{"ha":736,"x_min":58,"x_max":679,"o":"m 679 563 l 679 493 l 58 493 l 58 563 l 679 563 m 414 859 l 414 196 l 338 196 l 338 859 l 414 859 m 654 70 l 654 0 l 87 0 l 87 70 l 654 70 z "},"²":{"ha":502,"x_min":52,"x_max":452,"o":"m 452 511 l 452 452 l 66 452 l 66 503 l 262 695 q 316 753 296 728 q 345 800 336 779 q 354 840 354 821 q 327 908 354 882 q 246 934 299 934 q 154 903 185 934 q 123 825 123 872 l 52 825 q 75 910 52 871 q 141 971 98 948 q 245 994 184 994 q 342 976 301 994 q 405 923 382 957 q 427 841 427 888 q 410 774 427 806 q 365 711 393 743 q 300 645 336 679 l 156 511 l 452 511 z "},"³":{"ha":502,"x_min":49,"x_max":442,"o":"m 182 751 l 235 751 q 303 764 276 751 q 345 797 331 776 q 359 842 359 817 q 332 907 359 881 q 246 934 305 934 q 163 910 197 934 q 130 845 130 886 l 58 845 q 83 924 58 890 q 151 976 108 958 q 245 994 193 994 q 343 977 301 994 q 408 926 385 959 q 431 844 431 892 q 409 779 431 809 q 346 730 387 749 q 246 712 304 712 l 182 712 l 182 751 m 182 696 l 182 736 l 246 736 q 355 719 312 736 q 420 671 399 702 q 442 597 442 640 q 417 515 442 549 q 347 462 391 480 q 247 444 303 444 q 153 461 198 444 q 78 512 107 477 q 49 601 49 547 l 120 601 q 156 531 120 559 q 249 504 193 504 q 339 530 307 504 q 370 600 370 556 q 353 656 370 635 q 306 686 336 677 q 235 696 275 696 l 182 696 z "},"´":{"ha":391,"x_min":85,"x_max":313,"o":"m 85 852 l 214 1042 l 313 1042 l 155 852 l 85 852 z "},"µ":{"ha":774,"x_min":111,"x_max":665,"o":"m 583 734 l 665 734 l 665 0 l 591 0 l 583 170 l 583 734 m 595 341 l 636 342 q 622 200 636 265 q 575 87 607 136 q 494 13 544 39 q 375 -14 445 -14 q 274 5 321 -14 q 194 66 227 23 q 147 184 161 110 l 138 305 l 191 305 q 205 180 191 229 q 245 104 220 132 q 302 67 270 77 q 370 56 334 56 q 483 78 439 56 q 552 138 528 99 q 586 229 576 177 q 595 341 595 281 m 111 734 l 191 734 l 191 -282 l 111 -282 l 111 734 z "},"¶":{"ha":661,"x_min":57,"x_max":544,"o":"m 544 0 l 463 0 l 463 353 l 391 353 q 208 394 283 353 q 95 507 134 435 q 57 670 57 578 q 95 833 57 761 q 208 946 134 905 q 391 987 283 987 l 544 987 l 544 0 z "},"·":{"ha":342,"x_min":111,"x_max":227,"o":"m 111 487 q 126 527 111 511 q 168 544 142 544 q 211 527 195 544 q 227 487 227 511 q 211 447 227 463 q 168 431 195 431 q 126 447 142 431 q 111 487 111 463 z "},"¸":{"ha":338,"x_min":67,"x_max":271,"o":"m 104 0 l 167 0 l 159 -43 q 236 -74 201 -50 q 271 -159 271 -99 q 258 -215 271 -190 q 219 -258 245 -240 q 156 -285 193 -275 q 72 -295 119 -295 l 67 -242 q 132 -234 101 -242 q 183 -207 163 -225 q 203 -161 203 -189 q 191 -120 203 -134 q 151 -98 178 -105 q 85 -87 125 -90 l 104 0 z "},"¹":{"ha":502,"x_min":86,"x_max":315,"o":"m 315 987 l 315 452 l 243 452 l 243 900 l 86 853 l 86 915 l 306 987 l 315 987 z "},"º":{"ha":626,"x_min":92,"x_max":530,"o":"m 92 701 l 92 768 q 119 889 92 836 q 195 971 146 941 q 311 1002 243 1002 q 428 971 379 1002 q 504 889 477 941 q 530 768 530 836 l 530 701 q 504 581 530 633 q 429 498 477 528 q 313 469 380 469 q 195 498 244 469 q 119 581 146 528 q 92 701 92 633 m 165 768 l 165 701 q 181 616 165 654 q 229 556 197 578 q 313 534 262 534 q 394 556 361 534 q 442 616 426 578 q 458 701 458 654 l 458 768 q 441 852 458 814 q 393 913 425 890 q 311 935 361 935 q 230 913 262 935 q 181 852 197 890 q 165 768 165 814 z "},"»":{"ha":630,"x_min":79,"x_max":567,"o":"m 79 110 l 268 376 l 351 376 l 351 367 l 151 110 l 79 110 m 79 641 l 151 641 l 351 380 l 351 371 l 268 370 l 79 641 m 295 110 l 484 376 l 567 376 l 567 367 l 367 110 l 295 110 m 295 641 l 367 641 l 567 380 l 567 371 l 484 370 l 295 641 z "},"¼":{"ha":1006,"x_min":78,"x_max":949,"o":"m 307 986 l 307 450 l 235 450 l 235 899 l 78 852 l 78 914 l 298 986 l 307 986 m 764 859 l 281 87 l 231 121 l 713 892 l 764 859 m 949 188 l 949 127 l 522 127 l 519 172 l 788 535 l 846 535 l 771 412 l 596 188 l 949 188 m 863 535 l 863 0 l 791 0 l 791 535 l 863 535 z "},"½":{"ha":1050,"x_min":68,"x_max":975,"o":"m 734 859 l 252 87 l 202 121 l 684 892 l 734 859 m 297 986 l 297 450 l 226 450 l 226 899 l 68 852 l 68 914 l 288 986 l 297 986 m 975 60 l 975 0 l 588 0 l 588 52 l 784 243 q 838 302 818 276 q 867 349 858 328 q 876 389 876 370 q 849 457 876 431 q 768 483 821 483 q 676 452 707 483 q 646 374 646 420 l 574 374 q 597 458 574 420 q 664 519 621 496 q 767 543 707 543 q 864 524 823 543 q 927 472 905 506 q 949 389 949 437 q 932 323 949 355 q 887 259 915 291 q 823 194 859 228 l 678 60 l 975 60 z "},"¾":{"ha":1078,"x_min":80,"x_max":1027,"o":"m 862 859 l 380 87 l 330 121 l 812 892 l 862 859 m 1028 188 l 1028 127 l 600 127 l 597 172 l 867 535 l 924 535 l 850 412 l 675 188 l 1028 188 m 941 535 l 941 0 l 870 0 l 870 535 l 941 535 m 214 752 l 267 752 q 335 764 308 752 q 377 797 363 776 q 391 843 391 817 q 364 908 391 881 q 278 935 337 935 q 195 910 229 935 q 161 846 161 886 l 90 846 q 115 924 90 891 q 182 976 140 958 q 277 994 225 994 q 375 977 333 994 q 440 926 416 960 q 463 844 463 892 q 441 779 463 809 q 378 730 419 749 q 278 712 336 712 l 214 712 l 214 752 m 214 696 l 214 736 l 278 736 q 387 719 344 736 q 452 672 431 703 q 474 598 474 641 q 449 515 474 549 q 379 462 423 480 q 279 444 335 444 q 184 461 230 444 q 110 512 139 477 q 81 601 81 547 l 152 601 q 188 531 152 559 q 281 504 224 504 q 371 530 339 504 q 402 600 402 556 q 385 656 402 635 q 338 687 368 677 q 267 696 307 696 l 214 696 z "},"¿":{"ha":638,"x_min":60,"x_max":578,"o":"m 293 467 l 374 467 q 366 374 374 409 q 337 309 358 338 q 275 238 315 279 q 209 170 239 203 q 160 95 179 136 q 141 -5 141 54 q 162 -104 141 -63 q 222 -166 182 -144 q 319 -187 262 -187 q 411 -166 372 -187 q 474 -106 451 -145 q 497 -14 496 -68 l 578 -14 q 543 -148 578 -93 q 450 -232 508 -203 q 319 -260 391 -260 q 179 -229 237 -260 q 91 -141 121 -198 q 60 -7 60 -84 q 83 111 60 58 q 145 210 106 164 q 229 297 183 255 q 271 347 258 322 q 289 401 285 372 q 293 467 293 431 m 385 693 q 370 654 385 670 q 330 638 355 638 q 288 654 303 638 q 273 693 273 670 q 288 731 273 715 q 330 747 303 747 q 370 731 355 747 q 385 693 385 715 z "},"Æ":{"ha":1265,"x_min":12,"x_max":1237,"o":"m 656 921 l 111 0 l 12 0 l 610 987 l 667 987 l 656 921 m 718 341 l 718 264 l 246 264 l 246 341 l 718 341 m 1237 70 l 1237 0 l 740 0 l 740 70 l 1237 70 m 722 987 l 764 0 l 682 0 l 641 987 l 722 987 m 1140 549 l 1140 479 l 713 479 l 713 549 l 1140 549 m 1196 987 l 1196 918 l 699 918 l 699 987 l 1196 987 z "},"×":{"ha":728,"x_min":64,"x_max":656,"o":"m 117 70 l 64 124 l 592 663 l 646 608 l 117 70 m 602 70 l 74 608 l 127 663 l 656 124 l 602 70 z "},"Ø":{"ha":941,"x_min":85,"x_max":865,"o":"m 865 1021 l 186 -57 l 116 -57 l 795 1021 l 865 1021 m 855 547 l 855 441 q 828 254 855 338 q 751 110 801 170 q 630 18 701 50 q 471 -14 559 -14 q 343 7 402 -14 q 236 67 283 28 q 155 162 189 106 q 103 288 121 218 q 85 441 85 358 l 85 547 q 113 734 85 650 q 191 878 140 818 q 313 969 242 937 q 470 1001 384 1001 q 600 980 540 1001 q 706 921 659 960 q 787 826 753 882 q 838 700 820 770 q 855 547 855 629 m 772 441 l 772 548 q 759 676 772 618 q 721 782 746 735 q 659 861 695 828 q 574 910 622 893 q 470 927 527 927 q 344 901 399 927 q 249 825 288 874 q 190 705 210 775 q 169 548 169 635 l 169 441 q 182 312 169 371 q 222 206 196 252 q 284 127 248 159 q 368 77 321 94 q 471 60 415 60 q 599 87 543 60 q 693 163 654 113 q 752 283 732 212 q 772 441 772 353 z "},"Þ":{"ha":824,"x_min":125,"x_max":743,"o":"m 125 987 l 205 987 l 205 0 l 125 0 l 125 987 m 162 782 l 426 782 q 600 745 529 782 q 707 645 670 709 q 743 500 743 582 q 707 356 743 420 q 600 256 670 293 q 426 220 529 220 l 178 220 l 178 290 l 426 290 q 562 321 510 290 q 638 400 614 352 q 663 499 663 448 q 638 602 663 553 q 562 682 614 650 q 426 713 510 713 l 197 713 l 162 782 z "},"ß":{"ha":814,"x_min":103,"x_max":743,"o":"m 184 765 l 184 0 l 103 0 l 103 765 q 120 887 103 834 q 169 976 137 940 q 246 1029 201 1011 q 348 1048 292 1048 q 465 1024 412 1048 q 549 953 517 1000 q 581 839 581 907 q 568 754 581 788 q 539 692 555 720 q 510 633 523 664 q 497 559 497 603 q 522 489 497 519 q 584 430 547 458 q 657 371 621 402 q 719 301 694 340 q 743 208 743 262 q 707 86 743 136 q 612 12 671 37 q 488 -14 554 -14 q 409 -6 450 -14 q 333 14 368 1 q 281 41 299 26 l 304 110 q 379 74 330 92 q 479 56 429 56 q 579 77 538 56 q 641 132 620 98 q 663 208 663 167 q 638 283 663 251 q 576 343 613 315 q 503 402 540 372 q 441 470 466 432 q 416 561 416 508 q 429 640 416 607 q 459 702 442 673 q 488 761 475 730 q 501 834 501 792 q 481 910 501 878 q 427 960 460 943 q 355 978 394 978 q 264 956 302 978 q 205 887 226 935 q 184 765 184 840 z "},"æ":{"ha":1175,"x_min":58,"x_max":1125,"o":"m 530 124 l 530 488 q 511 590 530 548 q 453 655 492 633 q 358 677 415 677 q 251 656 296 677 q 182 600 205 635 q 158 519 158 564 l 77 528 q 97 615 77 575 q 154 685 117 655 q 243 731 191 715 q 358 747 294 747 q 490 718 434 747 q 578 631 547 689 q 610 487 610 574 l 610 148 l 530 124 m 552 429 l 552 363 l 357 363 q 236 340 284 363 q 164 279 188 317 q 140 197 140 241 q 159 123 140 155 q 217 73 178 91 q 311 55 255 55 q 395 69 354 55 q 468 104 435 83 q 522 150 501 126 q 545 193 542 173 l 596 140 q 540 70 578 106 q 442 10 502 34 q 299 -14 382 -14 q 168 13 222 -14 q 86 87 115 39 q 58 199 58 135 q 77 295 58 252 q 134 367 96 337 q 227 413 172 397 q 356 429 283 429 l 552 429 m 859 -14 q 719 13 780 -14 q 617 88 659 39 q 555 202 576 136 q 534 346 534 268 l 534 382 q 556 530 534 463 q 621 646 579 597 q 718 721 662 694 q 838 747 773 748 q 961 726 907 747 q 1050 663 1014 704 q 1106 564 1087 622 q 1125 433 1125 506 l 1125 365 l 579 365 l 579 431 l 1044 431 l 1044 453 q 1022 566 1044 515 q 955 647 1000 617 q 838 677 909 677 q 743 655 785 677 q 671 591 701 632 q 627 497 642 551 q 612 382 612 444 l 612 346 q 626 233 612 286 q 670 141 640 180 q 747 79 700 101 q 859 56 793 56 q 988 81 935 56 q 1078 136 1041 105 l 1110 76 q 1058 37 1090 58 q 976 1 1025 16 q 859 -14 927 -14 z "},"ð":{"ha":808,"x_min":102,"x_max":716,"o":"m 201 1000 l 227 1071 q 434 980 343 1037 q 587 842 524 922 q 683 657 650 762 q 716 423 716 553 l 716 363 q 694 210 716 279 q 632 91 672 141 q 537 14 592 41 q 418 -14 483 -14 q 290 12 348 -14 q 190 82 232 37 q 125 188 148 127 q 102 317 102 248 q 123 458 102 395 q 183 564 144 520 q 277 632 222 608 q 399 655 332 655 q 539 622 475 655 q 644 533 604 589 q 683 406 683 477 l 649 403 q 635 461 649 430 q 591 521 621 493 q 518 566 562 549 q 414 584 473 584 q 312 564 355 584 q 240 509 269 545 q 197 424 212 473 q 183 317 183 375 q 199 222 183 269 q 244 139 214 176 q 319 80 275 102 q 420 58 363 58 q 509 80 470 58 q 577 144 549 103 q 620 241 605 186 q 635 363 635 297 l 635 425 q 601 650 635 554 q 508 813 568 745 q 370 926 448 881 q 201 1000 292 971 m 671 960 l 328 746 l 294 796 l 637 1010 l 671 960 z "},"÷":{"ha":790,"x_min":49,"x_max":726,"o":"m 726 516 l 726 436 l 49 436 l 49 516 l 726 516 m 336 739 q 352 779 336 762 q 393 795 367 795 q 436 779 420 795 q 452 739 452 762 q 436 699 452 715 q 393 683 420 683 q 352 699 367 683 q 336 739 336 715 m 336 198 q 352 238 336 222 q 393 255 367 255 q 436 238 420 255 q 452 198 452 222 q 436 158 452 174 q 393 142 420 142 q 352 158 367 142 q 336 198 336 174 z "},"ø":{"ha":774,"x_min":61,"x_max":715,"o":"m 649 823 l 199 -95 l 136 -95 l 586 823 l 649 823 m 61 356 l 61 378 q 84 526 61 458 q 150 643 107 593 q 254 720 193 692 q 388 747 314 747 q 523 720 463 747 q 626 643 583 692 q 692 526 669 593 q 715 378 715 458 l 715 356 q 692 209 715 276 q 627 91 669 141 q 524 14 584 41 q 389 -14 463 -14 q 254 14 315 -14 q 151 91 194 41 q 84 209 107 141 q 61 356 61 276 m 142 378 l 142 356 q 158 242 142 296 q 205 146 174 188 q 283 80 237 104 q 389 56 329 56 q 494 80 448 56 q 571 146 540 104 q 618 242 602 188 q 635 356 635 296 l 635 378 q 618 491 635 437 q 571 587 602 545 q 493 653 539 629 q 388 677 448 677 q 282 653 328 677 q 205 587 237 629 q 158 491 174 545 q 142 378 142 437 z "},"þ":{"ha":781,"x_min":109,"x_max":700,"o":"m 190 1042 l 190 -282 l 109 -282 l 109 1042 l 190 1042 m 700 374 l 700 359 q 681 209 700 277 q 626 91 662 141 q 538 14 591 41 q 420 -14 486 -14 q 302 7 354 -14 q 214 65 251 27 q 155 153 177 102 q 124 264 133 204 l 124 452 q 157 572 134 518 q 217 666 180 627 q 303 726 253 705 q 418 747 353 747 q 537 721 485 747 q 626 646 590 695 q 681 528 663 597 q 700 374 700 459 m 618 359 l 618 374 q 605 493 618 438 q 565 589 592 548 q 497 653 538 630 q 400 676 456 676 q 301 657 342 676 q 233 606 260 637 q 190 537 205 574 q 167 464 174 500 l 167 248 q 195 174 177 209 q 241 113 213 140 q 310 72 270 87 q 401 56 349 56 q 498 80 457 56 q 565 144 538 103 q 605 240 592 185 q 618 359 618 296 z "},"đ":{"ha":795,"x_min":74,"x_max":783,"o":"m 583 142 l 583 1042 l 665 1042 l 665 0 l 589 0 l 583 142 m 74 359 l 74 374 q 94 528 74 459 q 150 646 113 597 q 239 721 187 695 q 357 747 292 747 q 471 726 422 747 q 556 666 521 705 q 614 572 592 627 q 646 452 636 518 l 646 271 q 616 157 638 209 q 559 66 595 104 q 472 7 523 28 q 356 -14 422 -14 q 239 14 291 -14 q 150 91 186 41 q 94 209 113 141 q 74 359 74 277 m 156 374 l 156 359 q 169 241 156 296 q 208 145 182 186 q 275 81 235 104 q 371 58 316 58 q 488 85 441 58 q 564 156 536 112 q 606 254 593 201 l 606 464 q 582 537 597 500 q 539 606 566 574 q 472 657 513 637 q 372 676 431 676 q 276 653 317 676 q 208 589 235 630 q 169 493 182 548 q 156 374 156 438 m 783 922 l 783 852 l 368 852 l 368 922 l 783 922 z "},"Ħ":{"ha":958,"x_min":17,"x_max":939,"o":"m 939 762 l 939 696 l 17 696 l 17 762 l 939 762 m 773 545 l 773 473 l 174 473 l 174 545 l 773 545 m 193 987 l 193 0 l 110 0 l 110 987 l 193 987 m 841 987 l 841 0 l 758 0 l 758 987 l 841 987 z "},"ı":{"ha":310,"x_min":115,"x_max":195,"o":"m 195 734 l 195 0 l 115 0 l 115 734 l 195 734 z "},"ĸ":{"ha":754,"x_min":111,"x_max":717,"o":"m 192 734 l 192 0 l 111 0 l 111 734 l 192 734 m 683 734 l 321 336 l 163 336 l 155 409 l 283 409 l 584 734 l 683 734 m 613 0 l 276 347 l 327 410 l 717 0 l 613 0 z "},"Ł":{"ha":734,"x_min":15,"x_max":694,"o":"m 414 621 l 414 559 l 15 432 l 15 494 l 414 621 m 694 72 l 694 0 l 182 0 l 182 72 l 694 72 m 206 987 l 206 0 l 123 0 l 123 987 l 206 987 z "},"ł":{"ha":359,"x_min":18,"x_max":342,"o":"m 342 631 l 342 570 l 18 443 l 18 504 l 342 631 m 220 1042 l 220 0 l 140 0 l 140 1042 l 220 1042 z "},"Ŋ":{"ha":973,"x_min":123,"x_max":853,"o":"m 123 987 l 207 987 l 207 0 l 123 0 l 123 987 m 147 937 l 207 987 l 829 50 l 769 0 l 147 937 m 769 987 l 853 987 l 853 -58 q 828 -188 853 -135 q 756 -269 803 -241 q 646 -296 710 -296 q 607 -293 625 -296 q 568 -283 589 -290 l 578 -214 q 609 -221 589 -218 q 644 -224 630 -224 q 712 -205 684 -224 q 754 -148 740 -185 q 769 -58 769 -111 l 769 987 z "},"ŋ":{"ha":774,"x_min":107,"x_max":666,"o":"m 189 577 l 189 0 l 107 0 l 107 734 l 180 734 l 189 577 m 166 383 l 136 382 q 155 529 136 463 q 209 645 173 596 q 298 721 245 694 q 422 747 351 747 q 525 730 479 747 q 602 677 570 713 q 650 584 633 641 q 666 448 666 527 l 666 -60 q 641 -189 666 -136 q 570 -269 616 -242 q 460 -296 524 -296 q 417 -293 437 -296 q 376 -283 397 -290 l 385 -213 q 420 -220 397 -217 q 460 -223 444 -223 q 528 -204 500 -223 q 570 -149 555 -186 q 585 -60 585 -113 l 585 447 q 572 558 585 513 q 534 628 559 602 q 477 665 510 654 q 404 676 444 676 q 291 651 336 676 q 218 585 245 627 q 178 491 191 543 q 166 383 166 439 z "},"Œ":{"ha":1297,"x_min":74,"x_max":1221,"o":"m 437 1002 q 547 997 493 1002 q 650 987 601 993 l 650 916 q 548 928 602 924 q 437 932 494 932 q 320 909 372 932 q 231 843 269 886 q 174 738 194 800 q 155 598 155 676 l 155 391 q 175 252 155 314 q 232 146 195 190 q 321 79 269 102 q 439 56 374 56 q 549 60 494 56 q 650 72 604 64 l 650 0 q 548 -9 601 -5 q 439 -14 494 -14 q 291 15 357 -14 q 175 99 224 45 q 100 227 126 153 q 74 391 74 301 l 74 597 q 100 761 74 686 q 174 889 126 835 q 289 972 222 943 q 437 1002 356 1002 m 1221 72 l 1221 0 l 666 0 l 666 72 l 1221 72 m 691 987 l 691 0 l 608 0 l 608 987 l 691 987 m 1152 545 l 1152 473 l 666 473 l 666 545 l 1152 545 m 1218 987 l 1218 916 l 666 916 l 666 987 l 1218 987 z "},"œ":{"ha":1283,"x_min":64,"x_max":1237,"o":"m 958 -14 q 831 13 889 -14 q 729 88 772 39 q 662 202 686 136 q 637 346 637 268 l 637 382 q 662 530 637 463 q 729 646 686 597 q 828 721 772 694 q 947 747 884 748 q 1069 725 1015 747 q 1160 662 1123 703 q 1217 563 1198 621 q 1237 434 1237 505 l 1237 365 l 686 365 l 686 434 l 1156 434 l 1156 454 q 1131 567 1156 516 q 1060 647 1107 617 q 947 677 1014 677 q 854 655 896 677 q 782 591 812 632 q 735 497 751 551 q 719 382 719 444 l 719 346 q 735 233 719 286 q 784 141 752 180 q 859 79 815 101 q 958 56 903 56 q 1090 78 1038 56 q 1178 137 1143 100 l 1213 80 q 1113 14 1175 41 q 958 -14 1050 -14 m 64 356 l 64 378 q 87 526 64 458 q 152 643 110 593 q 254 720 195 692 q 388 747 314 747 q 523 720 463 747 q 626 643 583 692 q 691 526 668 593 q 713 378 713 458 l 713 356 q 691 208 713 276 q 626 91 668 140 q 524 14 583 41 q 389 -14 464 -14 q 255 14 315 -14 q 153 91 195 41 q 87 208 110 140 q 64 356 64 276 m 146 378 l 146 356 q 161 242 146 296 q 208 146 177 188 q 284 80 239 104 q 389 56 330 56 q 494 80 449 56 q 570 146 540 104 q 616 242 601 188 q 632 356 632 296 l 632 378 q 616 491 632 437 q 570 587 601 545 q 493 653 539 629 q 388 677 448 677 q 283 653 329 677 q 207 587 238 629 q 161 491 176 545 q 146 378 146 437 z "},"ſ":{"ha":315,"x_min":114,"x_max":416,"o":"m 195 0 l 114 0 l 114 825 q 139 951 114 900 q 212 1029 165 1003 q 324 1056 258 1056 q 370 1053 347 1056 q 416 1043 393 1050 l 406 977 q 374 984 390 982 q 334 986 358 986 q 259 967 290 986 q 211 912 228 948 q 195 825 195 876 l 195 0 z "},"Ə":{"ha":972,"x_min":85,"x_max":890,"o":"m 492 -14 q 320 16 396 -14 q 192 103 245 46 q 112 239 140 159 q 85 418 85 319 l 85 501 l 838 501 l 838 432 l 169 432 l 169 396 q 188 264 169 326 q 248 157 208 203 q 348 85 288 111 q 492 59 409 59 q 625 90 567 59 q 724 175 684 121 q 786 301 765 229 q 807 456 807 374 l 807 546 q 787 695 807 625 q 726 817 768 764 q 620 899 685 869 q 465 928 555 928 q 302 904 370 928 q 186 848 234 880 l 160 911 q 224 951 184 930 q 323 987 264 972 q 465 1001 382 1001 q 647 968 568 1001 q 781 874 726 935 q 863 730 835 813 q 890 546 890 646 l 890 456 q 860 266 890 352 q 776 117 830 180 q 649 20 722 54 q 492 -14 576 -14 z "},"ƒ":{"ha":455,"x_min":-40,"x_max":463,"o":"m 408 734 l 408 667 l 241 667 l 241 -60 q 217 -189 241 -136 q 146 -269 193 -242 q 36 -296 100 -296 q -3 -293 15 -296 q -40 -283 -20 -290 l -31 -216 q 1 -223 -20 -220 q 36 -227 22 -227 q 103 -207 75 -227 q 146 -150 131 -187 q 161 -60 161 -113 l 161 667 l 39 667 l 39 734 l 161 734 l 161 825 q 186 951 161 900 q 258 1029 211 1003 q 371 1056 306 1056 q 417 1053 394 1056 q 463 1043 440 1050 l 453 976 q 420 983 437 981 q 379 985 403 985 q 304 966 335 985 q 257 912 273 947 q 241 825 241 876 l 241 734 l 408 734 z "},"Ơ":{"ha":969,"x_min":90,"x_max":982,"o":"m 907 1063 l 982 1063 q 958 922 982 979 q 881 834 933 864 q 747 804 829 804 l 747 868 q 844 891 810 868 q 893 957 879 913 q 907 1063 907 1001 m 860 547 l 860 441 q 833 254 860 338 q 755 110 806 170 q 634 18 705 50 q 476 -14 564 -14 q 348 7 407 -14 q 241 67 288 28 q 160 162 193 106 q 108 288 126 218 q 90 441 90 358 l 90 547 q 118 734 90 650 q 196 878 145 818 q 318 969 247 937 q 475 1001 389 1001 q 604 980 545 1001 q 711 921 664 960 q 791 826 758 882 q 842 700 825 770 q 860 547 860 629 m 777 441 l 777 548 q 764 676 777 618 q 725 782 751 735 q 663 861 700 828 q 579 910 627 893 q 475 927 532 927 q 349 901 405 927 q 254 825 294 874 q 194 705 215 775 q 174 548 174 635 l 174 441 q 187 312 174 371 q 227 206 201 252 q 289 127 252 159 q 373 77 326 94 q 476 60 420 60 q 604 87 548 60 q 698 163 659 113 q 756 283 736 212 q 777 441 777 353 z "},"ơ":{"ha":778,"x_min":61,"x_max":803,"o":"m 734 813 l 803 813 q 784 694 803 743 q 722 618 766 644 q 602 592 678 592 l 602 650 q 687 669 659 650 q 725 726 715 689 q 734 813 734 763 m 61 356 l 61 378 q 84 526 61 458 q 150 643 107 593 q 254 720 193 692 q 388 747 314 747 q 523 720 463 747 q 626 643 583 692 q 692 526 669 593 q 715 378 715 458 l 715 356 q 692 209 715 276 q 627 91 669 141 q 524 14 584 41 q 389 -14 463 -14 q 254 14 315 -14 q 151 91 194 41 q 84 209 107 141 q 61 356 61 276 m 142 378 l 142 356 q 158 242 142 296 q 205 146 174 188 q 283 80 237 104 q 389 56 329 56 q 494 80 448 56 q 571 146 540 104 q 618 242 602 188 q 635 356 635 296 l 635 378 q 618 491 635 437 q 571 587 602 545 q 493 653 539 629 q 388 677 448 677 q 282 653 328 677 q 205 587 237 629 q 158 491 174 545 q 142 378 142 437 z "},"Ư":{"ha":946,"x_min":111,"x_max":1029,"o":"m 957 1048 l 1029 1048 q 1004 901 1029 960 q 926 811 980 842 q 781 781 871 781 l 781 844 q 889 868 851 844 q 942 937 927 891 q 957 1048 957 982 m 722 987 l 805 987 l 805 319 q 758 134 805 208 q 632 23 711 60 q 458 -14 553 -14 q 281 23 359 -14 q 156 134 202 60 q 111 319 111 208 l 111 987 l 193 987 l 193 319 q 228 175 193 233 q 321 87 262 117 q 458 58 381 58 q 594 87 534 58 q 688 175 654 117 q 722 319 722 233 l 722 987 z "},"ư":{"ha":814,"x_min":104,"x_max":842,"o":"m 775 800 l 842 800 q 824 683 842 730 q 761 611 806 635 q 638 587 717 587 l 638 644 q 729 661 700 644 q 767 713 758 678 q 775 800 775 748 m 576 170 l 576 734 l 659 734 l 659 0 l 580 0 l 576 170 m 591 306 l 633 307 q 617 179 633 238 q 566 78 601 121 q 477 11 532 35 q 345 -14 422 -14 q 247 2 291 -14 q 170 51 202 18 q 121 136 138 83 q 104 264 104 189 l 104 734 l 184 734 l 184 263 q 198 165 184 205 q 234 102 211 125 q 288 68 258 79 q 354 58 319 58 q 495 93 444 58 q 569 183 547 127 q 591 306 591 240 z "},"ȷ":{"ha":318,"x_min":-79,"x_max":203,"o":"m 122 734 l 203 734 l 203 -60 q 178 -189 203 -136 q 108 -269 154 -242 q -3 -296 62 -296 q -41 -293 -24 -296 q -79 -283 -59 -290 l -70 -216 q -38 -223 -59 -220 q -3 -227 -17 -227 q 64 -207 37 -227 q 107 -150 92 -187 q 122 -60 122 -113 l 122 734 z "},"ə":{"ha":716,"x_min":63,"x_max":663,"o":"m 342 748 q 469 722 411 748 q 571 647 528 695 q 638 532 614 598 q 663 388 663 467 l 663 351 q 638 204 663 271 q 571 89 614 137 q 472 13 528 40 q 353 -14 416 -14 q 231 9 285 -14 q 140 73 177 31 q 83 172 102 114 q 63 300 63 229 l 63 370 l 614 370 l 614 300 l 144 300 l 144 280 q 169 168 144 219 q 240 87 193 117 q 353 56 287 56 q 446 79 404 56 q 518 142 488 102 q 565 237 549 183 q 581 351 581 290 l 581 388 q 564 501 581 448 q 516 593 547 553 q 441 656 485 633 q 342 678 397 678 q 210 656 263 678 q 122 597 157 633 l 87 654 q 188 721 125 693 q 342 748 250 748 z "},"ˆ":{"ha":597,"x_min":109,"x_max":486,"o":"m 322 1036 l 486 861 l 486 854 l 410 854 l 296 977 l 182 854 l 109 854 l 109 862 l 271 1036 l 322 1036 z "},"ˇ":{"ha":568,"x_min":98,"x_max":476,"o":"m 170 1031 l 287 900 l 404 1031 l 476 1031 l 476 1023 l 316 846 l 257 846 l 98 1024 l 98 1031 l 170 1031 z "},"ˉ":{"ha":593,"x_min":94,"x_max":513,"o":"m 513 977 l 513 911 l 94 911 l 94 977 l 513 977 z "},"˘":{"ha":587,"x_min":94,"x_max":486,"o":"m 416 1011 l 486 1011 q 462 920 486 960 q 395 859 439 881 q 290 836 351 836 q 147 885 199 836 q 94 1011 94 934 l 163 1011 q 192 930 163 964 q 290 895 220 895 q 387 930 358 895 q 416 1011 416 965 z "},"˙":{"ha":312,"x_min":101,"x_max":213,"o":"m 101 938 q 116 977 101 960 q 157 993 131 993 q 198 977 182 993 q 213 938 213 960 q 198 899 213 915 q 157 884 182 884 q 116 899 131 884 q 101 938 101 915 z "},"˚":{"ha":431,"x_min":80,"x_max":342,"o":"m 80 947 q 97 1012 80 983 q 144 1059 115 1042 q 211 1076 174 1076 q 304 1039 266 1076 q 342 947 342 1001 q 324 881 342 910 q 277 836 307 852 q 211 820 248 820 q 118 856 155 820 q 80 947 80 892 m 132 947 q 154 891 132 914 q 211 868 176 868 q 268 891 245 868 q 290 947 290 913 q 268 1004 290 981 q 211 1027 245 1027 q 154 1004 176 1027 q 132 947 132 981 z "},"˛":{"ha":348,"x_min":41,"x_max":254,"o":"m 196 26 l 236 0 q 177 -48 205 -23 q 132 -100 149 -73 q 114 -159 114 -127 q 126 -199 114 -182 q 172 -216 139 -216 q 214 -208 197 -216 q 243 -193 232 -201 l 254 -251 q 215 -271 239 -261 q 156 -281 192 -281 q 74 -252 106 -281 q 41 -165 41 -223 q 60 -97 41 -132 q 114 -32 79 -63 q 196 26 149 0 z "},"˜":{"ha":605,"x_min":73,"x_max":529,"o":"m 468 1012 l 529 1008 q 511 932 529 965 q 464 881 494 899 q 396 863 433 863 q 337 874 361 863 q 296 900 314 886 q 257 926 277 915 q 208 937 237 937 q 155 916 177 937 q 134 857 134 895 l 73 859 q 90 935 73 903 q 138 986 108 968 q 205 1004 168 1004 q 260 992 237 1004 q 303 967 283 981 q 345 941 323 952 q 393 930 366 930 q 446 952 425 930 q 468 1012 468 975 z "},"˝":{"ha":525,"x_min":82,"x_max":527,"o":"m 256 836 l 430 1042 l 527 1042 l 338 836 l 256 836 m 82 836 l 220 1042 l 313 1042 l 156 836 l 82 836 z "},"˳":{"ha":422,"x_min":107,"x_max":314,"o":"m 107 -157 q 138 -87 107 -115 q 212 -59 169 -59 q 284 -87 254 -59 q 314 -157 314 -115 q 284 -224 314 -198 q 212 -251 254 -251 q 138 -224 169 -251 q 107 -157 107 -198 m 157 -157 q 173 -191 157 -177 q 212 -205 189 -205 q 250 -191 234 -205 q 266 -157 266 -177 q 250 -120 266 -135 q 212 -106 234 -106 q 173 -120 189 -106 q 157 -157 157 -135 z "},"̀":{"ha":0,"x_min":-543,"x_max":-315,"o":"m -445 1042 l -315 852 l -389 852 l -543 1042 l -445 1042 z "},"́":{"ha":0,"x_min":-418,"x_max":-190,"o":"m -418 852 l -288 1042 l -190 1042 l -347 852 l -418 852 z "},"̃":{"ha":0,"x_min":-579,"x_max":-123,"o":"m -184 1012 l -123 1008 q -140 932 -123 965 q -188 881 -158 899 q -256 863 -218 863 q -314 874 -291 863 q -356 900 -338 886 q -394 926 -374 915 q -444 937 -414 937 q -496 916 -475 937 q -518 857 -518 895 l -579 859 q -562 935 -579 903 q -514 986 -544 968 q -447 1004 -484 1004 q -391 992 -414 1004 q -348 967 -368 981 q -307 941 -328 952 q -258 930 -286 930 q -205 952 -227 930 q -184 1012 -184 975 z "},"̉":{"ha":0,"x_min":-448,"x_max":-243,"o":"m -363 838 l -424 838 l -425 922 q -360 932 -385 926 q -323 952 -335 939 q -311 987 -311 965 q -323 1017 -311 1004 q -354 1036 -334 1029 q -398 1047 -374 1044 q -448 1050 -422 1050 l -443 1103 q -360 1095 -397 1103 q -297 1071 -323 1086 q -257 1034 -271 1055 q -243 985 -243 1013 q -279 908 -243 932 q -362 880 -315 884 l -363 838 z "},"̏":{"ha":0,"x_min":-663,"x_max":-211,"o":"m -376 849 l -458 849 l -663 1029 l -559 1029 l -376 849 m -211 849 l -286 849 l -454 1029 l -359 1029 l -211 849 z "},"̣":{"ha":0,"x_min":-456,"x_max":-344,"o":"m -456 -157 q -441 -118 -456 -134 q -400 -102 -426 -102 q -359 -118 -374 -102 q -344 -157 -344 -134 q -359 -195 -344 -180 q -400 -211 -374 -211 q -441 -195 -426 -211 q -456 -157 -456 -180 z "},"΄":{"ha":353,"x_min":136,"x_max":266,"o":"m 136 871 l 186 1078 l 266 1078 l 192 871 l 136 871 z "},"΅":{"ha":666,"x_min":104,"x_max":559,"o":"m 297 958 l 321 1129 l 412 1129 l 363 958 l 297 958 m 104 947 q 119 986 104 970 q 160 1002 134 1002 q 201 986 186 1002 q 216 947 216 970 q 201 909 216 924 q 160 893 186 893 q 119 909 134 893 q 104 947 104 924 m 448 946 q 463 985 448 969 q 503 1002 477 1002 q 544 985 529 1002 q 559 946 559 969 q 544 908 559 924 q 503 892 529 892 q 463 908 477 892 q 448 946 448 924 z "},"·":{"ha":342,"x_min":111,"x_max":227,"o":"m 111 487 q 126 527 111 511 q 168 544 142 544 q 211 527 195 544 q 227 487 227 511 q 211 447 227 463 q 168 431 195 431 q 126 447 142 431 q 111 487 111 463 z "},"Γ":{"ha":767,"x_min":126,"x_max":722,"o":"m 722 987 l 722 916 l 210 916 l 210 0 l 126 0 l 126 987 l 722 987 z "},"Δ":{"ha":968,"x_min":31,"x_max":933,"o":"m 490 897 l 118 0 l 31 0 l 448 987 l 506 987 l 490 897 m 846 0 l 483 900 l 469 987 l 528 987 l 933 0 l 846 0 m 864 72 l 864 0 l 94 0 l 94 72 l 864 72 z "},"∆":{"ha":968,"x_min":31,"x_max":933,"o":"m 490 897 l 118 0 l 31 0 l 448 987 l 506 987 l 490 897 m 846 0 l 483 900 l 469 987 l 528 987 l 933 0 l 846 0 m 864 72 l 864 0 l 94 0 l 94 72 l 864 72 z "},"Θ":{"ha":935,"x_min":80,"x_max":850,"o":"m 655 528 l 655 458 l 279 458 l 279 528 l 655 528 m 850 547 l 850 441 q 823 254 850 338 q 745 110 795 170 q 624 18 695 50 q 466 -14 553 -14 q 337 7 397 -14 q 231 67 278 28 q 150 162 183 106 q 98 288 116 218 q 80 441 80 358 l 80 547 q 107 734 80 650 q 186 878 135 818 q 308 969 237 937 q 465 1001 378 1001 q 594 980 534 1001 q 701 921 654 960 q 781 826 748 882 q 832 700 814 770 q 850 547 850 629 m 766 441 l 766 548 q 753 676 766 618 q 715 782 741 735 q 653 861 690 828 q 569 910 616 893 q 465 927 522 927 q 339 901 395 927 q 244 825 283 874 q 184 705 205 775 q 163 548 163 635 l 163 441 q 177 312 163 371 q 216 206 191 252 q 279 127 242 159 q 362 77 315 94 q 466 60 410 60 q 593 87 538 60 q 688 163 649 113 q 746 283 726 212 q 766 441 766 353 z "},"Λ":{"ha":901,"x_min":47,"x_max":849,"o":"m 467 919 l 137 0 l 47 0 l 408 987 l 468 987 l 467 919 m 760 0 l 427 921 l 427 987 l 488 987 l 849 0 l 760 0 z "},"Ξ":{"ha":777,"x_min":79,"x_max":704,"o":"m 79 0 l 79 72 l 704 72 l 704 0 l 79 0 m 145 462 l 145 533 l 631 533 l 631 462 l 145 462 m 87 916 l 87 987 l 685 987 l 685 916 l 87 916 z "},"Π":{"ha":983,"x_min":128,"x_max":854,"o":"m 854 987 l 854 0 l 771 0 l 771 916 l 212 916 l 212 0 l 128 0 l 128 987 l 854 987 z "},"Σ":{"ha":777,"x_min":43,"x_max":726,"o":"m 726 72 l 726 0 l 74 0 l 74 72 l 726 72 m 690 987 l 690 916 l 72 916 l 72 987 l 690 987 m 479 528 l 479 504 l 95 0 l 43 0 l 43 64 l 392 515 l 43 924 l 43 987 l 95 987 l 479 528 z "},"Φ":{"ha":994,"x_min":60,"x_max":935,"o":"m 530 131 l 465 131 q 297 158 372 131 q 170 234 222 185 q 89 350 117 283 q 60 495 60 417 q 110 682 60 600 q 250 813 159 765 q 464 861 340 861 l 532 861 q 699 833 624 861 q 826 757 773 806 q 907 641 879 707 q 935 496 935 574 q 886 309 935 392 q 746 179 837 227 q 530 131 655 131 m 465 203 l 532 203 q 707 240 636 203 q 815 344 779 278 q 852 496 852 410 q 831 614 852 560 q 770 706 810 667 q 670 767 729 745 q 533 789 610 789 l 464 789 q 289 751 361 789 q 181 647 218 713 q 144 495 144 581 q 164 377 144 431 q 226 284 185 323 q 327 224 267 245 q 465 203 387 203 m 540 987 l 540 0 l 456 0 l 456 987 l 540 987 z "},"Ψ":{"ha":965,"x_min":83,"x_max":878,"o":"m 793 987 l 878 987 l 878 636 q 827 433 878 517 q 688 307 777 350 q 487 263 600 263 l 470 263 q 316 288 387 263 q 193 360 245 312 q 112 477 141 408 q 83 636 83 547 l 83 987 l 168 987 l 168 636 q 190 510 168 566 q 253 415 212 454 q 349 355 294 376 q 471 335 404 335 l 487 335 q 646 371 577 335 q 754 474 715 407 q 793 636 793 542 l 793 987 m 519 987 l 519 0 l 435 0 l 435 987 l 519 987 z "},"Ω":{"ha":910,"x_min":81,"x_max":819,"o":"m 730 494 l 730 574 q 711 720 730 654 q 654 832 691 785 q 566 905 617 880 q 449 930 514 930 q 334 905 385 930 q 245 832 282 880 q 190 720 209 785 q 170 574 170 654 l 170 494 q 189 329 170 400 q 239 209 208 258 q 312 128 271 159 q 396 82 353 97 l 396 14 q 279 70 335 29 q 180 172 224 110 q 111 316 136 235 q 85 494 85 397 l 85 573 q 112 748 85 669 q 186 883 138 827 q 301 970 235 940 q 449 1001 368 1001 q 597 970 530 1001 q 713 883 665 940 q 788 748 762 827 q 814 573 814 669 l 814 494 q 789 316 814 397 q 721 173 764 235 q 623 70 678 111 q 509 14 568 30 l 509 82 q 592 128 552 97 q 663 209 631 159 q 712 330 694 259 q 730 494 730 401 m 509 0 l 509 72 l 819 72 l 819 0 l 509 0 m 81 0 l 81 72 l 396 72 l 396 0 l 81 0 z "},"Ω":{"ha":910,"x_min":81,"x_max":819,"o":"m 730 494 l 730 574 q 711 720 730 654 q 654 832 691 785 q 566 905 617 880 q 449 930 514 930 q 334 905 385 930 q 245 832 282 880 q 190 720 209 785 q 170 574 170 654 l 170 494 q 189 329 170 400 q 239 209 208 258 q 312 128 271 159 q 396 82 353 97 l 396 14 q 279 70 335 29 q 180 172 224 110 q 111 316 136 235 q 85 494 85 397 l 85 573 q 112 748 85 669 q 186 883 138 827 q 301 970 235 940 q 449 1001 368 1001 q 597 970 530 1001 q 713 883 665 940 q 788 748 762 827 q 814 573 814 669 l 814 494 q 789 316 814 397 q 721 173 764 235 q 623 70 678 111 q 509 14 568 30 l 509 82 q 592 128 552 97 q 663 209 631 159 q 712 330 694 259 q 730 494 730 401 m 509 0 l 509 72 l 819 72 l 819 0 l 509 0 m 81 0 l 81 72 l 396 72 l 396 0 l 81 0 z "},"α":{"ha":783,"x_min":75,"x_max":778,"o":"m 75 347 l 75 361 q 94 518 75 448 q 149 641 113 589 q 238 720 185 692 q 357 747 290 747 q 449 733 408 747 q 522 690 490 718 q 577 623 553 663 q 615 535 600 584 q 639 429 631 486 l 639 292 q 610 170 631 226 q 554 73 589 114 q 470 8 519 31 q 356 -14 420 -14 q 237 12 290 -14 q 149 86 185 38 q 94 200 113 134 q 75 347 75 266 m 157 361 l 157 347 q 170 231 157 284 q 209 138 183 178 q 275 77 235 99 q 371 56 316 56 q 464 75 425 56 q 532 129 504 95 q 577 208 559 163 q 605 300 595 252 l 605 411 q 581 503 597 456 q 537 589 564 549 q 469 653 509 629 q 372 677 429 677 q 276 653 317 677 q 209 585 235 629 q 170 485 183 542 q 157 361 157 427 m 594 734 l 664 734 l 664 186 q 669 125 664 149 q 684 86 674 100 q 706 66 693 72 q 732 60 718 60 q 750 62 743 60 q 766 66 758 64 l 778 2 q 745 -11 761 -8 q 711 -14 728 -14 q 656 -3 680 -14 q 615 32 632 8 q 591 94 599 56 q 583 186 583 132 l 583 577 l 594 734 z "},"β":{"ha":823,"x_min":121,"x_max":740,"o":"m 337 545 l 437 545 q 604 509 536 545 q 705 412 671 473 q 740 275 740 351 q 701 119 740 183 q 593 20 662 54 q 435 -14 524 -14 q 333 1 385 -14 q 237 45 281 15 q 166 120 193 75 q 139 229 139 166 l 176 250 q 210 151 176 195 q 301 81 243 107 q 429 56 358 56 q 554 83 503 56 q 632 158 606 110 q 658 272 658 207 q 632 382 658 333 q 556 460 606 431 q 434 489 507 489 l 337 489 l 337 545 m 404 1001 q 550 968 488 1001 q 647 876 612 935 q 681 741 681 817 q 648 621 681 675 q 552 533 614 566 q 404 500 490 500 l 337 500 l 337 559 l 401 559 q 515 583 471 559 q 579 647 559 606 q 600 745 600 689 q 578 834 600 791 q 514 904 557 877 q 404 931 471 931 q 301 904 347 931 q 229 829 256 877 q 202 721 202 782 l 202 -270 l 121 -270 l 121 721 q 159 864 121 801 q 262 964 198 928 q 404 1001 326 1001 z "},"γ":{"ha":680,"x_min":31,"x_max":654,"o":"m 382 68 l 382 -282 l 302 -282 l 302 68 l 382 68 m 359 163 l 570 734 l 654 734 l 375 0 l 316 0 l 359 163 m 115 734 l 328 163 l 369 0 l 310 0 l 31 734 l 115 734 z "},"δ":{"ha":774,"x_min":62,"x_max":711,"o":"m 148 874 q 179 971 148 929 q 266 1037 210 1013 q 396 1061 321 1061 q 498 1050 450 1061 q 593 1016 546 1040 l 586 945 q 502 976 547 962 q 395 989 457 989 q 311 976 349 989 q 252 938 274 963 q 230 876 230 912 q 239 834 230 854 q 269 795 248 813 q 327 760 290 777 q 418 728 363 743 q 581 647 516 701 q 679 520 646 593 q 711 364 711 448 l 711 342 q 689 200 711 265 q 624 87 667 135 q 522 13 582 39 q 388 -14 462 -14 q 253 13 313 -14 q 151 87 193 39 q 85 200 108 135 q 62 342 62 265 l 62 364 q 97 523 62 454 q 187 633 132 591 q 300 686 241 675 l 300 692 q 213 742 247 713 q 163 804 179 770 q 148 874 148 838 m 144 364 l 144 342 q 160 233 144 285 q 206 142 176 182 q 282 79 237 102 q 388 56 328 56 q 493 79 448 56 q 568 142 538 102 q 614 233 599 182 q 630 342 630 285 l 630 364 q 611 465 630 418 q 560 551 593 513 q 485 614 527 589 q 396 647 443 639 q 287 624 334 647 q 208 561 240 601 q 160 470 176 521 q 144 364 144 419 z "},"ε":{"ha":755,"x_min":73,"x_max":679,"o":"m 365 393 l 496 393 l 496 340 l 371 340 q 253 326 301 340 q 180 280 205 311 q 155 201 155 250 q 169 142 155 169 q 212 97 184 116 q 281 67 240 77 q 374 56 321 56 q 492 77 441 56 q 570 133 542 98 q 597 211 597 168 l 679 211 q 652 111 679 153 q 582 41 626 68 q 484 0 538 14 q 374 -14 430 -14 q 254 1 309 -14 q 158 43 199 16 q 96 111 118 71 q 73 202 73 151 q 92 284 73 248 q 148 344 111 319 q 239 381 184 368 q 365 393 294 393 m 496 355 l 365 355 q 248 370 300 355 q 160 409 196 384 q 105 468 124 435 q 86 539 86 501 q 106 628 86 589 q 165 694 127 667 q 256 734 203 720 q 374 747 309 747 q 486 733 433 747 q 580 690 539 718 q 644 624 621 663 q 667 536 667 585 l 586 536 q 557 610 586 578 q 481 660 529 642 q 374 678 433 678 q 257 659 302 678 q 190 609 212 640 q 168 540 168 578 q 180 487 168 511 q 215 445 191 463 q 278 418 239 428 q 371 409 317 409 l 496 409 l 496 355 z "},"ζ":{"ha":684,"x_min":50,"x_max":628,"o":"m 586 987 l 628 987 l 628 935 l 359 593 q 269 466 303 524 q 219 355 235 408 q 203 247 203 302 q 214 187 203 213 q 244 142 224 161 q 298 109 265 123 q 375 82 330 94 l 449 61 q 534 34 499 48 q 589 -6 570 19 q 608 -76 608 -31 q 589 -153 608 -115 q 544 -220 570 -191 q 496 -263 518 -249 l 450 -224 q 488 -186 469 -208 q 518 -139 506 -165 q 530 -85 530 -114 q 518 -50 530 -64 q 482 -25 506 -36 q 422 -5 458 -14 l 361 11 q 252 48 297 28 q 178 97 207 69 q 136 160 149 124 q 123 245 123 197 q 139 353 123 294 q 193 482 155 412 q 297 633 231 552 l 586 987 m 50 987 l 597 987 l 597 918 l 50 918 l 50 987 z "},"η":{"ha":774,"x_min":108,"x_max":666,"o":"m 189 577 l 189 0 l 108 0 l 108 734 l 182 734 l 189 577 m 174 383 l 132 382 q 151 529 132 463 q 205 645 169 596 q 296 721 241 694 q 422 747 350 747 q 525 732 479 747 q 602 684 570 718 q 650 597 633 651 q 666 465 666 543 l 666 -281 l 585 -281 l 585 465 q 572 568 585 527 q 534 633 559 609 q 477 667 510 657 q 404 677 444 677 q 294 653 338 677 q 223 586 250 628 q 185 491 197 543 q 174 383 174 439 z "},"θ":{"ha":796,"x_min":94,"x_max":701,"o":"m 397 1002 q 503 984 455 1002 q 587 931 550 966 q 649 845 624 897 q 688 725 675 793 q 701 572 701 656 l 701 418 q 688 266 701 334 q 650 145 675 197 q 588 58 625 93 q 504 4 551 22 q 399 -14 456 -14 q 295 4 342 -14 q 210 58 248 22 q 147 145 173 93 q 108 266 121 197 q 94 418 94 334 l 94 572 q 108 725 94 656 q 147 845 121 793 q 209 931 172 897 q 293 984 246 966 q 397 1002 340 1002 m 397 932 q 301 908 342 932 q 231 838 259 884 q 190 728 203 792 q 176 583 176 663 l 176 526 l 621 526 l 621 583 q 611 702 621 647 q 585 799 602 756 q 540 871 567 842 q 478 916 513 901 q 397 932 442 932 m 399 56 q 479 73 444 56 q 541 119 515 89 q 585 193 568 150 q 612 291 603 237 q 621 410 621 346 l 621 456 l 176 456 l 176 410 q 184 291 176 346 q 212 193 193 237 q 257 119 230 150 q 319 73 283 89 q 399 56 355 56 z "},"ι":{"ha":417,"x_min":124,"x_max":370,"o":"m 124 734 l 205 734 l 205 186 q 219 109 205 135 q 254 74 233 83 q 301 65 276 65 q 336 67 319 65 q 367 73 353 70 l 370 4 q 332 -4 355 -1 q 283 -7 308 -7 q 201 11 237 -7 q 144 71 165 28 q 124 186 124 113 l 124 734 z "},"λ":{"ha":765,"x_min":34,"x_max":736,"o":"m 363 614 l 123 0 l 34 0 l 330 747 l 389 733 l 363 614 m 172 1029 q 241 1017 212 1029 q 288 982 269 1004 q 320 935 307 960 q 341 883 332 909 l 613 160 q 637 108 625 129 q 665 76 649 87 q 702 66 680 66 q 716 66 707 66 q 731 68 726 67 l 736 0 q 716 -5 729 -3 q 690 -7 703 -7 q 617 9 646 -7 q 570 59 589 26 q 534 135 551 91 l 336 663 l 262 854 q 236 911 250 887 q 204 947 223 935 q 156 960 185 960 q 140 959 151 960 q 123 957 130 958 l 120 1022 q 144 1027 128 1025 q 172 1029 161 1029 z "},"ξ":{"ha":682,"x_min":81,"x_max":627,"o":"m 623 971 l 612 904 q 558 919 586 913 q 502 928 530 925 q 443 932 473 932 q 312 911 363 932 q 236 854 260 890 q 212 775 212 819 q 227 708 212 738 q 270 657 241 678 q 347 625 300 636 q 460 614 394 614 l 549 614 l 549 556 l 457 556 q 320 573 380 556 q 218 620 260 590 q 153 688 176 649 q 131 772 131 727 q 153 871 131 828 q 216 942 175 913 q 314 986 257 971 q 443 1001 372 1001 q 507 998 475 1001 q 569 987 539 994 q 623 971 599 981 m 457 597 l 549 597 l 549 543 l 460 543 q 307 518 374 543 q 201 440 239 493 q 163 302 163 387 q 194 184 163 231 q 281 110 226 138 q 405 63 336 81 l 469 47 q 557 18 522 33 q 609 -21 592 3 q 627 -85 627 -45 q 607 -157 627 -123 q 561 -218 587 -192 q 515 -259 535 -245 l 468 -219 q 504 -185 485 -203 q 535 -145 522 -168 q 549 -92 549 -122 q 538 -61 549 -74 q 504 -38 528 -48 q 442 -18 481 -28 l 396 -6 q 271 34 328 11 q 171 92 213 58 q 105 179 128 127 q 81 304 81 231 q 109 431 81 376 q 187 523 137 486 q 306 579 237 560 q 457 597 375 597 z "},"π":{"ha":827,"x_min":35,"x_max":808,"o":"m 769 734 l 769 663 l 35 663 l 35 734 l 769 734 m 240 734 l 240 0 l 159 0 l 159 734 l 240 734 m 562 734 l 644 734 l 644 186 q 657 109 644 135 q 692 74 670 83 q 739 65 714 65 q 774 67 758 65 q 805 73 791 70 l 808 4 q 769 -4 793 -1 q 722 -7 745 -7 q 639 11 675 -7 q 582 71 603 28 q 562 186 562 113 l 562 734 z "},"ρ":{"ha":774,"x_min":108,"x_max":697,"o":"m 108 -282 l 108 412 q 131 557 108 495 q 194 662 153 620 q 288 726 235 705 q 401 747 341 747 q 528 720 473 747 q 621 641 583 692 q 678 518 659 589 q 697 361 697 448 l 697 347 q 679 200 697 266 q 624 86 660 134 q 537 12 589 38 q 418 -14 485 -14 q 301 6 353 -14 q 214 62 250 26 q 156 150 178 99 q 125 264 134 201 q 136 260 126 264 q 156 252 146 256 q 166 248 166 248 q 207 153 179 196 q 283 83 235 109 q 400 56 331 56 q 496 78 456 56 q 563 139 536 100 q 602 231 589 178 q 615 347 615 284 l 615 361 q 603 485 615 427 q 565 585 591 542 q 498 653 538 629 q 401 677 458 677 q 303 653 343 677 q 238 588 262 629 q 201 499 213 547 q 190 404 190 451 l 189 -282 l 108 -282 z "},"ς":{"ha":743,"x_min":76,"x_max":665,"o":"m 389 747 q 528 718 465 747 q 628 629 591 688 q 665 485 665 571 l 587 485 q 562 589 587 546 q 492 655 536 632 q 389 677 447 677 q 286 653 330 677 q 214 588 243 629 q 172 493 186 546 q 158 381 158 439 l 158 353 q 190 219 158 276 q 281 123 221 162 q 427 64 342 85 q 520 34 483 50 q 575 -9 557 18 q 594 -83 594 -37 q 576 -150 594 -115 q 533 -213 558 -185 q 488 -255 509 -241 l 443 -216 q 478 -182 461 -200 q 505 -142 494 -164 q 515 -91 515 -119 q 505 -50 515 -66 q 470 -24 494 -35 q 404 -5 446 -14 q 229 62 302 17 q 116 180 156 108 q 76 353 76 252 l 76 381 q 97 525 76 458 q 159 642 118 592 q 257 720 199 692 q 389 747 315 747 z "},"σ":{"ha":772,"x_min":62,"x_max":768,"o":"m 62 356 l 62 378 q 85 520 62 455 q 150 633 108 585 q 253 707 193 681 q 387 734 313 734 q 422 726 406 733 q 456 709 438 718 q 498 692 474 700 q 613 620 565 667 q 686 508 661 572 q 711 366 711 444 l 711 344 q 689 204 711 269 q 624 91 667 140 q 522 14 582 42 q 388 -14 462 -14 q 253 14 313 -14 q 151 91 193 41 q 85 209 108 141 q 62 356 62 276 m 144 378 l 144 356 q 159 242 144 296 q 206 146 175 188 q 282 80 237 104 q 388 56 328 56 q 493 80 448 56 q 568 146 538 104 q 614 242 599 188 q 630 356 630 296 l 630 378 q 614 486 630 434 q 568 577 599 537 q 492 640 537 617 q 387 663 446 663 q 281 640 327 663 q 205 577 236 617 q 159 486 175 537 q 144 378 144 434 m 768 734 l 768 663 l 386 663 l 386 734 l 768 734 z "},"τ":{"ha":711,"x_min":52,"x_max":658,"o":"m 658 734 l 658 665 l 52 665 l 52 734 l 658 734 m 302 734 l 384 734 l 384 186 q 397 108 384 136 q 432 69 410 80 q 482 58 454 58 q 519 61 503 58 q 550 70 535 65 l 567 8 q 518 -9 543 -5 q 467 -14 493 -14 q 377 7 414 -14 q 321 72 340 27 q 302 190 302 117 l 302 734 z "},"υ":{"ha":743,"x_min":106,"x_max":659,"o":"m 106 734 l 187 734 l 187 275 q 199 174 187 216 q 234 106 212 132 q 286 68 256 80 q 351 56 315 56 q 452 83 409 56 q 523 154 495 109 q 565 254 551 199 q 578 367 578 309 q 555 561 578 469 q 498 734 532 652 l 587 734 q 622 637 606 690 q 649 518 639 584 q 659 368 659 452 q 640 220 659 290 q 583 98 621 151 q 488 16 545 45 q 354 -14 431 -14 q 252 3 298 -14 q 174 55 206 20 q 123 145 141 90 q 106 277 106 200 l 106 734 z "},"φ":{"ha":952,"x_min":77,"x_max":878,"o":"m 432 -324 l 432 593 q 452 670 432 639 q 505 718 472 701 q 576 734 538 734 q 694 707 640 734 q 791 631 749 680 q 855 516 832 583 q 878 370 878 449 q 854 225 878 294 q 782 102 831 156 q 656 17 732 48 q 475 -14 580 -14 q 292 16 368 -14 q 169 100 216 47 q 99 225 121 154 q 77 376 77 296 q 100 527 77 458 q 162 647 122 595 q 254 734 201 700 l 296 675 q 222 595 252 642 q 175 491 191 547 q 158 376 159 435 q 174 260 158 317 q 225 157 189 203 q 323 83 262 111 q 475 56 385 56 q 660 102 589 56 q 764 220 730 149 q 798 369 798 292 q 782 479 797 427 q 738 574 766 532 q 668 640 709 616 q 576 664 627 664 q 531 645 549 664 q 513 595 513 625 l 513 -324 l 432 -324 z "},"ψ":{"ha":949,"x_min":83,"x_max":876,"o":"m 83 734 l 164 734 l 164 401 q 187 242 164 308 q 251 135 210 176 q 349 75 292 94 q 471 56 405 56 q 627 85 564 56 q 726 162 689 113 q 778 270 762 210 q 794 392 794 330 q 766 572 793 486 q 700 734 739 658 l 789 734 q 830 644 810 693 q 863 532 850 594 q 876 393 876 471 q 853 234 876 308 q 784 104 831 160 q 660 18 736 49 q 475 -14 584 -14 q 314 11 386 -14 q 190 85 241 35 q 111 214 138 135 q 83 402 83 293 l 83 734 m 429 734 l 510 734 l 510 -301 l 429 -301 l 429 734 z "},"ω":{"ha":1145,"x_min":93,"x_max":1053,"o":"m 871 734 l 959 734 q 1004 635 983 688 q 1039 514 1025 581 q 1053 361 1053 447 q 1037 215 1053 283 q 990 96 1021 147 q 909 16 958 45 q 794 -14 861 -14 q 693 7 738 -14 q 616 70 648 28 q 568 176 585 112 q 551 326 551 239 l 551 522 l 614 522 l 614 324 q 627 201 614 252 q 664 118 640 150 q 720 71 688 85 q 790 56 752 56 q 873 81 839 56 q 929 149 907 106 q 961 246 951 191 q 971 360 971 300 q 942 557 970 464 q 871 734 913 651 m 186 734 l 275 734 q 204 557 233 651 q 174 360 175 464 q 181 267 174 312 q 201 184 187 222 q 236 117 214 146 q 287 72 257 88 q 355 56 316 56 q 426 71 393 56 q 481 118 458 85 q 518 201 505 150 q 532 324 532 252 l 532 522 l 595 522 l 595 326 q 578 176 595 239 q 529 70 561 112 q 452 7 497 28 q 351 -14 408 -14 q 256 5 298 -14 q 183 58 214 24 q 133 140 153 93 q 103 243 113 186 q 93 361 93 299 q 106 514 93 447 q 141 635 120 581 q 186 734 163 688 z "},"ϑ":{"ha":798,"x_min":91,"x_max":774,"o":"m 768 526 l 774 457 q 711 440 749 448 q 637 433 673 433 q 419 478 508 433 q 285 599 330 523 q 239 770 239 675 l 239 783 q 267 905 239 855 q 340 982 294 956 q 443 1009 387 1009 q 536 991 495 1009 q 605 939 576 973 q 647 854 633 904 q 662 741 662 804 l 662 291 q 627 119 662 186 q 529 19 592 52 q 379 -14 465 -14 q 262 6 315 -14 q 171 65 210 26 q 112 160 133 104 q 91 291 91 217 l 91 514 l 172 515 l 172 291 q 198 162 172 214 q 270 84 223 110 q 379 58 316 58 q 489 81 444 58 q 558 156 534 104 q 581 291 581 208 l 581 741 q 573 827 581 790 q 547 888 564 864 q 504 925 530 913 q 443 937 478 937 q 382 921 410 937 q 338 871 355 905 q 321 783 321 838 l 321 769 q 353 639 321 699 q 455 542 385 578 q 637 505 525 505 q 708 512 673 505 q 768 526 743 518 z "},"ϒ":{"ha":745,"x_min":-32,"x_max":784,"o":"m 418 458 l 418 0 l 335 0 l 335 458 l 418 458 m 393 528 l 538 854 q 586 938 562 907 q 640 982 610 969 q 707 996 669 996 q 749 990 730 996 q 784 977 768 985 l 764 911 q 746 919 759 915 q 718 922 734 922 q 683 916 701 922 q 647 888 665 909 q 610 826 629 867 l 414 393 l 353 400 l 393 528 m 216 855 l 361 526 l 399 400 l 341 393 l 142 826 q 105 888 123 867 q 70 916 87 909 q 34 922 52 922 q 5 919 18 922 q -12 911 -7 915 l -32 977 q 3 990 -16 985 q 45 996 22 996 q 112 983 82 996 q 166 939 141 970 q 216 855 192 909 z "},"ϖ":{"ha":1092,"x_min":39,"x_max":1067,"o":"m 1067 734 l 1067 664 l 39 664 l 39 734 l 1067 734 m 833 734 l 922 734 q 966 635 945 688 q 1001 514 987 581 q 1015 361 1015 447 q 1005 243 1015 299 q 977 140 996 186 q 928 58 958 93 q 860 5 899 24 q 769 -14 820 -14 q 668 7 713 -14 q 591 70 623 28 q 543 176 559 112 q 526 326 526 239 l 526 507 l 589 507 l 589 324 q 602 201 589 252 q 639 118 615 150 q 695 71 663 85 q 765 56 727 56 q 828 72 801 56 q 876 117 856 88 q 909 184 896 146 q 928 267 922 222 q 934 360 934 312 q 904 557 932 464 q 833 734 875 651 m 174 734 l 262 734 q 192 557 221 651 q 162 360 163 464 q 168 267 162 312 q 187 184 174 222 q 219 117 199 146 q 267 72 239 88 q 330 56 294 56 q 401 71 369 56 q 457 118 433 85 q 494 201 481 150 q 507 324 507 252 l 507 507 l 570 507 l 570 326 q 553 176 570 239 q 504 70 536 112 q 428 7 473 28 q 326 -14 382 -14 q 236 5 276 -14 q 167 58 197 24 q 119 140 138 93 q 90 243 100 186 q 81 361 81 299 q 94 514 81 447 q 130 635 108 581 q 174 734 151 688 z "},"Ђ":{"ha":1034,"x_min":37,"x_max":977,"o":"m 382 467 l 382 542 q 464 572 418 559 q 555 593 509 585 q 637 601 600 601 q 815 568 739 601 q 934 465 891 534 q 977 288 977 396 q 957 177 977 230 q 898 82 938 124 q 797 17 859 41 q 652 -7 736 -7 l 651 61 q 760 79 714 61 q 835 129 806 97 q 879 201 865 160 q 892 288 892 242 q 861 422 892 370 q 772 501 829 475 q 637 526 715 526 q 550 519 593 526 q 465 499 507 512 q 382 467 422 486 m 414 987 l 414 0 l 330 0 l 330 987 l 414 987 m 798 987 l 798 916 l 37 916 l 37 987 l 798 987 z "},"Є":{"ha":918,"x_min":91,"x_max":826,"o":"m 586 536 l 586 465 l 160 465 l 160 536 l 586 536 m 742 309 l 826 309 q 771 136 816 208 q 649 25 726 64 q 463 -14 571 -14 q 310 18 378 -14 q 192 109 241 50 q 117 250 143 168 q 91 432 91 332 l 91 555 q 117 737 91 655 q 193 878 143 819 q 312 969 242 937 q 469 1001 382 1001 q 650 963 574 1001 q 771 852 726 924 q 826 679 816 781 l 742 679 q 700 814 732 759 q 610 900 667 870 q 469 929 553 929 q 345 903 399 929 q 253 827 291 876 q 195 709 215 777 q 175 556 175 640 l 175 432 q 187 310 175 367 q 223 207 199 253 q 282 127 247 161 q 362 76 317 94 q 463 58 408 58 q 608 86 550 58 q 699 170 667 114 q 742 309 732 225 z "},"Љ":{"ha":1466,"x_min":35,"x_max":1391,"o":"m 277 987 l 360 987 l 334 531 q 317 331 328 418 q 288 181 307 244 q 241 79 270 119 q 168 19 212 39 q 64 0 125 0 l 35 0 l 35 72 l 61 73 q 130 88 101 74 q 180 134 159 102 q 215 219 201 166 q 238 352 229 273 q 253 541 247 432 l 277 987 m 753 987 l 753 916 l 307 916 l 307 987 l 753 987 m 790 576 l 1063 576 q 1244 539 1171 576 q 1354 436 1316 502 q 1391 288 1391 371 q 1370 174 1391 226 q 1308 82 1349 121 q 1205 21 1266 43 q 1063 0 1144 0 l 736 0 l 736 987 l 819 987 l 819 72 l 1063 72 q 1204 103 1150 72 q 1282 183 1257 134 q 1308 290 1308 233 q 1282 393 1308 344 q 1204 473 1257 442 q 1063 505 1150 505 l 790 505 l 790 576 z "},"Њ":{"ha":1499,"x_min":127,"x_max":1424,"o":"m 786 534 l 786 462 l 191 462 l 191 534 l 786 534 m 210 987 l 210 0 l 127 0 l 127 987 l 210 987 m 823 562 l 1097 562 q 1277 526 1204 562 q 1387 427 1350 490 q 1424 283 1424 364 q 1403 170 1424 222 q 1341 81 1382 119 q 1238 21 1299 43 q 1097 0 1177 0 l 769 0 l 769 987 l 852 987 l 852 75 l 1097 75 q 1237 104 1183 75 q 1316 181 1291 134 q 1341 284 1341 229 q 1316 384 1341 337 q 1237 461 1291 431 q 1097 490 1183 490 l 823 490 l 823 562 z "},"Ћ":{"ha":1118,"x_min":37,"x_max":1000,"o":"m 1000 0 l 917 0 l 917 281 q 889 417 917 366 q 806 490 861 468 q 671 513 751 513 q 594 510 631 513 q 520 500 557 507 q 447 486 484 494 q 375 466 411 477 l 375 538 q 443 556 409 548 q 514 571 477 565 q 589 581 550 578 q 671 585 628 585 q 849 555 775 585 q 961 458 922 525 q 1000 281 1000 391 l 1000 0 m 418 987 l 418 0 l 334 0 l 334 987 l 418 987 m 798 987 l 798 916 l 37 916 l 37 987 l 798 987 z "},"Џ":{"ha":979,"x_min":126,"x_max":852,"o":"m 126 0 l 126 987 l 210 987 l 210 72 l 768 72 l 768 987 l 852 987 l 852 0 l 126 0 m 534 64 l 534 -240 l 451 -240 l 451 64 l 534 64 z "},"Б":{"ha":872,"x_min":121,"x_max":776,"o":"m 716 987 l 716 916 l 204 916 l 204 0 l 121 0 l 121 987 l 716 987 m 175 560 l 449 560 q 629 525 556 560 q 739 427 702 490 q 776 281 776 364 q 755 168 776 219 q 692 79 734 117 q 590 20 651 41 q 449 0 529 0 l 121 0 l 121 987 l 205 987 l 205 72 l 449 72 q 589 101 535 72 q 667 178 642 130 q 692 283 692 227 q 667 384 692 337 q 589 459 642 431 q 449 488 535 488 l 175 488 l 175 560 z "},"Д":{"ha":1006,"x_min":49,"x_max":961,"o":"m 890 72 l 890 0 l 114 0 l 114 72 l 890 72 m 132 72 l 132 -239 l 49 -239 l 49 72 l 132 72 m 961 72 l 960 -239 l 877 -239 l 877 72 l 961 72 m 789 987 l 789 916 l 340 916 l 340 987 l 789 987 m 856 987 l 856 0 l 772 0 l 772 987 l 856 987 m 310 987 l 393 987 l 376 631 q 357 454 371 536 q 323 305 343 373 q 279 184 303 237 q 228 93 254 131 q 174 31 201 54 q 123 0 147 7 l 72 0 l 72 72 l 115 72 q 158 127 132 88 q 212 232 184 166 q 262 397 240 298 q 292 631 284 496 l 310 987 z "},"Ж":{"ha":1222,"x_min":16,"x_max":1208,"o":"m 411 470 l 41 987 l 142 987 l 452 543 l 613 543 l 604 470 l 411 470 m 462 476 l 121 0 l 16 0 l 409 549 l 462 476 m 655 987 l 655 0 l 572 0 l 572 987 l 655 987 m 1183 987 l 812 470 l 622 470 l 614 543 l 772 543 l 1082 987 l 1183 987 m 1102 0 l 762 476 l 815 549 l 1208 0 l 1102 0 z "},"З":{"ha":827,"x_min":61,"x_max":763,"o":"m 413 481 l 290 481 l 290 541 l 409 541 q 556 564 500 541 q 638 630 612 587 q 664 730 664 673 q 637 832 664 787 q 553 903 610 877 q 406 930 496 930 q 282 905 338 930 q 193 835 226 880 q 159 728 159 789 l 75 728 q 102 842 75 791 q 174 928 128 892 q 280 982 220 964 q 406 1001 340 1001 q 547 984 484 1001 q 655 932 610 966 q 724 846 700 897 q 748 728 748 795 q 725 632 748 677 q 659 553 703 587 q 554 500 616 519 q 413 481 492 481 m 290 525 l 413 525 q 565 508 499 525 q 674 458 631 491 q 741 378 718 426 q 763 269 763 330 q 737 149 763 201 q 663 60 711 96 q 549 5 614 24 q 406 -14 484 -14 q 282 3 344 -14 q 171 55 221 20 q 91 145 121 90 q 61 274 61 199 l 145 274 q 178 164 145 213 q 270 86 212 115 q 406 58 329 58 q 554 83 494 58 q 647 156 615 109 q 680 266 680 203 q 662 357 680 319 q 610 420 644 395 q 526 456 576 444 q 409 467 475 467 l 290 467 l 290 525 z "},"И":{"ha":987,"x_min":128,"x_max":858,"o":"m 212 146 l 774 987 l 858 987 l 858 0 l 774 0 l 774 844 l 212 0 l 128 0 l 128 987 l 212 987 l 212 146 z "},"Л":{"ha":976,"x_min":28,"x_max":849,"o":"m 783 987 l 783 916 l 299 916 l 299 987 l 783 987 m 849 987 l 849 0 l 766 0 l 766 987 l 849 987 m 269 987 l 353 987 l 327 531 q 310 331 321 418 q 281 181 299 244 q 233 79 262 119 q 161 19 204 39 q 56 0 117 0 l 28 0 l 28 72 l 54 73 q 123 88 94 74 q 173 134 152 102 q 207 219 193 166 q 230 352 221 273 q 245 541 239 432 l 269 987 z "},"У":{"ha":872,"x_min":37,"x_max":833,"o":"m 445 332 l 736 987 l 833 987 l 456 170 q 424 109 442 141 q 379 49 406 77 q 312 3 352 21 q 216 -14 273 -14 q 181 -12 201 -14 q 153 -7 161 -10 l 160 62 q 186 59 168 60 q 216 58 205 58 q 290 76 261 58 q 339 125 319 95 q 376 189 359 155 l 445 332 m 134 987 l 465 336 l 490 262 l 419 248 l 37 987 l 134 987 z "},"Ф":{"ha":1032,"x_min":52,"x_max":983,"o":"m 458 888 l 576 888 q 742 858 667 888 q 870 776 817 829 q 954 652 924 723 q 983 496 983 581 q 954 341 983 412 q 870 216 924 269 q 742 133 817 163 q 576 104 667 104 l 458 104 q 293 133 368 104 q 165 216 219 163 q 81 340 111 269 q 52 495 52 411 q 81 650 52 579 q 165 775 111 722 q 293 858 219 828 q 458 888 368 888 m 458 818 q 283 776 355 818 q 172 662 210 734 q 133 495 133 589 q 155 366 133 425 q 218 264 176 307 q 321 197 260 221 q 458 174 381 174 l 578 174 q 753 215 680 174 q 864 330 825 256 q 902 496 902 403 q 880 625 902 566 q 817 727 859 684 q 715 794 775 770 q 578 818 654 818 l 458 818 m 558 1029 l 558 -41 l 477 -41 l 477 1029 l 558 1029 z "},"Ц":{"ha":991,"x_min":122,"x_max":945,"o":"m 945 73 l 939 -238 l 862 -238 l 862 0 l 765 0 l 765 73 l 945 73 m 122 0 l 122 987 l 206 987 l 206 72 l 764 72 l 764 987 l 848 987 l 848 0 l 122 0 z "},"Ч":{"ha":925,"x_min":117,"x_max":799,"o":"m 117 987 l 201 987 l 201 714 q 229 577 201 629 q 312 504 257 526 q 447 481 367 481 q 524 485 486 481 q 597 494 561 488 q 670 509 634 500 q 743 529 707 518 l 743 457 q 674 438 709 447 q 604 423 640 429 q 529 413 568 417 q 447 410 490 410 q 269 440 343 410 q 156 537 195 470 q 117 714 117 604 l 117 987 m 715 987 l 799 987 l 799 0 l 715 0 l 715 987 z "},"Ш":{"ha":1286,"x_min":123,"x_max":1163,"o":"m 123 987 l 208 987 l 208 72 l 602 72 l 602 987 l 686 987 l 686 72 l 1080 72 l 1080 987 l 1163 987 l 1163 0 l 123 0 l 123 987 z "},"Щ":{"ha":1310,"x_min":123,"x_max":1257,"o":"m 1257 70 l 1251 -238 l 1176 -238 l 1176 0 l 1089 0 l 1089 70 l 1257 70 m 123 987 l 208 987 l 208 72 l 602 72 l 602 987 l 686 987 l 686 72 l 1080 72 l 1080 987 l 1163 987 l 1163 0 l 123 0 l 123 987 z "},"Ъ":{"ha":1076,"x_min":-7,"x_max":980,"o":"m -7 918 l -7 987 l 352 987 l 352 918 l -7 918 m 379 560 l 652 560 q 832 525 760 560 q 943 427 905 490 q 980 281 980 364 q 959 168 980 219 q 896 79 937 117 q 793 20 854 41 q 652 0 732 0 l 325 0 l 325 987 l 408 987 l 408 72 l 652 72 q 792 101 739 72 q 871 178 846 130 q 896 283 896 227 q 871 384 896 337 q 792 459 846 431 q 652 488 739 488 l 379 488 l 379 560 z "},"Ы":{"ha":1160,"x_min":126,"x_max":1028,"o":"m 180 560 l 454 560 q 634 525 561 560 q 744 427 707 490 q 781 281 781 364 q 760 168 781 219 q 698 79 739 117 q 595 20 656 41 q 454 0 534 0 l 126 0 l 126 987 l 210 987 l 210 72 l 454 72 q 594 101 541 72 q 672 178 648 130 q 697 283 697 227 q 672 384 697 337 q 594 459 648 431 q 454 488 541 488 l 180 488 l 180 560 m 1028 987 l 1028 0 l 945 0 l 945 987 l 1028 987 z "},"Ь":{"ha":850,"x_min":121,"x_max":776,"o":"m 175 560 l 449 560 q 629 525 556 560 q 739 427 702 490 q 776 281 776 364 q 755 168 776 219 q 692 79 734 117 q 590 20 651 41 q 449 0 529 0 l 121 0 l 121 987 l 205 987 l 205 72 l 449 72 q 589 101 535 72 q 667 178 642 130 q 692 283 692 227 q 667 384 692 337 q 589 459 642 431 q 449 488 535 488 l 175 488 l 175 560 z "},"Э":{"ha":918,"x_min":96,"x_max":831,"o":"m 758 532 l 758 460 l 335 460 l 335 532 l 758 532 m 96 309 l 180 309 q 223 170 190 225 q 314 86 256 114 q 459 58 372 58 q 582 86 528 58 q 672 164 635 114 q 728 283 709 214 q 747 432 747 351 l 747 556 q 734 681 747 623 q 697 784 722 739 q 636 862 672 830 q 554 912 600 895 q 454 929 509 929 q 312 900 369 929 q 222 814 254 870 q 180 679 190 759 l 96 679 q 151 852 106 781 q 272 963 195 924 q 454 1001 348 1001 q 609 969 540 1001 q 728 878 679 937 q 804 737 778 819 q 831 555 831 655 l 831 432 q 804 250 831 332 q 729 109 778 168 q 612 18 680 50 q 459 -14 543 -14 q 273 25 351 -14 q 151 136 195 64 q 96 309 106 208 z "},"Ю":{"ha":1264,"x_min":142,"x_max":1177,"o":"m 226 987 l 226 0 l 142 0 l 142 987 l 226 987 m 464 534 l 464 465 l 219 465 l 219 534 l 464 534 m 1177 547 l 1177 441 q 1150 254 1177 338 q 1073 110 1123 170 q 951 18 1022 50 q 793 -14 881 -14 q 636 18 707 -14 q 514 110 565 50 q 435 254 463 170 q 408 441 408 338 l 408 547 q 435 734 408 650 q 513 878 463 818 q 635 969 564 937 q 791 1001 705 1001 q 950 969 880 1001 q 1072 878 1021 937 q 1149 734 1122 818 q 1177 547 1177 650 m 1094 441 l 1094 548 q 1074 705 1094 635 q 1014 825 1053 775 q 919 901 975 874 q 791 927 863 927 q 666 901 722 927 q 571 825 610 874 q 512 705 532 775 q 491 548 491 635 l 491 441 q 512 283 491 353 q 572 163 532 212 q 667 87 611 113 q 793 60 723 60 q 921 87 865 60 q 1015 163 977 113 q 1074 283 1054 212 q 1094 441 1094 353 z "},"Я":{"ha":849,"x_min":63,"x_max":737,"o":"m 682 402 l 347 402 l 309 422 q 154 522 208 453 q 100 690 100 591 q 140 852 100 786 q 256 953 181 918 q 435 987 332 987 l 737 987 l 737 0 l 653 0 l 653 916 l 435 916 q 247 856 310 916 q 183 691 183 795 q 210 579 183 628 q 288 503 237 530 q 412 475 338 475 l 683 475 l 682 402 m 396 453 l 153 0 l 63 0 l 311 453 l 396 453 z "},"б":{"ha":765,"x_min":66,"x_max":715,"o":"m 583 1053 l 652 1053 q 635 968 652 1002 q 585 913 617 935 q 508 881 552 892 q 412 861 465 869 q 297 819 349 851 q 208 732 245 787 q 151 596 170 677 q 136 407 132 515 l 136 343 l 66 343 l 66 407 q 90 618 66 526 q 157 777 113 711 q 261 882 200 842 q 396 933 321 921 q 506 960 465 944 q 565 998 547 975 q 583 1053 583 1021 m 402 686 q 532 661 474 686 q 631 593 590 637 q 694 488 672 549 q 715 357 715 428 l 715 335 q 693 196 715 260 q 628 85 671 132 q 526 12 585 38 q 391 -14 466 -14 q 257 12 317 -14 q 155 85 197 38 q 89 196 112 132 q 66 335 66 260 l 66 357 q 71 395 66 376 q 81 433 75 414 q 96 470 88 452 q 162 580 119 532 q 266 657 205 629 q 402 686 327 686 m 390 616 q 257 580 311 616 q 175 485 203 544 q 147 357 147 425 l 147 335 q 163 229 147 279 q 210 140 179 178 q 286 79 240 101 q 391 56 332 56 q 496 79 451 56 q 572 140 542 101 q 618 229 603 178 q 634 335 634 279 l 634 357 q 618 455 634 408 q 572 538 603 502 q 495 595 541 574 q 390 616 450 616 z "},"в":{"ha":777,"x_min":115,"x_max":703,"o":"m 431 338 l 174 338 l 172 407 l 392 407 q 502 421 458 407 q 569 465 547 436 q 592 536 592 494 q 579 593 592 569 q 539 633 566 618 q 474 657 513 649 q 385 665 435 665 l 196 665 l 196 0 l 115 0 l 115 734 l 385 734 q 505 722 451 734 q 596 686 558 710 q 653 626 633 663 q 673 538 673 589 q 661 475 673 505 q 624 422 648 446 q 563 384 599 399 q 480 366 527 370 l 431 338 m 431 0 l 148 0 l 179 69 l 431 69 q 534 85 492 69 q 599 132 577 101 q 621 205 621 162 q 599 275 621 245 q 534 322 577 305 q 431 338 492 338 l 243 338 l 245 407 l 486 407 l 520 381 q 617 351 576 376 q 680 287 658 326 q 703 204 703 249 q 683 115 703 153 q 628 52 664 77 q 543 13 593 26 q 431 0 493 0 z "},"г":{"ha":586,"x_min":111,"x_max":564,"o":"m 564 734 l 564 663 l 192 663 l 192 0 l 111 0 l 111 734 l 564 734 z "},"д":{"ha":796,"x_min":36,"x_max":746,"o":"m 237 734 l 317 734 l 305 469 q 282 286 300 363 q 236 154 264 208 q 177 62 209 99 q 112 0 144 25 l 67 0 l 68 70 l 90 70 q 130 124 109 94 q 171 198 151 154 q 205 309 191 243 q 224 469 219 374 l 237 734 m 263 734 l 670 734 l 670 0 l 589 0 l 589 658 l 263 658 l 263 734 m 36 70 l 746 70 l 746 -216 l 665 -216 l 665 0 l 114 0 l 114 -216 l 36 -216 l 36 70 z "},"ж":{"ha":1066,"x_min":17,"x_max":1042,"o":"m 349 339 l 51 734 l 149 734 l 390 412 l 526 412 l 518 339 l 349 339 m 397 347 l 120 0 l 17 0 l 347 410 l 397 347 m 569 734 l 569 0 l 488 0 l 488 734 l 569 734 m 1008 734 l 710 339 l 541 339 l 532 412 l 669 412 l 909 734 l 1008 734 m 939 0 l 661 347 l 712 410 l 1042 0 l 939 0 z "},"з":{"ha":704,"x_min":67,"x_max":631,"o":"m 360 355 l 242 355 l 242 411 l 354 411 q 461 427 421 411 q 519 472 501 443 q 536 540 536 501 q 518 609 536 578 q 458 659 499 640 q 351 678 418 678 q 256 660 300 678 q 186 610 213 642 q 160 536 160 578 l 79 536 q 117 648 79 601 q 217 722 155 696 q 351 747 279 747 q 463 734 413 747 q 547 694 512 720 q 600 628 581 667 q 618 539 618 589 q 601 468 618 501 q 551 409 584 435 q 470 370 518 384 q 360 355 422 355 m 242 393 l 360 393 q 479 381 429 393 q 564 344 530 368 q 614 284 597 319 q 631 202 631 248 q 611 112 631 151 q 553 44 591 72 q 465 2 516 16 q 351 -13 414 -13 q 218 11 283 -13 q 110 84 153 35 q 67 211 67 134 l 149 211 q 175 133 149 168 q 247 77 201 98 q 351 56 292 56 q 460 75 416 56 q 527 126 505 93 q 549 201 549 159 q 528 280 549 250 q 463 325 507 311 q 354 339 420 339 l 242 339 l 242 393 z "},"и":{"ha":781,"x_min":112,"x_max":670,"o":"m 193 132 l 589 734 l 670 734 l 670 0 l 589 0 l 589 602 l 193 0 l 112 0 l 112 734 l 193 734 l 193 132 z "},"к":{"ha":720,"x_min":111,"x_max":709,"o":"m 193 734 l 193 0 l 111 0 l 111 734 l 193 734 m 676 734 l 339 336 l 164 336 l 156 409 l 304 409 l 573 734 l 676 734 m 602 0 l 297 347 l 348 410 l 709 0 l 602 0 z "},"л":{"ha":782,"x_min":30,"x_max":671,"o":"m 604 734 l 604 663 l 233 663 l 233 734 l 604 734 m 671 734 l 671 0 l 589 0 l 589 734 l 671 734 m 211 734 l 292 734 l 276 390 q 263 242 272 307 q 238 132 254 178 q 198 57 222 86 q 140 14 174 28 q 60 0 106 0 l 30 0 l 30 73 l 56 75 q 106 86 85 75 q 144 121 128 98 q 171 183 160 144 q 188 278 181 222 q 197 410 194 334 l 211 734 z "},"м":{"ha":1016,"x_min":115,"x_max":905,"o":"m 512 111 l 804 734 l 885 734 l 541 0 l 484 0 l 141 734 l 221 734 l 512 111 m 196 734 l 196 0 l 115 0 l 115 734 l 196 734 m 823 0 l 823 734 l 905 734 l 905 0 l 823 0 z "},"н":{"ha":781,"x_min":112,"x_max":670,"o":"m 607 406 l 607 336 l 172 336 l 172 406 l 607 406 m 193 734 l 193 0 l 112 0 l 112 734 l 193 734 m 670 734 l 670 0 l 588 0 l 588 734 l 670 734 z "},"п":{"ha":781,"x_min":112,"x_max":670,"o":"m 604 734 l 604 663 l 175 663 l 175 734 l 604 734 m 193 734 l 193 0 l 112 0 l 112 734 l 193 734 m 670 734 l 670 0 l 589 0 l 589 734 l 670 734 z "},"т":{"ha":661,"x_min":27,"x_max":633,"o":"m 366 734 l 366 0 l 285 0 l 285 734 l 366 734 m 633 734 l 633 665 l 27 665 l 27 734 l 633 734 z "},"ф":{"ha":1007,"x_min":75,"x_max":932,"o":"m 932 361 l 932 347 q 915 200 932 266 q 863 86 897 134 q 781 12 829 38 q 668 -14 732 -14 q 587 -3 623 -14 q 527 29 552 9 q 488 74 503 49 q 468 127 473 100 l 468 595 q 490 655 475 628 q 529 704 505 683 q 587 736 553 724 q 667 747 621 747 q 760 729 718 747 q 834 678 802 711 q 888 597 866 644 q 921 490 909 549 q 932 361 932 430 m 850 347 l 850 361 q 843 461 850 414 q 820 548 836 509 q 780 617 804 588 q 723 662 756 646 q 648 677 690 677 q 573 666 602 677 q 530 638 545 654 q 510 608 516 622 l 510 111 q 534 88 517 101 q 579 65 551 75 q 650 56 608 56 q 740 77 702 56 q 802 138 778 99 q 839 231 827 178 q 850 347 850 284 m 75 347 l 75 361 q 86 490 75 430 q 120 597 98 549 q 174 678 142 644 q 248 729 205 711 q 340 747 290 747 q 419 736 385 747 q 476 704 452 724 q 515 655 500 683 q 538 595 530 628 l 538 134 q 517 78 532 104 q 478 31 503 52 q 420 -2 454 9 q 339 -14 385 -14 q 227 12 276 -14 q 144 86 178 38 q 93 200 111 134 q 75 347 75 266 m 157 361 l 157 347 q 169 231 157 284 q 204 138 180 178 q 265 77 228 99 q 355 56 302 56 q 426 66 397 56 q 471 91 454 77 q 495 117 488 106 l 495 608 q 474 638 489 622 q 432 666 460 654 q 356 677 404 677 q 266 653 304 677 q 204 585 229 629 q 169 485 180 542 q 157 361 157 427 m 460 -282 l 460 1042 l 542 1042 l 542 -282 l 460 -282 z "},"ц":{"ha":791,"x_min":112,"x_max":745,"o":"m 112 0 l 112 734 l 193 734 l 193 70 l 589 70 l 589 734 l 670 734 l 670 0 l 112 0 m 745 70 l 739 -218 l 664 -218 l 664 0 l 577 0 l 577 70 l 745 70 z "},"ч":{"ha":740,"x_min":75,"x_max":628,"o":"m 628 734 l 628 0 l 547 0 l 547 734 l 628 734 m 600 401 l 600 331 q 529 302 569 316 q 445 280 489 289 q 355 272 400 272 q 202 298 264 272 q 107 386 139 325 q 75 548 75 446 l 75 734 l 156 734 l 156 548 q 178 425 156 470 q 244 361 199 380 q 355 342 288 342 q 449 352 403 343 q 534 374 494 361 q 600 401 574 387 z "},"ш":{"ha":1103,"x_min":112,"x_max":1005,"o":"m 112 734 l 193 734 l 193 70 l 519 70 l 519 734 l 601 734 l 601 70 l 924 70 l 924 734 l 1005 734 l 1005 0 l 112 0 l 112 734 z "},"щ":{"ha":1115,"x_min":108,"x_max":1090,"o":"m 1090 70 l 1084 -218 l 1009 -218 l 1009 0 l 922 0 l 922 70 l 1090 70 m 108 734 l 189 734 l 189 70 l 515 70 l 515 734 l 597 734 l 597 70 l 920 70 l 920 734 l 1002 734 l 1002 0 l 108 0 l 108 734 z "},"ъ":{"ha":875,"x_min":24,"x_max":818,"o":"m 321 734 l 321 664 l 24 664 l 24 734 l 321 734 m 311 468 l 549 468 q 696 438 636 468 q 787 355 756 408 q 818 235 818 302 q 801 142 818 185 q 749 68 783 100 q 665 18 715 36 q 549 0 614 0 l 258 0 l 258 734 l 339 734 l 339 70 l 549 70 q 657 93 616 70 q 717 154 699 117 q 736 234 736 192 q 717 312 736 275 q 657 374 699 350 q 549 398 616 398 l 311 398 l 311 468 z "},"ы":{"ha":1043,"x_min":115,"x_max":923,"o":"m 168 468 l 406 468 q 553 438 493 468 q 644 355 613 408 q 675 235 675 302 q 657 142 675 185 q 606 68 640 100 q 522 18 572 36 q 406 0 471 0 l 115 0 l 115 734 l 196 734 l 196 70 l 406 70 q 515 93 473 70 q 575 154 556 117 q 593 234 593 192 q 575 312 593 275 q 515 374 556 350 q 406 398 473 398 l 168 398 l 168 468 m 923 734 l 923 0 l 842 0 l 842 734 l 923 734 z "},"ь":{"ha":743,"x_min":115,"x_max":675,"o":"m 168 468 l 406 468 q 553 438 493 468 q 644 355 613 408 q 675 235 675 302 q 657 142 675 185 q 606 68 640 100 q 522 18 572 36 q 406 0 471 0 l 115 0 l 115 734 l 196 734 l 196 70 l 406 70 q 515 93 473 70 q 575 154 556 117 q 593 234 593 192 q 575 312 593 275 q 515 374 556 350 q 406 398 473 398 l 168 398 l 168 468 z "},"э":{"ha":743,"x_min":75,"x_max":665,"o":"m 351 677 q 258 659 303 677 q 184 601 213 640 q 155 505 155 563 l 75 505 q 115 631 75 576 q 218 716 155 686 q 351 747 281 747 q 484 720 425 747 q 582 642 542 692 q 644 525 623 592 q 665 381 665 458 l 665 353 q 643 209 665 275 q 582 92 622 142 q 484 14 541 42 q 352 -14 426 -14 q 213 18 275 -14 q 113 109 150 50 q 75 249 75 168 l 155 249 q 182 145 155 188 q 254 79 209 102 q 352 56 298 56 q 455 80 411 56 q 527 146 498 104 q 569 241 555 188 q 583 353 583 295 l 583 381 q 569 493 583 440 q 527 588 555 547 q 455 653 498 629 q 351 677 411 677 m 620 406 l 620 336 l 251 336 l 251 406 l 620 406 z "},"ю":{"ha":1130,"x_min":115,"x_max":1059,"o":"m 470 400 l 470 331 l 126 331 l 126 400 l 470 400 m 196 734 l 196 0 l 115 0 l 115 734 l 196 734 m 404 356 l 404 378 q 428 526 404 458 q 494 643 451 593 q 597 720 537 692 q 731 747 657 747 q 867 720 806 747 q 970 643 927 692 q 1036 526 1013 593 q 1059 378 1059 458 l 1059 356 q 1036 209 1059 276 q 970 91 1013 141 q 867 14 928 41 q 732 -14 807 -14 q 597 14 658 -14 q 494 91 537 41 q 428 209 451 141 q 404 356 404 276 m 486 378 l 486 356 q 502 242 486 296 q 549 146 518 188 q 627 80 581 104 q 732 56 673 56 q 838 80 792 56 q 915 146 884 104 q 962 242 946 188 q 979 356 979 296 l 979 378 q 962 491 979 437 q 915 587 946 545 q 837 653 883 629 q 731 677 791 677 q 626 653 672 677 q 549 587 581 629 q 502 491 517 545 q 486 378 486 437 z "},"я":{"ha":755,"x_min":63,"x_max":642,"o":"m 267 336 l 356 336 l 153 0 l 63 0 l 267 336 m 353 734 l 642 734 l 642 0 l 560 0 l 560 665 l 353 665 q 248 643 288 665 q 189 587 208 622 q 171 513 171 553 q 187 443 171 476 q 239 387 203 409 q 331 366 275 366 l 589 366 l 589 296 l 331 296 q 228 312 273 296 q 152 358 183 328 q 105 428 121 387 q 90 515 90 468 q 107 602 90 562 q 158 671 124 642 q 240 718 191 701 q 353 734 290 734 z "},"ђ":{"ha":763,"x_min":-18,"x_max":660,"o":"m 578 294 l 660 294 l 660 -60 q 635 -189 660 -136 q 565 -269 611 -242 q 454 -296 519 -296 q 412 -293 431 -296 q 370 -283 392 -290 l 380 -216 q 414 -223 391 -220 q 454 -227 437 -227 q 522 -207 494 -227 q 564 -150 549 -187 q 578 -60 578 -113 l 578 294 m 187 1042 l 187 0 l 106 0 l 106 1042 l 187 1042 m 170 412 l 134 433 q 159 555 137 498 q 220 655 182 612 q 311 723 258 699 q 426 747 363 747 q 524 732 481 747 q 598 685 568 718 q 644 602 628 653 q 660 478 660 551 l 660 0 l 578 0 l 578 479 q 557 597 578 554 q 498 659 536 640 q 406 677 459 677 q 304 651 348 677 q 231 586 260 626 q 186 499 201 545 q 170 412 170 454 m 397 907 l 397 838 l -18 838 l -18 907 l 397 907 z "},"є":{"ha":743,"x_min":73,"x_max":668,"o":"m 489 402 l 489 332 l 101 332 l 101 402 l 489 402 m 387 56 q 483 76 437 56 q 557 134 528 96 q 591 227 587 172 l 668 227 q 626 103 665 157 q 524 18 587 49 q 387 -14 461 -14 q 251 15 309 -14 q 153 93 192 43 q 93 209 113 142 q 73 353 73 275 l 73 381 q 93 525 73 458 q 153 642 113 592 q 250 720 192 692 q 385 747 309 747 q 527 715 464 747 q 627 625 589 684 q 668 487 665 567 l 591 487 q 559 589 587 546 q 486 654 532 631 q 385 677 441 677 q 279 653 323 677 q 207 588 235 629 q 167 493 180 546 q 154 381 154 439 l 154 353 q 167 241 154 294 q 207 146 180 188 q 279 80 235 104 q 387 56 323 56 z "},"љ":{"ha":1187,"x_min":25,"x_max":1137,"o":"m 206 734 l 287 734 l 271 390 q 258 242 267 307 q 233 132 249 178 q 193 57 217 86 q 135 14 169 28 q 56 0 101 0 l 25 0 l 25 73 l 51 75 q 101 86 79 75 q 139 121 123 98 q 165 183 155 144 q 183 278 176 222 q 193 410 189 334 l 206 734 m 592 734 l 592 663 l 226 663 l 226 734 l 592 734 m 629 441 l 869 441 q 1016 412 956 441 q 1106 334 1076 384 q 1137 222 1137 285 q 1119 135 1137 175 q 1068 64 1102 94 q 984 17 1034 34 q 869 0 934 0 l 577 0 l 577 734 l 659 734 l 659 69 l 869 69 q 977 92 936 69 q 1037 149 1018 114 q 1055 223 1055 184 q 1037 294 1055 260 q 977 350 1018 328 q 869 372 936 372 l 629 372 l 629 441 z "},"њ":{"ha":1196,"x_min":112,"x_max":1148,"o":"m 607 443 l 607 374 l 172 374 l 172 443 l 607 443 m 193 734 l 193 0 l 112 0 l 112 734 l 193 734 m 641 441 l 880 441 q 1027 412 967 441 q 1117 334 1086 384 q 1148 222 1148 285 q 1131 135 1148 175 q 1079 64 1114 94 q 995 17 1045 34 q 880 0 945 0 l 588 0 l 588 734 l 670 734 l 670 69 l 880 69 q 988 92 947 69 q 1048 149 1029 114 q 1067 223 1067 184 q 1048 294 1067 260 q 988 350 1029 328 q 880 372 947 372 l 641 372 l 641 441 z "},"ћ":{"ha":774,"x_min":-11,"x_max":660,"o":"m 187 1042 l 187 0 l 106 0 l 106 1042 l 187 1042 m 170 412 l 134 433 q 159 555 137 498 q 220 655 182 612 q 311 723 258 699 q 426 747 363 747 q 524 732 481 747 q 598 685 568 718 q 644 602 628 653 q 660 478 660 551 l 660 0 l 578 0 l 578 479 q 557 597 578 554 q 498 659 536 640 q 406 677 459 677 q 304 651 348 677 q 231 586 260 626 q 186 499 201 545 q 170 412 170 454 m 404 916 l 404 846 l -11 846 l -11 916 l 404 916 z "},"џ":{"ha":781,"x_min":112,"x_max":670,"o":"m 353 70 l 434 70 l 434 -239 l 353 -239 l 353 70 m 112 734 l 193 734 l 193 70 l 589 70 l 589 734 l 670 734 l 670 0 l 112 0 l 112 734 z "},"Ѡ":{"ha":1234,"x_min":116,"x_max":1118,"o":"m 574 987 l 645 987 l 645 281 q 625 152 645 207 q 570 60 606 96 q 486 5 534 23 q 381 -14 438 -14 q 276 5 324 -14 q 192 60 227 23 q 136 152 156 96 q 116 281 116 207 l 116 987 l 200 987 l 200 281 q 213 184 200 226 q 251 114 227 142 q 309 72 276 86 q 381 58 342 58 q 480 83 437 58 q 549 158 524 109 q 574 281 574 208 l 574 987 m 1034 987 l 1118 987 l 1118 281 q 1082 117 1118 182 q 986 19 1047 51 q 847 -14 925 -14 q 744 5 791 -14 q 662 60 697 23 q 608 152 627 96 q 589 281 589 207 l 589 987 l 660 987 l 660 281 q 674 184 660 226 q 713 114 688 142 q 772 72 738 86 q 847 58 806 58 q 943 83 901 58 q 1009 158 985 109 q 1034 281 1034 208 l 1034 987 z "},"ѡ":{"ha":1144,"x_min":106,"x_max":1023,"o":"m 524 734 l 593 734 l 593 259 q 575 139 593 191 q 524 54 557 88 q 447 3 491 20 q 350 -14 403 -14 q 253 3 298 -14 q 176 54 209 20 q 125 139 143 88 q 106 259 106 191 l 106 734 l 188 734 l 188 259 q 200 171 188 209 q 234 107 212 133 q 285 69 256 82 q 350 56 315 56 q 439 79 400 56 q 501 147 478 102 q 524 259 524 193 l 524 734 m 941 734 l 1023 734 l 1023 259 q 990 107 1023 168 q 901 16 958 46 q 774 -14 845 -14 q 679 3 722 -14 q 604 54 635 20 q 554 139 572 88 q 536 259 536 191 l 536 734 l 606 734 l 606 259 q 618 171 606 209 q 653 107 631 133 q 707 69 676 82 q 774 56 737 56 q 840 69 810 56 q 893 107 871 82 q 929 171 916 133 q 941 259 941 209 l 941 734 z "},"ѣ":{"ha":743,"x_min":-20,"x_max":674,"o":"m 167 480 l 406 480 q 553 449 493 480 q 643 365 612 418 q 674 241 674 311 q 643 118 674 173 q 553 32 612 64 q 406 0 493 0 l 115 0 l 115 1050 l 195 1050 l 195 70 l 406 70 q 514 94 473 70 q 574 157 555 119 q 593 240 593 196 q 574 321 593 282 q 514 386 555 360 q 406 411 473 411 l 167 411 l 167 480 m 416 804 l 416 734 l -20 734 l -20 804 l 416 804 z "},"Ѥ":{"ha":1242,"x_min":143,"x_max":1137,"o":"m 846 552 l 846 482 l 185 482 l 185 552 l 846 552 m 1054 309 l 1137 309 q 1082 137 1127 209 q 960 26 1038 65 q 774 -13 883 -13 q 622 19 690 -13 q 504 110 553 51 q 429 251 455 169 q 403 433 403 333 l 403 556 q 429 738 403 656 q 505 879 455 820 q 624 970 554 938 q 780 1002 693 1002 q 962 963 885 1002 q 1083 853 1038 925 q 1137 680 1127 781 l 1054 680 q 1011 815 1044 760 q 922 900 979 871 q 780 930 865 930 q 657 903 711 930 q 564 828 602 877 q 506 710 526 779 q 486 557 486 642 l 486 433 q 499 311 486 368 q 535 208 511 254 q 593 128 559 161 q 673 77 628 95 q 774 59 719 59 q 920 87 861 59 q 1010 171 978 115 q 1054 309 1043 227 m 227 987 l 227 0 l 143 0 l 143 987 l 227 987 z "},"ѥ":{"ha":1034,"x_min":113,"x_max":958,"o":"m 764 408 l 764 338 l 161 338 l 161 408 l 764 408 m 675 56 q 772 76 727 56 q 847 134 817 96 q 880 227 876 172 l 958 227 q 915 103 954 157 q 813 18 876 49 q 675 -14 751 -14 q 540 15 599 -14 q 441 93 481 43 q 382 209 402 142 q 362 353 362 275 l 362 381 q 382 525 362 458 q 442 642 402 592 q 540 720 481 692 q 675 747 598 747 q 816 715 753 747 q 916 625 878 684 q 958 487 954 567 l 880 487 q 848 589 876 546 q 775 654 821 631 q 675 677 730 677 q 568 653 612 677 q 497 588 524 629 q 456 493 469 546 q 444 381 444 439 l 444 353 q 456 241 444 294 q 496 146 469 188 q 568 80 524 104 q 675 56 612 56 m 194 734 l 194 0 l 113 0 l 113 734 l 194 734 z "},"Ѧ":{"ha":834,"x_min":25,"x_max":828,"o":"m 431 883 l 113 0 l 25 0 l 388 987 l 447 987 l 431 883 m 741 0 l 425 886 l 410 987 l 469 987 l 828 0 l 741 0 m 665 395 l 665 321 l 187 321 l 187 395 l 665 395 m 464 370 l 464 0 l 382 0 l 382 370 l 464 370 z "},"ѧ":{"ha":733,"x_min":18,"x_max":703,"o":"m 332 549 l 102 0 l 18 0 l 324 734 l 389 734 l 332 549 m 618 0 l 385 549 l 330 734 l 395 734 l 703 0 l 618 0 m 557 304 l 557 235 l 166 235 l 166 304 l 557 304 m 402 284 l 402 0 l 321 0 l 321 284 l 402 284 z "},"Ѩ":{"ha":1220,"x_min":155,"x_max":1187,"o":"m 562 395 l 562 322 l 197 322 l 197 395 l 562 395 m 790 883 l 471 0 l 384 0 l 747 987 l 806 987 l 790 883 m 1100 0 l 783 886 l 768 987 l 827 987 l 1187 0 l 1100 0 m 1023 395 l 1023 321 l 546 321 l 546 395 l 1023 395 m 823 370 l 823 0 l 741 0 l 741 370 l 823 370 m 239 987 l 239 0 l 155 0 l 155 987 l 239 987 z "},"ѩ":{"ha":1046,"x_min":137,"x_max":1006,"o":"m 489 304 l 489 235 l 172 235 l 172 304 l 489 304 m 635 549 l 405 0 l 321 0 l 627 734 l 692 734 l 635 549 m 922 0 l 688 549 l 633 734 l 699 734 l 1006 0 l 922 0 m 861 304 l 861 235 l 469 235 l 469 304 l 861 304 m 705 284 l 705 0 l 625 0 l 625 284 l 705 284 m 218 734 l 218 0 l 137 0 l 137 734 l 218 734 z "},"Ѫ":{"ha":1133,"x_min":106,"x_max":1026,"o":"m 191 0 l 106 0 l 106 258 q 143 416 106 356 q 247 502 179 475 q 409 529 315 529 l 724 529 q 886 502 819 529 q 990 416 954 475 q 1026 258 1026 356 l 1026 0 l 942 0 l 942 258 q 918 377 942 333 q 846 439 895 420 q 724 457 798 457 l 409 457 q 244 414 298 457 q 191 258 191 371 l 191 0 m 867 987 l 867 916 l 271 916 l 271 987 l 867 987 m 555 499 l 857 987 l 953 987 l 607 444 l 549 444 l 555 499 m 280 987 l 582 496 l 588 444 l 530 444 l 184 987 l 280 987 m 609 511 l 609 0 l 526 0 l 526 511 l 609 511 z "},"ѫ":{"ha":982,"x_min":108,"x_max":874,"o":"m 189 0 l 108 0 l 108 132 q 142 291 108 231 q 242 377 177 350 q 397 404 307 404 l 585 404 q 740 377 675 404 q 840 290 805 350 q 874 132 874 231 l 874 0 l 793 0 l 793 132 q 770 253 793 209 q 702 315 748 296 q 585 334 656 334 l 397 334 q 281 315 327 334 q 212 253 235 296 q 189 132 189 209 l 189 0 m 746 734 l 746 664 l 253 664 l 253 734 l 746 734 m 481 372 l 714 734 l 807 734 l 531 319 l 477 319 l 481 372 m 273 734 l 508 370 l 511 319 l 457 319 l 180 734 l 273 734 m 533 394 l 533 0 l 452 0 l 452 394 l 533 394 z "},"Ѭ":{"ha":1501,"x_min":142,"x_max":1394,"o":"m 812 530 l 812 460 l 201 460 l 201 530 l 812 530 m 226 987 l 226 0 l 142 0 l 142 987 l 226 987 m 559 0 l 475 0 l 475 258 q 512 416 475 356 q 616 502 548 475 q 778 529 684 529 l 1093 529 q 1255 502 1187 529 q 1358 416 1322 475 q 1394 258 1394 356 l 1394 0 l 1311 0 l 1311 258 q 1287 377 1311 333 q 1215 439 1263 420 q 1093 457 1167 457 l 778 457 q 613 414 667 457 q 559 258 559 371 l 559 0 m 1236 987 l 1236 916 l 640 916 l 640 987 l 1236 987 m 924 499 l 1225 987 l 1322 987 l 976 444 l 918 444 l 924 499 m 649 987 l 951 496 l 957 444 l 899 444 l 553 987 l 649 987 m 978 511 l 978 0 l 894 0 l 894 511 l 978 511 z "},"ѭ":{"ha":1288,"x_min":115,"x_max":1180,"o":"m 753 404 l 753 334 l 150 334 l 150 404 l 753 404 m 195 734 l 195 0 l 115 0 l 115 734 l 195 734 m 495 0 l 414 0 l 414 132 q 448 291 414 231 q 548 377 483 350 q 703 404 613 404 l 891 404 q 1046 377 981 404 q 1145 290 1111 350 q 1180 132 1180 231 l 1180 0 l 1099 0 l 1099 132 q 1076 253 1099 209 q 1008 315 1054 296 q 891 334 962 334 l 703 334 q 587 315 633 334 q 518 253 541 296 q 495 132 495 209 l 495 0 m 1052 734 l 1052 664 l 559 664 l 559 734 l 1052 734 m 787 372 l 1020 734 l 1113 734 l 837 319 l 783 319 l 787 372 m 579 734 l 814 370 l 817 319 l 763 319 l 486 734 l 579 734 m 839 394 l 839 0 l 758 0 l 758 394 l 839 394 z "},"Ѯ":{"ha":715,"x_min":79,"x_max":661,"o":"m 105 987 l 323 987 q 454 970 395 987 q 556 920 513 954 q 622 839 599 887 q 646 728 646 790 q 623 633 646 677 q 557 555 600 589 q 451 503 513 522 q 311 484 389 484 l 218 484 l 218 541 l 308 541 q 455 564 399 541 q 538 631 512 588 q 564 730 564 673 q 538 826 564 784 q 460 893 513 869 q 323 918 407 918 l 105 918 l 105 987 m 218 525 l 311 525 q 463 508 397 525 q 572 458 528 491 q 638 378 616 426 q 661 269 661 330 q 634 152 661 203 q 562 66 608 101 q 453 12 515 31 q 319 -6 391 -6 l 273 -6 q 183 -29 210 -6 q 157 -92 157 -52 q 177 -151 157 -125 q 224 -193 197 -176 q 273 -218 251 -210 l 242 -278 q 170 -239 208 -265 q 106 -174 132 -212 q 79 -90 79 -136 q 101 -7 79 -41 q 167 45 123 27 q 276 63 210 63 l 319 63 q 427 78 378 63 q 509 119 475 92 q 561 183 543 146 q 579 266 579 220 q 562 358 579 319 q 509 422 544 397 q 424 459 475 447 q 308 471 374 471 l 218 471 l 218 525 m 273 1297 l 390 1165 l 507 1297 l 579 1297 l 579 1289 l 419 1111 l 360 1111 l 201 1289 l 201 1297 l 273 1297 z "},"ѯ":{"ha":673,"x_min":64,"x_max":595,"o":"m 94 734 l 292 734 q 409 721 356 734 q 499 683 461 708 q 559 621 538 658 q 580 538 580 585 q 559 465 580 498 q 500 405 539 431 q 406 365 461 379 q 280 351 350 351 l 188 351 l 188 408 l 277 408 q 405 424 356 408 q 475 470 453 440 q 498 541 498 500 q 486 589 498 567 q 448 628 473 612 q 384 654 423 645 q 292 663 345 663 l 94 663 l 94 734 m 188 392 l 280 392 q 416 380 357 392 q 515 344 475 368 q 574 286 554 320 q 595 206 595 251 q 571 117 595 156 q 506 50 548 77 q 408 8 464 22 q 288 -6 353 -6 l 258 -6 q 168 -29 194 -6 q 142 -92 142 -52 q 161 -151 142 -125 q 209 -193 181 -176 q 258 -218 236 -210 l 227 -278 q 155 -239 193 -265 q 91 -174 117 -212 q 64 -90 64 -136 q 86 -7 64 -41 q 152 45 108 27 q 260 63 196 63 l 288 63 q 381 73 340 63 q 452 102 422 83 q 497 146 481 120 q 513 203 513 172 q 497 264 513 239 q 452 306 482 290 q 379 330 422 322 q 277 338 335 338 l 188 338 l 188 392 m 191 1074 l 308 942 l 425 1074 l 497 1074 l 497 1065 l 337 888 l 278 888 l 119 1066 l 119 1074 l 191 1074 z "},"Ѳ":{"ha":935,"x_min":80,"x_max":850,"o":"m 465 1001 q 594 980 534 1001 q 701 921 654 960 q 781 826 748 882 q 832 700 814 770 q 850 547 850 629 l 850 441 q 823 254 850 338 q 745 110 795 170 q 624 18 695 50 q 466 -14 553 -14 q 337 7 397 -14 q 231 67 278 28 q 150 162 183 106 q 98 288 116 218 q 80 441 80 358 l 80 547 q 107 734 80 650 q 186 878 135 818 q 308 969 237 937 q 465 1001 378 1001 m 465 927 q 343 903 397 927 q 250 832 289 878 q 190 722 212 787 q 165 578 168 658 q 164 552 164 565 q 163 526 163 539 l 766 526 q 766 551 766 538 q 766 577 766 564 q 741 722 762 658 q 681 832 720 787 q 588 903 642 878 q 465 927 533 927 m 466 60 q 589 85 535 60 q 682 155 644 109 q 742 267 720 201 q 766 414 763 332 q 766 435 766 424 q 766 456 766 446 l 164 456 q 164 431 164 444 q 165 408 165 419 q 191 263 169 328 q 252 154 213 199 q 345 84 291 109 q 466 60 399 60 z "},"ѳ":{"ha":786,"x_min":61,"x_max":715,"o":"m 388 747 q 523 720 463 747 q 626 643 583 692 q 692 526 669 593 q 715 378 715 458 l 715 356 q 692 209 715 276 q 627 91 669 141 q 524 14 584 41 q 389 -14 463 -14 q 254 14 315 -14 q 151 91 194 41 q 84 209 107 141 q 61 356 61 276 l 61 378 q 84 526 61 458 q 150 643 107 593 q 254 720 193 692 q 388 747 314 747 m 388 677 q 287 655 332 677 q 212 595 243 633 q 164 508 181 557 q 143 404 146 458 l 633 404 q 613 508 631 458 q 564 595 595 557 q 489 655 533 633 q 388 677 444 677 m 389 56 q 490 78 446 56 q 566 139 534 100 q 614 227 597 177 q 633 334 631 277 l 143 334 q 163 227 145 277 q 212 139 180 177 q 287 78 243 100 q 389 56 332 56 z "},"Ѵ":{"ha":856,"x_min":20,"x_max":836,"o":"m 412 175 l 619 818 q 668 925 640 885 q 732 983 695 965 q 817 1001 769 1001 l 836 1000 l 836 927 l 828 927 q 780 919 804 927 q 735 884 756 910 q 695 802 713 857 l 431 0 l 363 0 l 412 175 m 111 987 l 370 176 l 419 0 l 351 0 l 20 987 l 111 987 z "},"ѵ":{"ha":685,"x_min":31,"x_max":696,"o":"m 349 185 l 482 608 q 521 689 499 659 q 571 733 543 720 q 631 747 599 747 q 667 744 650 747 q 696 732 684 740 l 684 667 q 669 672 680 669 q 644 675 659 675 q 615 669 630 675 q 586 645 600 663 q 559 595 572 628 l 353 0 l 294 0 l 349 185 m 115 734 l 295 185 l 347 0 l 288 0 l 31 734 l 115 734 z "},"Ѻ":{"ha":935,"x_min":80,"x_max":850,"o":"m 509 1081 l 509 846 l 427 846 l 427 1081 l 509 1081 m 509 142 l 509 -96 l 427 -96 l 427 142 l 509 142 m 850 547 l 850 441 q 823 254 850 338 q 745 110 795 170 q 624 18 695 50 q 466 -14 553 -14 q 337 7 397 -14 q 231 67 278 28 q 150 162 183 106 q 98 288 116 218 q 80 441 80 358 l 80 547 q 107 734 80 650 q 186 878 135 818 q 308 969 237 937 q 465 1001 378 1001 q 594 980 534 1001 q 701 921 654 960 q 781 826 748 882 q 832 700 814 770 q 850 547 850 629 m 766 441 l 766 548 q 753 676 766 618 q 715 782 741 735 q 653 861 690 828 q 569 910 616 893 q 465 927 522 927 q 339 901 395 927 q 244 825 283 874 q 184 705 205 775 q 163 548 163 635 l 163 441 q 177 312 163 371 q 216 206 191 252 q 279 127 242 159 q 362 77 315 94 q 466 60 410 60 q 593 87 538 60 q 688 163 649 113 q 746 283 726 212 q 766 441 766 353 z "},"ѻ":{"ha":774,"x_min":61,"x_max":715,"o":"m 428 822 l 428 593 l 347 593 l 347 822 l 428 822 m 428 139 l 428 -90 l 347 -90 l 347 139 l 428 139 m 61 356 l 61 378 q 84 526 61 458 q 150 643 107 593 q 254 720 193 692 q 388 747 314 747 q 523 720 463 747 q 626 643 583 692 q 692 526 669 593 q 715 378 715 458 l 715 356 q 692 209 715 276 q 627 91 669 141 q 524 14 584 41 q 389 -14 463 -14 q 254 14 315 -14 q 151 91 194 41 q 84 209 107 141 q 61 356 61 276 m 142 378 l 142 356 q 158 242 142 296 q 205 146 174 188 q 283 80 237 104 q 389 56 329 56 q 494 80 448 56 q 571 146 540 104 q 618 242 602 188 q 635 356 635 296 l 635 378 q 618 491 635 437 q 571 587 602 545 q 493 653 539 629 q 388 677 448 677 q 282 653 328 677 q 205 587 237 629 q 158 491 174 545 q 142 378 142 437 z "},"Ѽ":{"ha":1227,"x_min":116,"x_max":1115,"o":"m 908 1141 l 926 1141 l 926 1083 l 906 1083 q 804 1099 847 1083 q 728 1136 762 1115 q 664 1173 695 1157 q 597 1189 633 1189 q 522 1161 547 1189 q 496 1090 496 1133 l 496 1078 l 434 1078 l 434 1099 q 477 1209 434 1168 q 594 1251 519 1251 q 672 1234 637 1251 q 741 1196 707 1217 q 815 1158 775 1174 q 908 1141 854 1141 m 593 904 l 560 936 q 595 980 583 958 q 608 1033 608 1002 l 608 1099 l 680 1099 l 680 1029 q 666 977 680 1002 q 632 933 652 952 q 593 904 612 915 m 381 987 l 381 915 q 288 888 329 915 q 224 810 248 862 q 200 680 200 758 l 200 292 q 213 190 200 234 q 251 117 227 146 q 309 73 276 87 q 381 58 342 58 q 480 83 437 58 q 549 158 524 109 q 574 281 574 208 l 574 599 l 645 599 l 645 281 q 625 151 645 207 q 570 59 606 96 q 486 4 534 22 q 381 -14 438 -14 q 276 5 324 -14 q 192 62 227 24 q 136 158 156 100 q 116 292 116 215 l 116 680 q 151 851 116 783 q 245 953 185 919 q 381 987 305 987 m 850 915 l 850 987 q 955 968 907 987 q 1040 910 1004 949 q 1095 815 1076 872 q 1115 680 1115 758 l 1115 292 q 1095 158 1115 215 q 1040 62 1076 100 q 955 5 1004 24 q 850 -14 907 -14 q 745 4 793 -14 q 662 59 697 22 q 606 151 626 96 q 587 281 587 207 l 587 599 l 658 599 l 658 281 q 672 184 658 226 q 712 114 686 142 q 773 72 739 86 q 850 58 808 58 q 922 73 889 58 q 980 117 956 87 q 1018 190 1004 146 q 1031 292 1031 234 l 1031 680 q 1018 782 1031 739 q 980 856 1004 826 q 922 900 956 885 q 850 915 889 915 z "},"ѽ":{"ha":1109,"x_min":96,"x_max":1011,"o":"m 851 920 l 870 920 l 870 862 l 850 862 q 748 878 791 862 q 672 915 705 894 q 607 952 638 936 q 541 968 576 968 q 465 940 491 968 q 439 869 439 912 l 439 857 l 377 857 l 377 878 q 420 988 377 947 q 538 1029 463 1029 q 616 1013 581 1029 q 685 975 651 996 q 758 936 718 953 q 851 920 798 920 m 530 675 l 497 707 q 532 751 520 728 q 545 804 545 773 l 545 869 l 616 869 l 616 800 q 603 748 616 773 q 569 705 589 724 q 530 675 549 686 m 339 743 l 339 673 q 256 648 293 673 q 198 576 219 624 q 177 457 177 528 l 177 271 q 189 178 177 218 q 223 111 201 138 q 274 70 245 83 q 339 56 304 56 q 409 69 377 56 q 464 107 440 82 q 500 171 487 133 q 513 259 513 209 l 513 425 l 582 425 l 582 259 q 564 139 582 191 q 513 54 546 88 q 436 3 480 20 q 339 -14 392 -14 q 242 3 287 -14 q 165 57 198 21 q 114 146 132 93 q 96 271 96 200 l 96 457 q 127 616 96 553 q 214 711 159 680 q 339 743 269 743 m 768 673 l 768 743 q 865 725 821 743 q 942 672 909 707 q 993 583 975 636 q 1011 457 1011 529 l 1011 271 q 993 146 1011 200 q 942 57 975 93 q 865 3 909 21 q 768 -14 821 -14 q 671 3 715 -14 q 594 54 627 20 q 544 139 562 88 q 526 259 526 191 l 526 425 l 594 425 l 594 259 q 607 171 594 209 q 644 107 621 133 q 699 69 667 82 q 768 56 730 56 q 833 70 803 56 q 884 111 863 83 q 918 178 906 138 q 930 271 930 218 l 930 457 q 918 551 930 511 q 884 618 906 591 q 833 659 863 646 q 768 673 803 673 z "},"Ѿ":{"ha":1234,"x_min":116,"x_max":1118,"o":"m 576 1151 l 363 1151 l 363 1206 l 875 1206 l 876 1151 l 651 1151 l 651 1074 l 576 1074 l 576 1151 m 574 987 l 645 987 l 645 281 q 625 152 645 207 q 570 60 606 96 q 486 5 534 23 q 381 -14 438 -14 q 276 5 324 -14 q 192 60 227 23 q 136 152 156 96 q 116 281 116 207 l 116 987 l 200 987 l 200 281 q 213 184 200 226 q 251 114 227 142 q 309 72 276 86 q 381 58 342 58 q 480 83 437 58 q 549 158 524 109 q 574 281 574 208 l 574 987 m 1034 987 l 1118 987 l 1118 281 q 1082 117 1118 182 q 986 19 1047 51 q 847 -14 925 -14 q 744 5 791 -14 q 662 60 697 23 q 608 152 627 96 q 589 281 589 207 l 589 987 l 660 987 l 660 281 q 674 184 660 226 q 713 114 688 142 q 772 72 738 86 q 847 58 806 58 q 943 83 901 58 q 1009 158 985 109 q 1034 281 1034 208 l 1034 987 z "},"ѿ":{"ha":1144,"x_min":106,"x_max":1023,"o":"m 524 932 l 310 932 l 311 988 l 823 988 l 825 932 l 599 932 l 599 844 l 524 844 l 524 932 m 524 734 l 593 734 l 593 259 q 575 139 593 191 q 524 54 557 88 q 447 3 491 20 q 350 -14 403 -14 q 253 3 298 -14 q 176 54 209 20 q 125 139 143 88 q 106 259 106 191 l 106 734 l 188 734 l 188 259 q 200 171 188 209 q 234 107 212 133 q 285 69 256 82 q 350 56 315 56 q 439 79 400 56 q 501 147 478 102 q 524 259 524 193 l 524 734 m 941 734 l 1023 734 l 1023 259 q 990 107 1023 168 q 901 16 958 46 q 774 -14 845 -14 q 679 3 722 -14 q 604 54 635 20 q 554 139 572 88 q 536 259 536 191 l 536 734 l 606 734 l 606 259 q 618 171 606 209 q 653 107 631 133 q 707 69 676 82 q 774 56 737 56 q 840 69 810 56 q 893 107 871 82 q 929 171 916 133 q 941 259 941 209 l 941 734 z "},"Ҁ":{"ha":879,"x_min":89,"x_max":811,"o":"m 456 58 l 456 -14 q 333 7 390 -14 q 232 70 277 29 q 155 166 186 110 q 106 292 123 222 q 89 441 89 361 l 89 553 q 116 734 89 652 q 192 876 142 816 q 311 969 241 936 q 464 1002 380 1002 q 644 964 567 1002 q 764 855 720 927 q 811 679 808 783 l 728 679 q 691 815 722 759 q 603 900 660 871 q 464 930 546 930 q 343 902 397 930 q 252 824 290 874 q 193 705 214 774 q 173 554 173 636 l 173 441 q 186 316 173 374 q 223 210 199 257 q 281 128 247 162 q 360 76 316 94 q 456 58 404 58 m 511 58 l 511 -248 l 427 -248 l 427 58 l 511 58 z "},"ҁ":{"ha":727,"x_min":75,"x_max":665,"o":"m 389 56 l 389 -14 q 257 14 315 -14 q 159 92 199 42 q 97 209 118 142 q 75 353 75 275 l 75 381 q 97 525 75 458 q 158 642 118 592 q 257 720 199 692 q 389 747 315 747 q 528 716 465 747 q 627 626 590 684 q 665 485 665 567 l 587 485 q 559 589 587 546 q 488 655 532 632 q 389 677 443 677 q 286 653 330 677 q 214 588 242 629 q 171 493 185 546 q 157 381 157 439 l 157 353 q 171 241 157 294 q 214 145 185 187 q 286 80 242 104 q 389 56 330 56 m 439 56 l 439 -248 l 359 -248 l 359 56 l 439 56 z "},"҂":{"ha":848,"x_min":92,"x_max":777,"o":"m 543 559 l 392 294 l 588 177 l 551 112 l 354 227 l 227 0 l 136 0 l 288 270 l 92 386 l 128 451 l 327 335 l 476 601 l 279 717 l 317 783 l 514 667 l 652 910 l 741 910 l 578 625 l 777 509 l 738 444 l 543 559 z "},"҃":{"ha":0,"x_min":-585,"x_max":-163,"o":"m -163 908 l -509 908 l -509 825 l -585 825 l -584 962 l -238 962 l -238 1036 l -163 1036 l -163 908 z "},"҄":{"ha":0,"x_min":-608,"x_max":-115,"o":"m -608 947 l -589 947 q -496 963 -536 947 q -423 1002 -456 980 q -354 1040 -389 1023 q -276 1056 -319 1056 q -158 1015 -201 1056 q -115 905 -115 974 l -115 884 l -178 884 l -178 896 q -203 967 -178 939 q -279 995 -229 995 q -346 979 -315 995 q -410 942 -376 963 q -486 905 -444 921 q -588 889 -529 889 l -608 889 l -608 947 z "},"҅":{"ha":0,"x_min":-442,"x_max":-307,"o":"m -345 899 l -442 1017 l -442 1107 l -349 1107 l -349 1013 l -307 931 l -345 899 z "},"҆":{"ha":0,"x_min":-408,"x_max":-272,"o":"m -272 1017 l -370 899 l -408 931 l -366 1013 l -366 1107 l -272 1107 l -272 1017 z "},"҈":{"ha":0,"x_min":-1021,"x_max":300,"o":"m -436 859 l -513 859 q -474 951 -513 916 q -370 987 -436 987 q -266 951 -304 987 q -227 859 -227 916 l -303 859 q -318 907 -303 886 q -370 928 -334 928 q -421 907 -406 928 q -436 859 -436 886 m -35 671 l -112 671 q -74 763 -112 728 q 31 799 -35 799 q 136 763 97 799 q 174 671 174 728 l 98 671 q 83 719 98 699 q 31 740 68 740 q -20 719 -5 740 q -35 671 -35 699 m 92 330 l 15 330 q 53 422 15 387 q 157 458 92 458 q 262 422 224 458 q 300 330 300 387 l 224 330 q 210 378 224 357 q 157 399 195 399 q 107 378 122 399 q 92 330 92 357 m -42 -22 l -119 -22 q -80 70 -119 35 q 24 106 -42 106 q 129 70 90 106 q 167 -22 167 35 l 91 -22 q 76 26 91 5 q 24 47 61 47 q -27 26 -12 47 q -42 -22 -42 5 m -433 -214 l -509 -214 q -471 -122 -509 -158 q -367 -87 -433 -87 q -262 -122 -300 -87 q -224 -214 -224 -158 l -300 -214 q -315 -166 -300 -187 q -367 -146 -330 -146 q -417 -166 -402 -146 q -433 -214 -433 -187 m -824 671 l -901 671 q -863 763 -901 728 q -758 799 -824 799 q -653 763 -692 799 q -615 671 -615 728 l -691 671 q -706 719 -691 699 q -758 740 -722 740 q -809 719 -794 740 q -824 671 -824 699 m -944 330 l -1021 330 q -982 422 -1021 387 q -878 458 -944 458 q -773 422 -812 458 q -735 330 -735 387 l -811 330 q -826 378 -811 357 q -878 399 -841 399 q -929 378 -913 399 q -944 330 -944 357 m -831 -22 l -908 -22 q -870 70 -908 35 q -766 106 -831 106 q -661 70 -699 106 q -622 -22 -622 35 l -699 -22 q -713 26 -699 5 q -766 47 -728 47 q -816 26 -801 47 q -831 -22 -831 5 z "},"҉":{"ha":0,"x_min":-1015,"x_max":244,"o":"m -411 -41 l -318 -41 l -311 -50 l -393 -280 l -458 -280 l -411 -41 m -358 764 l -450 764 l -458 773 l -376 1002 l -311 1002 l -358 764 m 9 334 l 9 428 l 18 436 l 244 352 l 244 286 l 9 334 m -780 388 l -780 294 l -789 286 l -1015 370 l -1015 436 l -780 388 m -87 612 l -153 680 l -152 690 l 66 794 l 112 748 l -87 612 m -683 81 l -617 14 l -618 3 l -836 -101 l -882 -54 l -683 81 m -646 650 l -712 583 l -724 585 l -824 806 l -780 852 l -646 650 m -125 42 l -60 109 l -48 108 l 53 -113 l 8 -161 l -125 42 z "},"Ҋ":{"ha":989,"x_min":128,"x_max":937,"o":"m 212 146 l 774 987 l 858 987 l 858 0 l 774 0 l 774 844 l 212 0 l 128 0 l 128 987 l 212 987 l 212 146 m 625 1230 l 694 1230 q 670 1139 694 1179 q 603 1078 647 1100 q 498 1055 559 1055 q 355 1104 408 1055 q 302 1230 302 1153 l 372 1230 q 400 1149 372 1183 q 498 1114 429 1114 q 595 1149 566 1114 q 625 1230 625 1184 m 937 98 l 937 2 q 911 -118 937 -60 q 842 -216 886 -176 l 793 -180 q 829 -124 814 -153 q 850 -66 843 -96 q 857 1 857 -35 l 857 98 l 937 98 z "},"ҋ":{"ha":794,"x_min":112,"x_max":749,"o":"m 193 132 l 589 734 l 670 734 l 670 0 l 589 0 l 589 602 l 193 0 l 112 0 l 112 734 l 193 734 l 193 132 m 515 998 l 584 998 q 561 907 584 946 q 493 845 537 867 q 389 823 450 823 q 245 871 298 823 q 193 998 193 920 l 262 998 q 290 916 262 951 q 389 882 319 882 q 486 917 456 882 q 515 998 515 951 m 749 98 l 749 2 q 724 -118 749 -60 q 654 -216 699 -176 l 606 -180 q 642 -124 627 -153 q 663 -66 656 -96 q 670 1 670 -35 l 670 98 l 749 98 z "},"ҍ":{"ha":743,"x_min":-20,"x_max":674,"o":"m 167 480 l 406 480 q 553 449 493 480 q 643 365 612 418 q 674 241 674 311 q 643 118 674 173 q 553 32 612 64 q 406 0 493 0 l 115 0 l 115 1109 l 195 1109 l 195 70 l 406 70 q 514 94 473 70 q 574 157 555 119 q 593 240 593 196 q 574 321 593 282 q 514 386 555 360 q 406 411 473 411 l 167 411 l 167 480 m 416 987 l 416 918 l -20 918 l -20 987 l 416 987 z "},"Ҏ":{"ha":878,"x_min":123,"x_max":791,"o":"m 562 635 l 789 378 l 737 332 l 511 589 l 562 635 m 459 402 l 178 402 l 178 474 l 459 474 q 602 503 547 474 q 683 581 657 531 q 708 692 708 630 q 683 803 708 752 q 602 885 657 854 q 459 916 547 916 l 206 916 l 206 0 l 123 0 l 123 987 l 459 987 q 642 950 568 987 q 753 846 715 913 q 791 693 791 780 q 754 537 791 602 q 642 437 716 471 q 459 402 568 402 z "},"ҏ":{"ha":785,"x_min":105,"x_max":696,"o":"m 489 228 l 686 -16 l 633 -62 l 437 182 l 489 228 m 186 593 l 186 -282 l 105 -282 l 105 734 l 181 734 l 186 593 m 696 374 l 696 359 q 678 209 696 277 q 623 91 659 141 q 535 14 587 41 q 416 -14 484 -14 q 299 7 351 -14 q 211 65 248 27 q 152 153 174 102 q 121 264 130 204 l 121 452 q 155 572 132 518 q 214 666 178 627 q 300 726 250 705 q 415 747 351 747 q 535 721 482 747 q 623 646 587 695 q 678 528 659 597 q 696 374 696 459 m 615 359 l 615 374 q 602 493 615 438 q 562 589 589 548 q 494 653 535 630 q 397 676 453 676 q 297 657 338 676 q 230 606 256 637 q 187 537 203 574 q 164 464 172 500 l 164 248 q 192 174 174 209 q 238 113 210 140 q 306 72 267 87 q 398 56 346 56 q 494 80 454 56 q 562 144 535 103 q 602 240 589 185 q 615 359 615 296 z "},"Ґ":{"ha":762,"x_min":121,"x_max":718,"o":"m 718 1227 l 718 918 l 636 918 l 636 1227 l 718 1227 m 716 987 l 716 916 l 204 916 l 204 0 l 121 0 l 121 987 l 716 987 z "},"ґ":{"ha":608,"x_min":108,"x_max":563,"o":"m 563 968 l 563 663 l 481 663 l 481 968 l 563 968 m 561 734 l 561 663 l 189 663 l 189 0 l 108 0 l 108 734 l 561 734 z "},"Ҕ":{"ha":802,"x_min":126,"x_max":744,"o":"m 722 987 l 722 916 l 210 916 l 210 0 l 126 0 l 126 987 l 722 987 m 195 489 l 195 562 l 351 562 q 511 538 439 562 q 635 467 583 515 q 716 347 688 420 q 744 174 744 274 q 725 37 744 103 q 669 -81 707 -29 q 572 -162 631 -132 q 434 -193 514 -193 l 433 -125 q 537 -101 494 -125 q 608 -36 581 -77 q 649 60 636 6 q 663 174 663 115 q 641 314 663 255 q 578 413 618 374 q 480 470 537 452 q 351 489 422 489 l 195 489 z "},"ҕ":{"ha":692,"x_min":108,"x_max":637,"o":"m 126 352 l 126 425 l 287 425 q 466 391 387 425 q 591 288 545 357 q 637 113 637 219 q 624 32 637 77 q 583 -57 612 -13 q 505 -135 553 -101 q 382 -182 456 -169 l 361 -119 q 478 -65 436 -102 q 537 19 520 -28 q 555 113 555 66 q 522 248 557 195 q 425 326 486 300 q 287 352 363 352 l 126 352 m 561 734 l 561 663 l 189 663 l 189 0 l 108 0 l 108 734 l 561 734 z "},"Җ":{"ha":1271,"x_min":16,"x_max":1238,"o":"m 411 470 l 41 987 l 142 987 l 452 543 l 613 543 l 604 470 l 411 470 m 462 476 l 121 0 l 16 0 l 409 549 l 462 476 m 655 987 l 655 0 l 572 0 l 572 987 l 655 987 m 1183 987 l 812 470 l 622 470 l 614 543 l 772 543 l 1082 987 l 1183 987 m 1102 0 l 762 476 l 815 549 l 1208 0 l 1102 0 m 1238 85 l 1238 -241 l 1157 -241 l 1157 85 l 1238 85 z "},"җ":{"ha":1078,"x_min":17,"x_max":1061,"o":"m 349 339 l 51 734 l 149 734 l 390 412 l 526 412 l 518 339 l 349 339 m 397 347 l 120 0 l 17 0 l 347 410 l 397 347 m 569 734 l 569 0 l 488 0 l 488 734 l 569 734 m 1008 734 l 710 339 l 541 339 l 532 412 l 669 412 l 909 734 l 1008 734 m 939 0 l 661 347 l 712 410 l 1042 0 l 939 0 m 1061 85 l 1061 -241 l 979 -241 l 979 85 l 1061 85 z "},"Қ":{"ha":928,"x_min":128,"x_max":876,"o":"m 212 987 l 212 0 l 128 0 l 128 987 l 212 987 m 831 987 l 392 463 l 178 463 l 171 536 l 344 536 l 726 987 l 831 987 m 756 0 l 340 473 l 388 546 l 861 0 l 756 0 m 876 72 l 876 -254 l 795 -254 l 795 72 l 876 72 z "},"қ":{"ha":777,"x_min":111,"x_max":730,"o":"m 193 734 l 193 0 l 111 0 l 111 734 l 193 734 m 676 734 l 339 336 l 164 336 l 156 409 l 304 409 l 573 734 l 676 734 m 602 0 l 297 347 l 348 410 l 709 0 l 602 0 m 731 85 l 731 -241 l 650 -241 l 650 85 l 731 85 z "},"Ҝ":{"ha":852,"x_min":122,"x_max":838,"o":"m 122 987 l 205 987 l 205 0 l 122 0 l 122 987 m 304 730 l 373 730 l 373 274 l 304 274 l 304 730 m 696 987 l 798 987 l 477 467 l 172 467 l 165 539 l 439 539 l 696 987 m 429 476 l 479 549 l 838 0 l 732 0 l 429 476 z "},"ҝ":{"ha":751,"x_min":111,"x_max":738,"o":"m 111 734 l 192 734 l 192 0 l 111 0 l 111 734 m 285 572 l 354 572 l 354 176 l 285 176 l 285 572 m 602 734 l 704 734 l 440 336 l 163 336 l 155 409 l 406 409 l 602 734 m 398 347 l 449 410 l 738 0 l 631 0 l 398 347 z "},"Ҡ":{"ha":1122,"x_min":56,"x_max":1118,"o":"m 422 987 l 422 918 l 56 918 l 56 987 l 422 987 m 470 987 l 470 0 l 387 0 l 387 987 l 470 987 m 1088 987 l 650 463 l 436 463 l 429 536 l 602 536 l 983 987 l 1088 987 m 1014 0 l 597 473 l 646 546 l 1118 0 l 1014 0 z "},"ҡ":{"ha":917,"x_min":35,"x_max":905,"o":"m 343 734 l 343 664 l 35 664 l 35 734 l 343 734 m 388 734 l 388 0 l 307 0 l 307 734 l 388 734 m 871 734 l 534 336 l 359 336 l 351 409 l 500 409 l 768 734 l 871 734 m 798 0 l 492 347 l 543 410 l 905 0 l 798 0 z "},"Ң":{"ha":983,"x_min":125,"x_max":930,"o":"m 789 545 l 789 473 l 190 473 l 190 545 l 789 545 m 209 987 l 209 0 l 125 0 l 125 987 l 209 987 m 857 987 l 857 0 l 773 0 l 773 987 l 857 987 m 930 85 l 930 -241 l 848 -241 l 848 85 l 930 85 z "},"ң":{"ha":787,"x_min":112,"x_max":742,"o":"m 607 406 l 607 336 l 172 336 l 172 406 l 607 406 m 193 734 l 193 0 l 112 0 l 112 734 l 193 734 m 670 734 l 670 0 l 588 0 l 588 734 l 670 734 m 743 85 l 743 -241 l 661 -241 l 661 85 l 743 85 z "},"Ҥ":{"ha":1400,"x_min":123,"x_max":1345,"o":"m 1345 987 l 1345 918 l 850 918 l 799 987 l 1345 987 m 787 545 l 787 473 l 188 473 l 188 545 l 787 545 m 208 987 l 208 0 l 123 0 l 123 987 l 208 987 m 855 987 l 855 0 l 771 0 l 771 987 l 855 987 z "},"ҥ":{"ha":1006,"x_min":108,"x_max":957,"o":"m 957 734 l 957 663 l 627 663 l 628 734 l 957 734 m 604 406 l 604 336 l 168 336 l 168 406 l 604 406 m 189 734 l 189 0 l 108 0 l 108 734 l 189 734 m 666 734 l 666 0 l 585 0 l 585 734 l 666 734 z "},"Ҧ":{"ha":1416,"x_min":121,"x_max":1352,"o":"m 846 987 l 846 0 l 763 0 l 763 916 l 204 916 l 204 0 l 121 0 l 121 987 l 846 987 m 803 494 l 803 567 l 960 567 q 1120 544 1048 567 q 1244 472 1192 520 q 1324 352 1297 425 q 1352 180 1352 279 q 1334 42 1352 108 q 1278 -76 1316 -24 q 1181 -157 1240 -127 q 1043 -187 1123 -187 l 1042 -120 q 1145 -96 1102 -120 q 1217 -30 1189 -72 q 1258 65 1244 12 q 1272 180 1272 119 q 1249 320 1271 260 q 1186 418 1227 379 q 1088 475 1145 456 q 960 494 1031 494 l 803 494 z "},"ҧ":{"ha":1183,"x_min":108,"x_max":1135,"o":"m 615 352 l 615 425 l 779 425 q 961 391 880 425 q 1088 288 1041 357 q 1135 113 1135 219 q 1123 32 1135 77 q 1081 -57 1110 -13 q 1003 -135 1052 -101 q 881 -182 954 -169 l 859 -119 q 976 -65 935 -102 q 1035 19 1018 -28 q 1053 113 1053 66 q 1019 248 1055 195 q 920 326 983 300 q 779 352 857 352 l 615 352 m 600 734 l 600 663 l 171 663 l 171 734 l 600 734 m 189 734 l 189 0 l 108 0 l 108 734 l 189 734 m 667 734 l 667 0 l 585 0 l 585 734 l 667 734 z "},"Ҩ":{"ha":1033,"x_min":83,"x_max":972,"o":"m 972 56 l 972 -17 q 748 19 849 -17 q 574 119 647 54 q 463 270 502 183 q 424 460 424 357 l 424 633 q 443 778 424 711 q 497 893 462 844 q 582 969 532 942 q 692 996 631 996 q 803 969 753 996 q 889 894 852 943 q 944 778 925 845 q 964 631 964 711 l 964 452 q 931 264 964 350 q 838 117 899 179 q 692 20 777 54 q 503 -14 607 -14 q 327 22 405 -14 q 195 122 250 58 q 112 273 141 187 q 83 458 83 359 l 83 599 q 106 758 83 685 q 169 886 128 831 q 267 971 210 941 q 393 1002 324 1002 l 395 928 q 300 902 342 928 q 229 831 258 876 q 184 727 199 786 q 168 600 168 667 l 168 458 q 191 301 168 374 q 258 174 214 229 q 363 90 302 120 q 503 60 425 60 q 663 90 593 60 q 782 174 734 120 q 855 298 830 227 q 880 452 880 370 l 880 633 q 867 749 880 696 q 830 841 854 802 q 771 901 806 880 q 692 922 736 922 q 614 900 648 922 q 556 839 580 878 q 520 747 532 800 q 508 634 508 695 l 508 458 q 538 299 508 373 q 627 171 568 226 q 772 86 686 117 q 972 56 859 56 z "},"ҩ":{"ha":825,"x_min":81,"x_max":782,"o":"m 782 64 l 782 -8 q 602 21 682 -8 q 463 102 521 50 q 375 225 406 154 q 344 380 344 296 l 344 452 q 358 571 344 517 q 400 665 373 625 q 465 726 427 705 q 549 748 503 748 q 634 724 596 748 q 699 659 672 701 q 741 560 726 616 q 755 437 755 503 l 755 367 q 730 217 755 286 q 659 95 705 147 q 549 15 613 43 q 408 -14 486 -14 q 274 15 334 -14 q 171 98 214 45 q 104 221 127 151 q 81 374 81 292 l 81 425 q 97 553 81 494 q 144 655 114 612 q 218 723 175 699 q 313 747 260 747 l 313 676 q 254 657 281 676 q 206 605 227 639 q 173 526 185 572 q 161 427 161 480 l 161 374 q 178 250 161 307 q 227 149 195 192 q 304 82 258 106 q 408 58 349 58 q 519 81 470 58 q 604 147 569 105 q 656 245 638 189 q 674 367 674 302 l 674 439 q 665 531 674 488 q 640 607 656 574 q 601 658 624 640 q 549 676 578 676 q 496 660 519 676 q 457 613 473 643 q 433 542 441 583 q 425 453 425 500 l 425 378 q 450 251 425 309 q 520 151 474 193 q 633 86 567 109 q 782 64 699 64 z "},"Ҳ":{"ha":863,"x_min":38,"x_max":829,"o":"m 148 987 l 426 571 l 704 987 l 803 987 l 476 501 l 813 0 l 713 0 l 426 431 l 137 0 l 38 0 l 375 501 l 48 987 l 148 987 m 830 85 l 830 -241 l 749 -241 l 749 85 l 830 85 z "},"ҳ":{"ha":686,"x_min":33,"x_max":669,"o":"m 139 734 l 336 437 l 535 734 l 631 734 l 382 374 l 642 0 l 547 0 l 338 310 l 129 0 l 33 0 l 292 374 l 43 734 l 139 734 m 670 85 l 670 -241 l 589 -241 l 589 85 l 670 85 z "},"Ҵ":{"ha":1206,"x_min":24,"x_max":1118,"o":"m 667 987 l 667 918 l 24 918 l 24 987 l 667 987 m 1118 73 l 1112 -238 l 1034 -238 l 1034 0 l 937 0 l 937 73 l 1118 73 m 294 0 l 294 987 l 378 987 l 378 72 l 937 72 l 937 987 l 1021 987 l 1021 0 l 294 0 z "},"ҵ":{"ha":908,"x_min":20,"x_max":857,"o":"m 500 734 l 500 665 l 20 665 l 20 734 l 500 734 m 223 0 l 223 734 l 304 734 l 304 70 l 701 70 l 701 734 l 782 734 l 782 0 l 223 0 m 857 70 l 850 -218 l 776 -218 l 776 0 l 689 0 l 689 70 l 857 70 z "},"Ҷ":{"ha":923,"x_min":117,"x_max":870,"o":"m 117 987 l 201 987 l 201 714 q 229 577 201 629 q 312 504 257 526 q 447 481 367 481 q 524 485 486 481 q 597 494 561 488 q 670 509 634 500 q 743 529 707 518 l 743 457 q 674 438 709 447 q 604 423 640 429 q 529 413 568 417 q 447 410 490 410 q 269 440 343 410 q 156 537 195 470 q 117 714 117 604 l 117 987 m 715 987 l 799 987 l 799 0 l 715 0 l 715 987 m 871 85 l 871 -241 l 789 -241 l 789 85 l 871 85 z "},"ҷ":{"ha":747,"x_min":75,"x_max":701,"o":"m 628 734 l 628 0 l 547 0 l 547 734 l 628 734 m 600 401 l 600 331 q 529 302 569 316 q 445 280 489 289 q 355 272 400 272 q 202 298 264 272 q 107 386 139 325 q 75 548 75 446 l 75 734 l 156 734 l 156 548 q 178 425 156 470 q 244 361 199 380 q 355 342 288 342 q 449 352 403 343 q 534 374 494 361 q 600 401 574 387 m 701 85 l 701 -241 l 620 -241 l 620 85 l 701 85 z "},"Ҹ":{"ha":922,"x_min":117,"x_max":799,"o":"m 509 713 l 509 244 l 440 244 l 440 713 l 509 713 m 117 987 l 201 987 l 201 714 q 229 577 201 629 q 312 504 257 526 q 447 481 367 481 q 524 485 486 481 q 597 494 561 488 q 670 509 634 500 q 743 529 707 518 l 743 457 q 674 438 709 447 q 604 423 640 429 q 529 413 568 417 q 447 410 490 410 q 269 440 343 410 q 156 537 195 470 q 117 714 117 604 l 117 987 m 715 987 l 799 987 l 799 0 l 715 0 l 715 987 z "},"ҹ":{"ha":764,"x_min":103,"x_max":656,"o":"m 437 541 l 437 160 l 367 160 l 367 541 l 437 541 m 656 734 l 656 0 l 575 0 l 575 734 l 656 734 m 629 401 l 629 331 q 557 302 597 316 q 472 280 517 289 q 384 272 428 272 q 230 298 293 272 q 135 386 168 325 q 103 548 103 446 l 103 734 l 184 734 l 184 548 q 206 425 184 470 q 272 361 228 380 q 384 342 316 342 q 477 352 431 343 q 562 374 523 361 q 629 401 602 387 z "},"Һ":{"ha":922,"x_min":113,"x_max":794,"o":"m 794 0 l 710 0 l 710 273 q 682 410 710 359 q 600 484 654 461 q 465 506 545 506 q 388 503 425 506 q 314 494 351 500 q 241 479 277 488 q 169 459 205 470 l 169 531 q 237 549 203 541 q 308 565 271 558 q 383 574 344 571 q 465 578 422 578 q 643 548 569 578 q 755 451 716 518 q 794 273 794 385 l 794 0 m 197 0 l 113 0 l 113 987 l 197 987 l 197 0 z "},"Ҽ":{"ha":1049,"x_min":25,"x_max":966,"o":"m 25 731 l 95 731 q 115 641 95 679 q 175 582 135 602 q 277 561 216 561 l 277 495 q 140 523 196 495 q 54 604 83 551 q 25 731 25 657 m 640 -14 q 467 16 542 -14 q 339 100 391 45 q 261 230 288 155 q 235 394 235 304 l 235 585 q 262 752 235 676 q 340 884 290 829 q 456 970 389 940 q 600 1000 522 1001 q 754 970 686 1000 q 870 884 823 940 q 942 747 917 827 q 966 568 966 667 l 966 495 l 287 495 l 287 561 l 882 561 l 882 589 q 865 722 882 661 q 813 829 848 783 q 725 902 779 876 q 600 928 672 928 q 481 901 533 928 q 392 827 429 874 q 337 718 356 780 q 318 585 318 656 l 318 394 q 337 263 318 324 q 394 156 355 202 q 494 84 433 110 q 640 58 555 58 q 795 81 730 58 q 905 138 860 105 l 931 75 q 870 35 908 55 q 776 0 832 14 q 640 -14 720 -14 z "},"ҽ":{"ha":820,"x_min":-7,"x_max":751,"o":"m -7 580 l 62 580 q 99 472 62 511 q 210 433 135 433 l 210 369 q 92 394 140 369 q 18 466 43 418 q -7 580 -7 513 m 476 -14 q 344 13 404 -14 q 239 87 283 39 q 171 202 195 136 q 146 347 146 268 l 146 376 q 172 529 146 460 q 241 647 197 597 q 341 722 285 696 q 461 747 398 747 q 585 723 531 747 q 676 653 639 698 q 732 546 713 608 q 751 411 751 485 l 751 361 l 196 361 l 196 431 l 670 431 l 670 440 q 656 529 669 486 q 616 605 642 571 q 551 658 590 639 q 461 677 513 677 q 366 656 409 677 q 293 594 323 634 q 245 498 262 553 q 228 376 228 443 l 228 347 q 246 233 228 286 q 298 141 264 180 q 377 78 331 101 q 479 56 423 56 q 594 80 544 56 q 685 156 645 104 l 736 117 q 676 52 712 81 q 591 4 641 22 q 476 -14 542 -14 z "},"Ӄ":{"ha":852,"x_min":122,"x_max":810,"o":"m 205 987 l 205 0 l 122 0 l 122 987 l 205 987 m 795 987 l 363 469 l 172 469 l 165 545 l 325 545 l 695 987 l 795 987 m 259 469 l 259 543 l 418 543 q 578 520 506 543 q 702 449 650 497 q 782 329 754 401 q 810 156 810 256 q 792 19 810 85 q 735 -99 774 -47 q 638 -181 697 -151 q 499 -212 580 -212 l 498 -143 q 602 -119 559 -143 q 673 -53 645 -94 q 714 43 701 -11 q 727 155 727 96 q 705 295 727 236 q 643 393 684 354 q 545 450 602 431 q 418 469 488 469 l 259 469 z "},"ӄ":{"ha":732,"x_min":111,"x_max":677,"o":"m 192 734 l 192 0 l 111 0 l 111 734 l 192 734 m 675 734 l 319 336 l 163 336 l 155 409 l 283 409 l 572 734 l 675 734 m 143 336 l 143 410 l 321 410 q 504 378 423 410 q 631 280 584 347 q 677 106 677 213 q 665 27 677 71 q 624 -59 652 -16 q 546 -136 595 -102 q 424 -182 496 -169 l 401 -119 q 519 -66 477 -102 q 578 15 561 -31 q 596 106 596 61 q 562 239 598 189 q 463 313 526 290 q 321 336 400 336 l 143 336 z "},"Ӆ":{"ha":980,"x_min":28,"x_max":928,"o":"m 783 987 l 783 916 l 299 916 l 299 987 l 783 987 m 849 987 l 849 0 l 766 0 l 766 987 l 849 987 m 269 987 l 353 987 l 327 531 q 310 331 321 418 q 281 181 299 244 q 233 79 262 119 q 161 19 204 39 q 56 0 117 0 l 28 0 l 28 72 l 54 73 q 123 88 94 74 q 173 134 152 102 q 207 219 193 166 q 230 352 221 273 q 245 541 239 432 l 269 987 m 928 98 l 928 2 q 902 -118 928 -60 q 833 -216 877 -176 l 785 -180 q 820 -124 806 -153 q 841 -66 834 -96 q 848 1 848 -35 l 848 98 l 928 98 z "},"ӆ":{"ha":795,"x_min":30,"x_max":749,"o":"m 604 734 l 604 663 l 233 663 l 233 734 l 604 734 m 671 734 l 671 0 l 589 0 l 589 734 l 671 734 m 211 734 l 292 734 l 276 390 q 263 242 272 307 q 238 132 254 178 q 198 57 222 86 q 140 14 174 28 q 60 0 106 0 l 30 0 l 30 73 l 56 75 q 106 86 85 75 q 144 121 128 98 q 171 183 160 144 q 188 278 181 222 q 197 410 194 334 l 211 734 m 749 98 l 749 2 q 724 -118 749 -60 q 654 -216 699 -176 l 606 -180 q 642 -124 627 -153 q 663 -66 656 -96 q 670 1 670 -35 l 670 98 l 749 98 z "},"Ӈ":{"ha":979,"x_min":127,"x_max":852,"o":"m 127 987 l 210 987 l 210 525 l 768 525 l 768 987 l 852 987 l 852 -58 q 827 -188 852 -135 q 756 -269 802 -241 q 645 -296 709 -296 q 606 -293 624 -296 q 568 -283 588 -290 l 577 -214 q 609 -221 588 -218 q 644 -224 629 -224 q 711 -205 684 -224 q 754 -148 739 -185 q 768 -58 768 -111 l 768 454 l 210 454 l 210 0 l 127 0 l 127 987 z "},"ӈ":{"ha":774,"x_min":108,"x_max":666,"o":"m 108 734 l 189 734 l 189 406 l 585 406 l 585 734 l 666 734 l 666 -60 q 642 -189 666 -136 q 571 -269 617 -242 q 460 -296 524 -296 q 421 -293 439 -296 q 384 -283 404 -290 l 393 -216 q 425 -223 404 -220 q 460 -227 446 -227 q 528 -207 500 -227 q 570 -150 555 -187 q 585 -60 585 -113 l 585 336 l 189 336 l 189 0 l 108 0 l 108 734 z "},"Ӊ":{"ha":989,"x_min":125,"x_max":936,"o":"m 789 545 l 789 473 l 190 473 l 190 545 l 789 545 m 209 987 l 209 0 l 125 0 l 125 987 l 209 987 m 857 987 l 857 0 l 773 0 l 773 987 l 857 987 m 936 98 l 936 2 q 910 -118 936 -60 q 841 -216 885 -176 l 793 -180 q 828 -124 814 -153 q 849 -66 842 -96 q 857 1 857 -35 l 857 98 l 936 98 z "},"ӊ":{"ha":793,"x_min":112,"x_max":749,"o":"m 607 406 l 607 336 l 172 336 l 172 406 l 607 406 m 193 734 l 193 0 l 112 0 l 112 734 l 193 734 m 670 734 l 670 0 l 588 0 l 588 734 l 670 734 m 749 98 l 749 2 q 723 -118 749 -60 q 654 -216 698 -176 l 606 -180 q 641 -124 627 -153 q 662 -66 655 -96 q 669 1 669 -35 l 669 98 l 749 98 z "},"Ӎ":{"ha":1204,"x_min":125,"x_max":1152,"o":"m 151 987 l 235 987 l 600 118 l 966 987 l 1050 987 l 632 0 l 568 0 l 151 987 m 125 987 l 199 987 l 209 431 l 209 0 l 125 0 l 125 987 m 1002 987 l 1076 987 l 1076 0 l 993 0 l 993 431 l 1002 987 m 1152 98 l 1152 2 q 1126 -118 1152 -60 q 1057 -216 1101 -176 l 1008 -180 q 1044 -124 1029 -153 q 1065 -66 1058 -96 q 1072 1 1072 -35 l 1072 98 l 1152 98 z "},"ӎ":{"ha":1029,"x_min":115,"x_max":984,"o":"m 512 111 l 804 734 l 885 734 l 541 0 l 484 0 l 141 734 l 221 734 l 512 111 m 196 734 l 196 0 l 115 0 l 115 734 l 196 734 m 823 0 l 823 734 l 905 734 l 905 0 l 823 0 m 984 98 l 984 2 q 959 -118 984 -60 q 889 -216 933 -176 l 841 -180 q 876 -124 862 -153 q 898 -66 890 -96 q 905 1 905 -35 l 905 98 l 984 98 z "},"Ә":{"ha":972,"x_min":85,"x_max":890,"o":"m 465 1001 q 647 968 568 1001 q 781 874 726 935 q 863 730 835 813 q 890 546 890 646 l 890 456 q 860 266 890 352 q 776 117 830 179 q 649 20 722 54 q 492 -14 576 -14 q 320 16 396 -14 q 192 103 245 46 q 112 239 140 159 q 85 418 85 319 l 85 501 l 838 501 l 838 432 l 169 432 l 169 396 q 188 264 169 326 q 248 157 208 203 q 348 85 288 111 q 492 59 409 59 q 625 90 567 59 q 724 175 684 121 q 786 301 765 229 q 807 456 807 374 l 807 546 q 787 695 807 625 q 726 817 768 764 q 620 899 685 869 q 465 928 555 928 q 302 904 370 928 q 186 848 234 880 l 160 911 q 224 951 184 930 q 323 987 264 972 q 465 1001 382 1001 z "},"Ӡ":{"ha":800,"x_min":77,"x_max":704,"o":"m 99 987 l 690 987 l 692 922 l 356 527 l 298 527 l 298 572 l 594 916 l 99 916 l 99 987 m 298 569 l 385 570 q 560 535 489 570 q 667 433 631 500 q 704 269 704 366 q 681 149 704 201 q 615 60 657 96 q 515 5 572 24 q 390 -14 458 -14 q 277 3 332 -14 q 176 55 221 20 q 104 145 131 90 q 77 274 77 199 l 161 274 q 190 164 161 213 q 270 86 218 115 q 390 58 321 58 q 515 83 463 58 q 593 156 566 109 q 621 266 621 203 q 593 401 621 349 q 512 478 566 454 q 380 503 458 503 l 298 503 l 298 569 z "},"ӡ":{"ha":800,"x_min":77,"x_max":703,"o":"m 99 734 l 688 734 l 690 671 l 359 273 l 298 273 l 298 318 l 589 663 l 99 663 l 99 734 m 298 313 l 372 313 q 550 279 476 313 q 664 177 625 244 q 703 14 703 111 q 679 -105 703 -53 q 614 -194 656 -157 q 515 -249 572 -230 q 389 -268 458 -268 q 277 -251 332 -268 q 176 -199 221 -234 q 104 -109 132 -163 q 77 20 77 -55 l 159 20 q 188 -91 159 -41 q 269 -169 217 -140 q 389 -198 321 -198 q 515 -172 463 -198 q 594 -99 567 -146 q 621 12 621 -52 q 591 148 621 96 q 504 223 560 199 q 370 248 448 248 l 298 248 l 298 313 z "},"Ӻ":{"ha":790,"x_min":17,"x_max":745,"o":"m 745 987 l 745 916 l 233 916 l 233 0 l 149 0 l 149 987 l 745 987 m 432 581 l 432 511 l 17 511 l 17 581 l 432 581 m 220 92 l 301 92 l 301 -60 q 277 -189 301 -136 q 206 -269 252 -242 q 96 -296 160 -296 q 57 -293 75 -296 q 20 -283 39 -290 l 28 -213 q 60 -220 39 -217 q 96 -223 81 -223 q 163 -204 135 -223 q 205 -149 191 -186 q 220 -60 220 -113 l 220 92 z "},"ӻ":{"ha":612,"x_min":12,"x_max":591,"o":"m 591 734 l 591 663 l 219 663 l 219 0 l 138 0 l 138 734 l 591 734 m 435 451 l 435 381 l 20 381 l 20 451 l 435 451 m 212 92 l 293 92 l 293 -60 q 269 -189 293 -136 q 198 -269 244 -242 q 87 -296 152 -296 q 49 -293 66 -296 q 12 -283 31 -290 l 20 -213 q 52 -220 31 -217 q 87 -223 73 -223 q 155 -204 127 -223 q 197 -149 182 -186 q 212 -60 212 -113 l 212 92 z "},"Ӽ":{"ha":870,"x_min":38,"x_max":838,"o":"m 148 987 l 426 571 l 704 987 l 803 987 l 476 501 l 813 0 l 713 0 l 426 431 l 137 0 l 38 0 l 375 501 l 48 987 l 148 987 m 756 92 l 838 92 l 838 -60 q 813 -189 838 -136 q 743 -269 789 -242 q 632 -296 696 -296 q 593 -293 611 -296 q 556 -283 576 -290 l 565 -213 q 597 -220 576 -217 q 632 -223 618 -223 q 699 -204 671 -223 q 742 -149 727 -186 q 756 -60 756 -113 l 756 92 z "},"ӽ":{"ha":693,"x_min":33,"x_max":677,"o":"m 139 734 l 336 437 l 535 734 l 631 734 l 382 374 l 642 0 l 547 0 l 338 310 l 129 0 l 33 0 l 292 374 l 43 734 l 139 734 m 596 92 l 677 92 l 677 -60 q 653 -189 677 -136 q 583 -269 629 -242 q 472 -296 536 -296 q 433 -293 451 -296 q 396 -283 416 -290 l 405 -213 q 437 -220 416 -217 q 472 -223 458 -223 q 539 -204 511 -223 q 582 -149 567 -186 q 596 -60 596 -113 l 596 92 z "},"Ԁ":{"ha":796,"x_min":51,"x_max":707,"o":"m 378 574 l 652 574 l 652 502 l 378 502 q 238 471 292 502 q 160 392 184 441 q 135 290 135 344 q 160 183 135 233 q 238 103 184 134 q 378 72 292 72 l 623 72 l 623 987 l 707 987 l 707 0 l 378 0 q 199 38 272 0 q 88 140 125 75 q 51 288 51 205 q 72 402 51 351 q 134 493 93 454 q 237 553 176 532 q 378 574 298 574 z "},"Ԃ":{"ha":1085,"x_min":52,"x_max":1050,"o":"m 379 574 l 653 574 l 653 502 l 379 502 q 239 471 293 502 q 161 392 186 441 q 136 290 136 344 q 161 183 136 233 q 239 103 186 134 q 379 72 293 72 l 624 72 l 624 987 l 707 987 l 707 0 l 379 0 q 200 38 273 0 q 90 140 127 75 q 52 288 52 205 q 73 402 52 351 q 135 493 94 454 q 238 553 177 532 q 379 574 299 574 m 791 0 l 686 0 l 686 71 l 791 71 q 886 97 848 72 q 944 168 924 122 q 966 275 964 213 q 964 332 966 302 q 956 392 961 361 q 942 452 950 422 q 924 509 935 481 l 1004 509 q 1027 433 1017 472 q 1044 353 1038 393 q 1049 275 1050 313 q 1012 122 1048 182 q 918 31 976 61 q 791 0 859 0 z "},"ԃ":{"ha":1194,"x_min":75,"x_max":1095,"o":"m 75 347 l 75 361 q 94 518 75 448 q 149 641 113 589 q 238 720 185 692 q 357 747 290 747 q 449 734 408 747 q 522 694 490 720 q 578 632 554 669 q 617 550 602 595 q 640 452 633 505 l 640 271 q 611 157 632 209 q 555 66 590 104 q 470 7 519 28 q 356 -14 420 -14 q 237 12 290 -14 q 149 86 185 38 q 94 200 113 134 q 75 347 75 266 m 157 361 l 157 347 q 170 231 157 284 q 209 139 183 178 q 275 79 235 100 q 371 58 316 58 q 488 84 441 58 q 563 156 535 111 q 604 254 591 201 l 604 464 q 581 537 596 500 q 539 606 566 574 q 471 657 512 637 q 372 676 431 676 q 276 652 317 676 q 209 585 235 628 q 170 484 183 541 q 157 361 157 427 m 578 234 l 578 1058 l 660 1058 l 660 234 q 676 136 660 176 q 723 76 692 96 q 795 56 753 56 q 887 78 847 56 q 955 139 927 99 q 997 234 982 178 q 1012 359 1011 290 q 1001 495 1013 427 q 968 632 988 564 l 1048 632 q 1080 497 1066 566 q 1093 359 1095 429 q 1068 194 1092 264 q 1004 78 1045 124 q 910 9 964 32 q 795 -14 857 -14 q 683 9 730 -16 q 609 90 635 35 q 578 234 582 145 z "},"Ԅ":{"ha":1097,"x_min":35,"x_max":1003,"o":"m 304 457 l 173 457 l 173 530 l 288 530 q 424 552 370 530 q 504 619 477 574 q 530 730 530 664 q 515 807 530 772 q 471 865 501 841 q 393 903 441 890 q 279 916 346 916 l 35 916 l 35 987 l 279 987 q 422 971 359 987 q 527 922 485 954 q 591 841 570 889 q 613 729 613 793 q 603 655 613 690 q 574 591 593 621 q 525 538 554 561 q 458 499 496 515 q 374 476 420 484 q 369 475 372 476 q 363 472 366 473 q 357 470 359 471 q 324 463 330 465 q 304 457 317 462 m 496 207 l 496 208 l 496 259 q 474 362 496 318 q 410 432 453 407 q 304 457 368 457 l 316 505 q 443 487 392 505 q 524 436 494 469 q 566 358 553 403 q 579 260 579 313 l 579 207 q 595 129 579 163 q 639 77 610 96 q 707 58 668 58 q 797 82 758 58 q 862 148 836 106 q 903 244 889 190 q 918 359 918 298 q 907 495 920 427 q 873 632 894 564 l 956 632 q 988 497 974 566 q 1002 359 1003 429 q 978 203 1000 272 q 915 86 955 134 q 822 12 875 37 q 706 -14 768 -14 q 597 7 644 -16 q 525 78 551 29 q 496 207 499 127 z "},"ԅ":{"ha":895,"x_min":32,"x_max":844,"o":"m 251 323 l 91 323 l 90 392 l 229 392 q 329 409 290 392 q 389 455 369 426 q 409 522 409 485 q 387 595 409 562 q 321 647 365 628 q 214 667 278 667 l 36 667 l 32 734 l 214 734 q 364 708 302 734 q 458 636 426 683 q 491 524 491 589 q 479 463 491 491 q 445 412 467 435 q 388 372 422 389 q 311 347 354 356 q 308 341 309 346 q 304 333 306 337 q 300 327 302 328 q 272 325 277 326 q 251 323 267 325 m 483 144 l 483 145 q 502 79 482 104 q 578 54 522 54 q 656 70 623 54 q 713 116 690 86 q 749 188 736 146 q 762 284 761 231 q 751 392 763 336 q 714 500 739 448 l 797 500 q 829 393 814 448 q 843 284 844 338 q 820 152 842 208 q 761 58 798 95 q 677 2 724 20 q 578 -16 631 -16 q 504 -8 536 -17 q 449 19 471 0 q 415 70 427 39 q 402 145 404 101 l 402 200 q 383 267 402 239 q 326 309 363 294 q 234 323 289 323 l 245 374 q 389 352 337 374 q 461 291 440 330 q 483 201 483 252 l 483 144 z "},"Ԇ":{"ha":741,"x_min":67,"x_max":669,"o":"m 287 446 l 137 446 l 137 516 l 248 516 q 399 543 343 516 q 480 614 455 569 q 505 715 505 659 q 479 824 505 779 q 398 893 452 869 q 258 918 343 918 l 67 918 l 67 987 l 258 987 q 437 957 364 987 q 548 865 510 926 q 586 715 586 804 q 576 645 586 678 q 547 583 566 612 q 499 531 528 554 q 433 491 471 507 q 350 468 396 475 q 343 466 347 468 q 335 461 339 463 q 329 459 332 459 q 308 453 313 454 q 298 451 302 452 q 287 446 295 451 m 282 446 l 292 496 q 468 465 404 496 q 558 378 532 433 q 585 252 585 323 l 585 159 q 589 105 585 132 q 605 56 594 79 q 632 17 615 34 l 632 0 l 550 0 q 522 47 532 19 q 508 105 511 75 q 504 161 504 135 l 504 250 q 478 355 504 311 q 402 422 452 399 q 282 446 353 446 m 669 105 l 669 10 q 643 -110 669 -52 q 573 -208 617 -168 l 525 -173 q 560 -116 546 -144 q 582 -58 574 -88 q 589 8 589 -27 l 589 105 l 669 105 z "},"ԇ":{"ha":696,"x_min":77,"x_max":629,"o":"m 321 317 l 135 317 l 134 387 l 286 387 q 398 402 356 387 q 460 449 441 418 q 479 523 479 480 q 460 598 479 566 q 398 647 441 630 q 286 665 356 665 l 77 665 l 78 734 l 286 734 q 403 720 352 734 q 490 680 454 707 q 543 614 525 653 q 561 524 561 575 q 549 459 561 489 q 515 406 538 430 q 457 366 492 382 q 374 341 422 349 q 366 334 371 340 q 357 328 361 328 q 339 322 344 323 q 332 321 334 321 q 321 317 329 321 m 308 317 l 324 367 q 466 343 414 367 q 538 278 517 319 q 559 183 559 237 l 559 117 q 562 79 559 98 q 570 42 564 59 q 587 14 576 25 l 587 0 l 502 0 q 485 37 490 13 q 479 83 480 60 q 478 117 478 106 l 478 182 q 459 255 478 224 q 401 301 439 285 q 308 317 363 317 m 629 110 l 629 15 q 604 -105 629 -47 q 534 -203 578 -163 l 486 -168 q 521 -112 507 -140 q 542 -53 535 -83 q 549 13 549 -22 l 549 110 l 629 110 z "},"Ԉ":{"ha":1343,"x_min":45,"x_max":1270,"o":"m 286 987 l 370 987 l 345 531 q 327 331 338 418 q 298 181 317 244 q 251 79 280 119 q 178 19 221 39 q 74 0 135 0 l 45 0 l 45 72 l 71 73 q 140 88 111 74 q 190 134 170 102 q 225 219 211 166 q 248 352 239 273 q 262 541 256 432 l 286 987 m 771 987 l 771 916 l 313 916 l 313 987 l 771 987 m 752 235 l 752 987 l 836 987 l 836 235 q 845 158 836 191 q 871 102 854 125 q 914 69 889 80 q 970 58 939 58 q 1061 79 1021 58 q 1127 140 1100 100 q 1169 235 1154 179 q 1184 359 1183 290 q 1173 495 1185 427 q 1141 632 1160 564 l 1223 632 q 1255 497 1241 566 q 1268 359 1270 429 q 1243 194 1267 264 q 1179 78 1220 124 q 1085 9 1139 32 q 970 -14 1031 -14 q 855 11 904 -14 q 779 91 806 36 q 752 235 752 146 z "},"ԉ":{"ha":1118,"x_min":35,"x_max":1053,"o":"m 216 734 l 297 734 l 281 390 q 268 242 277 307 q 242 132 258 178 q 202 57 227 86 q 144 14 178 28 q 65 0 111 0 l 35 0 l 35 73 l 60 75 q 111 86 90 75 q 149 121 133 98 q 175 183 165 144 q 193 278 186 222 q 202 410 199 334 l 216 734 m 590 734 l 590 663 l 243 663 l 243 734 l 590 734 m 570 234 l 570 734 l 652 734 l 652 234 q 661 157 652 191 q 686 101 669 123 q 727 67 703 79 q 779 56 750 56 q 860 74 825 56 q 919 126 895 92 q 956 208 943 160 q 970 315 969 256 q 959 444 971 379 q 926 573 946 509 l 1006 574 q 1038 446 1023 511 q 1052 315 1053 380 q 1029 170 1050 232 q 970 67 1007 108 q 884 6 933 26 q 779 -14 836 -14 q 694 0 732 -14 q 628 43 656 14 q 585 120 600 73 q 570 234 570 168 z "},"Ԋ":{"ha":1353,"x_min":129,"x_max":1241,"o":"m 194 524 l 741 524 l 741 452 l 194 452 l 194 524 m 129 987 l 212 987 l 212 0 l 129 0 l 129 987 m 724 987 l 807 987 l 807 235 q 823 137 807 177 q 870 78 840 98 q 941 58 901 58 q 1033 79 993 58 q 1099 140 1072 100 q 1141 235 1126 180 q 1156 359 1156 290 q 1145 495 1158 427 q 1112 632 1132 564 l 1194 632 q 1226 497 1212 566 q 1240 359 1241 429 q 1215 194 1238 264 q 1151 78 1192 124 q 1057 9 1110 32 q 941 -14 1003 -14 q 828 9 876 -16 q 754 90 781 35 q 724 235 727 146 l 724 987 z "},"ԋ":{"ha":1148,"x_min":102,"x_max":1059,"o":"m 591 401 l 591 333 l 160 333 l 160 401 l 591 401 m 184 734 l 184 0 l 102 0 l 102 734 l 184 734 m 576 234 l 576 734 l 658 734 l 658 234 q 667 157 658 191 q 692 101 675 124 q 732 67 709 79 q 785 56 756 56 q 867 75 831 56 q 926 126 902 93 q 963 208 950 160 q 977 315 976 256 q 965 444 978 379 q 932 573 952 509 l 1012 574 q 1044 446 1029 511 q 1058 315 1059 380 q 1035 170 1057 232 q 977 67 1014 108 q 890 6 939 26 q 785 -14 842 -14 q 701 -1 739 -15 q 636 42 663 12 q 594 120 610 72 q 576 234 579 168 z "},"Ԍ":{"ha":859,"x_min":92,"x_max":795,"o":"m 471 -14 q 317 17 387 -14 q 197 105 248 49 q 119 238 146 162 q 92 405 92 315 l 92 583 q 119 749 92 673 q 197 882 146 825 q 317 970 248 939 q 471 1002 387 1002 q 601 989 545 1002 q 699 950 656 976 l 672 884 q 579 918 629 906 q 471 930 530 930 q 347 903 401 930 q 254 828 292 876 q 196 718 216 781 q 176 584 176 655 l 176 405 q 196 270 176 333 q 254 160 216 208 q 347 85 292 112 q 471 58 401 58 q 601 86 548 58 q 681 166 653 115 q 710 289 709 218 q 701 411 711 349 q 676 533 691 473 l 759 533 q 783 412 772 473 q 793 289 795 351 q 747 119 792 186 q 629 19 702 52 q 471 -14 556 -14 z "},"ԍ":{"ha":711,"x_min":80,"x_max":654,"o":"m 401 56 q 503 77 465 57 q 556 130 540 96 q 572 204 572 163 q 569 284 572 242 q 556 364 565 326 l 635 364 q 649 284 643 325 q 654 204 654 244 q 619 82 652 130 q 529 9 586 33 q 401 -14 473 -14 q 264 15 323 -14 q 163 96 204 45 q 101 213 122 147 q 80 353 80 279 l 80 381 q 100 520 80 454 q 160 637 121 587 q 256 718 199 688 q 387 747 313 747 q 495 737 449 747 q 570 705 542 727 l 547 640 q 475 668 516 659 q 387 677 434 677 q 284 652 327 677 q 214 583 241 626 q 174 487 186 540 q 161 381 161 435 l 161 353 q 176 246 161 299 q 219 150 190 193 q 294 81 248 107 q 401 56 339 56 z "},"Ԏ":{"ha":983,"x_min":23,"x_max":889,"o":"m 804 987 l 804 916 l 23 916 l 23 987 l 804 987 m 371 235 l 371 987 l 455 987 l 455 235 q 464 158 455 191 q 490 103 473 125 q 533 69 508 81 q 589 58 558 58 q 680 79 641 58 q 747 140 720 100 q 788 235 774 180 q 804 359 803 290 q 792 495 805 427 q 760 632 779 564 l 842 632 q 874 497 860 566 q 887 359 889 429 q 862 194 886 264 q 798 78 839 124 q 704 9 758 32 q 589 -14 650 -14 q 476 9 524 -16 q 401 90 429 35 q 371 235 374 146 z "},"ԏ":{"ha":887,"x_min":46,"x_max":800,"o":"m 661 734 l 661 665 l 46 665 l 46 734 l 661 734 m 309 234 l 309 734 l 390 734 l 390 234 q 406 136 390 176 q 453 76 422 96 q 526 56 484 56 q 607 73 572 56 q 666 121 642 90 q 703 197 690 153 q 717 296 716 241 q 705 416 718 355 q 673 536 692 477 l 752 537 q 785 418 770 478 q 798 296 800 357 q 775 160 796 218 q 716 62 753 101 q 631 5 680 24 q 526 -14 582 -14 q 438 -1 477 -15 q 371 42 399 12 q 327 120 343 72 q 309 234 311 168 z "},"Ԑ":{"ha":918,"x_min":98,"x_max":850,"o":"m 475 525 l 604 525 l 604 467 l 479 467 q 351 456 406 467 q 258 420 296 444 q 201 357 220 395 q 182 266 182 319 q 202 181 182 219 q 260 115 222 142 q 354 73 298 87 q 482 58 410 58 q 631 86 568 58 q 731 164 695 115 q 766 274 766 213 l 850 274 q 818 145 850 199 q 734 55 787 90 q 615 3 681 20 q 482 -14 550 -14 q 328 5 398 -14 q 206 60 258 24 q 126 149 155 96 q 98 269 98 201 q 122 378 98 330 q 193 458 146 426 q 311 508 241 491 q 475 525 382 525 m 604 481 l 475 481 q 323 500 391 481 q 209 553 256 519 q 138 632 162 587 q 113 728 113 677 q 139 846 113 795 q 213 932 165 897 q 330 984 262 967 q 482 1002 398 1002 q 659 968 578 1002 q 788 874 739 935 q 836 728 836 813 l 753 728 q 716 835 753 789 q 619 905 680 880 q 482 930 557 930 q 320 903 383 930 q 227 832 257 877 q 197 730 197 787 q 213 652 197 687 q 263 592 229 618 q 351 554 297 567 q 479 541 404 541 l 604 541 l 604 481 z "},"Ԓ":{"ha":982,"x_min":28,"x_max":929,"o":"m 783 987 l 783 916 l 299 916 l 299 987 l 783 987 m 849 987 l 849 0 l 766 0 l 766 987 l 849 987 m 269 987 l 353 987 l 327 531 q 310 331 321 418 q 281 181 299 244 q 233 79 262 119 q 161 19 204 39 q 56 0 117 0 l 28 0 l 28 72 l 54 73 q 123 88 94 74 q 173 134 152 102 q 207 219 193 166 q 230 352 221 273 q 245 541 239 432 l 269 987 m 848 92 l 929 92 l 929 -60 q 905 -189 929 -136 q 834 -269 880 -242 q 724 -296 788 -296 q 685 -293 703 -296 q 648 -283 667 -290 l 656 -213 q 688 -220 667 -217 q 724 -223 709 -223 q 791 -204 763 -223 q 833 -149 819 -186 q 848 -60 848 -113 l 848 92 z "},"ԓ":{"ha":797,"x_min":30,"x_max":751,"o":"m 604 734 l 604 663 l 233 663 l 233 734 l 604 734 m 671 734 l 671 0 l 589 0 l 589 734 l 671 734 m 211 734 l 292 734 l 276 390 q 263 242 272 307 q 238 132 254 178 q 198 57 222 86 q 140 14 174 28 q 60 0 106 0 l 30 0 l 30 73 l 56 75 q 106 86 85 75 q 144 121 128 98 q 171 183 160 144 q 188 278 181 222 q 197 410 194 334 l 211 734 m 670 92 l 751 92 l 751 -60 q 727 -189 751 -136 q 656 -269 703 -242 q 546 -296 610 -296 q 507 -293 525 -296 q 470 -283 490 -290 l 479 -213 q 511 -220 490 -217 q 546 -223 532 -223 q 613 -204 585 -223 q 655 -149 641 -186 q 670 -60 670 -113 l 670 92 z "}," ":{"ha":708,"x_min":0,"x_max":0,"o":""}," ":{"ha":1417,"x_min":0,"x_max":0,"o":""}," ":{"ha":708,"x_min":0,"x_max":0,"o":""}," ":{"ha":1417,"x_min":0,"x_max":0,"o":""}," ":{"ha":473,"x_min":0,"x_max":0,"o":""}," ":{"ha":354,"x_min":0,"x_max":0,"o":""}," ":{"ha":236,"x_min":0,"x_max":0,"o":""}," ":{"ha":781,"x_min":0,"x_max":0,"o":""}," ":{"ha":380,"x_min":0,"x_max":0,"o":""}," ":{"ha":283,"x_min":0,"x_max":0,"o":""}," ":{"ha":142,"x_min":0,"x_max":0,"o":""},"​":{"ha":0,"x_min":0,"x_max":0,"o":""},"‐":{"ha":392,"x_min":34,"x_max":359,"o":"m 359 471 l 359 401 l 34 401 l 34 471 l 359 471 z "},"‑":{"ha":392,"x_min":34,"x_max":359,"o":"m 359 471 l 359 401 l 34 401 l 34 471 l 359 471 z "},"–":{"ha":905,"x_min":108,"x_max":787,"o":"m 787 535 l 787 465 l 108 465 l 108 535 l 787 535 z "},"—":{"ha":1072,"x_min":86,"x_max":992,"o":"m 992 535 l 992 465 l 86 465 l 86 535 l 992 535 z "},"‗":{"ha":630,"x_min":31,"x_max":628,"o":"m 628 -165 l 628 -235 l 31 -235 l 31 -165 l 628 -165 m 628 0 l 628 -70 l 31 -70 l 31 0 l 628 0 z "},"‘":{"ha":248,"x_min":67,"x_max":210,"o":"m 67 760 l 67 836 q 79 918 67 878 q 112 993 90 958 q 162 1055 133 1028 l 210 1019 q 164 935 180 977 q 148 838 148 892 l 148 760 l 67 760 z "},"’":{"ha":248,"x_min":43,"x_max":186,"o":"m 186 1042 l 186 964 q 174 882 186 922 q 142 807 163 842 q 91 745 121 772 l 43 781 q 90 866 74 823 q 105 962 105 908 l 105 1042 l 186 1042 z "},"‚":{"ha":240,"x_min":28,"x_max":172,"o":"m 172 139 l 172 61 q 160 -20 172 20 q 127 -95 149 -60 q 77 -157 106 -130 l 28 -122 q 75 -37 60 -80 q 91 59 91 5 l 91 139 l 172 139 z "},"‛":{"ha":248,"x_min":61,"x_max":204,"o":"m 61 1042 l 142 1042 l 142 962 q 157 866 142 908 q 204 781 173 823 l 156 745 q 105 807 127 772 q 73 882 84 842 q 61 964 61 922 l 61 1042 z "},"“":{"ha":415,"x_min":68,"x_max":381,"o":"m 68 760 l 68 836 q 79 918 68 878 q 112 993 91 958 q 163 1055 134 1028 l 211 1019 q 164 935 180 977 q 149 838 149 892 l 149 760 l 68 760 m 238 760 l 238 836 q 250 918 238 878 q 282 993 261 958 q 333 1055 304 1028 l 381 1019 q 335 935 351 977 q 319 838 319 892 l 319 760 l 238 760 z "},"”":{"ha":418,"x_min":47,"x_max":356,"o":"m 190 1042 l 190 964 q 178 882 190 922 q 146 807 167 842 q 95 745 125 772 l 47 781 q 94 866 78 823 q 109 962 109 908 l 109 1042 l 190 1042 m 356 1042 l 356 964 q 345 882 356 922 q 312 807 333 842 q 261 745 291 772 l 213 781 q 260 866 244 823 q 275 962 275 908 l 275 1042 l 356 1042 z "},"„":{"ha":403,"x_min":28,"x_max":330,"o":"m 172 161 l 172 61 q 160 -23 172 18 q 127 -100 149 -64 q 77 -164 106 -136 l 28 -128 q 75 -40 60 -84 q 91 59 91 4 l 91 161 l 172 161 m 330 161 l 330 61 q 319 -23 330 18 q 286 -100 307 -64 q 235 -164 264 -136 l 186 -128 q 233 -40 218 -84 q 249 59 249 4 l 249 161 l 330 161 z "},"†":{"ha":765,"x_min":46,"x_max":718,"o":"m 424 987 l 424 0 l 343 0 l 343 987 l 424 987 m 718 734 l 718 663 l 46 663 l 46 734 l 718 734 z "},"‡":{"ha":783,"x_min":58,"x_max":728,"o":"m 427 987 l 427 -282 l 346 -282 l 346 987 l 427 987 m 728 734 l 728 663 l 58 663 l 58 734 l 728 734 m 728 70 l 728 0 l 58 0 l 58 70 l 728 70 z "},"•":{"ha":450,"x_min":100,"x_max":351,"o":"m 100 487 l 100 511 q 134 598 100 564 q 225 632 168 632 q 317 597 283 632 q 351 511 351 563 l 351 487 q 318 401 351 435 q 226 367 284 367 q 134 401 168 367 q 100 487 100 435 z "},"‥":{"ha":630,"x_min":113,"x_max":507,"o":"m 113 50 q 129 91 113 74 q 171 107 144 107 q 213 91 197 107 q 229 50 229 74 q 213 10 229 26 q 171 -6 197 -6 q 129 10 144 -6 q 113 50 113 26 m 392 50 q 407 91 392 74 q 450 107 422 107 q 492 91 476 107 q 507 50 507 74 q 492 10 507 26 q 450 -6 476 -6 q 407 10 422 -6 q 392 50 392 26 z "},"…":{"ha":890,"x_min":113,"x_max":773,"o":"m 113 50 q 129 91 113 74 q 171 107 144 107 q 213 91 197 107 q 229 50 229 74 q 213 10 229 26 q 171 -6 197 -6 q 129 10 144 -6 q 113 50 113 26 m 392 50 q 407 91 392 74 q 450 107 422 107 q 492 91 476 107 q 507 50 507 74 q 492 10 507 26 q 450 -6 476 -6 q 407 10 422 -6 q 392 50 392 26 m 658 50 q 673 91 658 74 q 715 107 688 107 q 758 91 742 107 q 773 50 773 74 q 758 10 773 26 q 715 -6 742 -6 q 673 10 688 -6 q 658 50 658 26 z "},"‧":{"ha":235,"x_min":62,"x_max":174,"o":"m 62 436 q 77 475 62 459 q 117 491 92 491 q 159 475 144 491 q 174 436 174 459 q 159 397 174 413 q 117 382 144 382 q 77 397 92 382 q 62 436 62 413 z "},"‰":{"ha":1355,"x_min":62,"x_max":1285,"o":"m 62 745 l 62 798 q 86 900 62 854 q 153 974 110 946 q 255 1002 197 1002 q 358 974 315 1002 q 425 900 401 946 q 449 798 449 854 l 449 745 q 426 644 449 690 q 359 570 402 598 q 256 543 315 543 q 154 570 197 543 q 86 644 110 598 q 62 745 62 690 m 128 798 l 128 745 q 142 676 128 709 q 184 623 156 644 q 256 602 213 602 q 328 623 300 602 q 370 676 356 644 q 383 745 383 709 l 383 798 q 369 868 383 835 q 327 922 355 901 q 255 943 299 943 q 184 922 213 943 q 142 868 156 901 q 128 798 128 835 m 574 189 l 574 242 q 598 344 574 298 q 665 418 622 390 q 767 446 709 446 q 866 418 825 446 q 930 344 907 390 q 952 242 952 298 l 952 189 q 930 87 952 134 q 866 14 907 41 q 768 -14 825 -14 q 666 14 709 -14 q 598 87 622 41 q 574 189 574 134 m 640 242 l 640 189 q 654 120 640 153 q 696 66 668 87 q 768 45 725 45 q 840 66 812 45 q 882 120 868 87 q 895 189 895 153 l 895 242 q 881 314 895 281 q 839 367 867 347 q 767 387 810 387 q 696 367 725 387 q 654 314 668 347 q 640 242 640 281 m 903 189 l 903 242 q 926 344 903 298 q 992 418 950 390 q 1091 446 1035 446 q 1194 418 1151 446 q 1261 344 1238 390 q 1285 242 1285 298 l 1285 189 q 1262 87 1285 134 q 1195 14 1238 41 q 1093 -14 1152 -14 q 993 14 1036 -14 q 926 87 950 41 q 903 189 903 134 m 961 242 l 961 189 q 975 120 961 153 q 1017 66 989 87 q 1089 45 1046 45 q 1160 66 1133 45 q 1202 120 1188 87 q 1215 189 1215 153 l 1215 242 q 1202 314 1215 281 q 1160 367 1188 347 q 1088 387 1131 387 q 1017 367 1045 387 q 975 314 989 347 q 961 242 961 281 m 770 854 l 288 82 l 237 115 l 719 887 l 770 854 z "},"‹":{"ha":414,"x_min":73,"x_max":345,"o":"m 345 641 l 156 374 l 73 375 l 73 384 l 273 641 l 345 641 m 156 380 l 345 113 l 273 113 l 73 371 l 73 380 l 156 380 z "},"›":{"ha":414,"x_min":66,"x_max":338,"o":"m 66 110 l 256 376 l 338 376 l 338 367 l 138 110 l 66 110 m 66 641 l 138 641 l 338 380 l 338 371 l 256 370 l 66 641 z "},"⁄":{"ha":623,"x_min":43,"x_max":575,"o":"m 575 854 l 93 82 l 43 115 l 525 887 l 575 854 z "},"⁰":{"ha":502,"x_min":60,"x_max":441,"o":"m 441 766 l 441 673 q 419 547 441 597 q 353 470 396 496 q 252 444 311 444 q 150 470 193 444 q 83 547 106 496 q 60 673 60 597 l 60 766 q 83 892 60 841 q 149 968 106 943 q 250 994 192 994 q 353 968 310 994 q 418 892 395 943 q 441 766 441 841 m 370 667 l 370 772 q 357 861 370 825 q 317 915 343 897 q 250 934 290 934 q 184 915 211 934 q 144 861 158 897 q 131 772 131 825 l 131 667 q 144 579 131 615 q 185 523 158 543 q 252 504 212 504 q 317 523 291 504 q 357 579 344 543 q 370 667 370 615 z "},"⁴":{"ha":502,"x_min":41,"x_max":471,"o":"m 471 640 l 471 578 l 43 578 l 41 624 l 310 987 l 368 987 l 293 864 l 118 640 l 471 640 m 385 987 l 385 452 l 313 452 l 313 987 l 385 987 z "},"⁵":{"ha":502,"x_min":74,"x_max":451,"o":"m 144 706 l 87 722 l 120 987 l 434 987 l 434 925 l 180 925 l 159 771 q 202 788 174 779 q 268 797 231 797 q 365 776 323 797 q 428 717 406 755 q 451 625 451 678 q 431 534 451 575 q 369 469 411 493 q 261 444 327 444 q 174 461 216 444 q 105 512 132 479 q 74 595 77 546 l 144 595 q 182 527 149 550 q 261 504 215 504 q 352 537 323 504 q 380 625 380 570 q 347 709 380 677 q 254 741 314 741 q 187 731 210 741 q 144 706 163 720 z "},"⁶":{"ha":502,"x_min":66,"x_max":450,"o":"m 357 993 l 369 993 l 369 932 l 361 932 q 242 908 292 932 q 164 837 191 885 q 137 718 137 789 l 137 642 q 153 567 137 598 q 198 520 170 536 q 263 504 227 504 q 325 521 299 504 q 365 566 351 538 q 379 627 379 593 q 349 712 379 678 q 260 745 319 745 q 197 732 226 745 q 150 696 168 718 q 130 647 132 673 l 108 671 q 131 733 109 703 q 190 785 152 764 q 277 806 227 806 q 373 782 334 806 q 431 718 411 758 q 450 628 450 677 q 427 534 450 576 q 362 469 404 493 q 264 444 321 444 q 160 470 204 444 q 91 541 115 495 q 66 648 66 587 l 66 693 q 85 821 66 766 q 143 915 105 877 q 234 973 180 954 q 357 993 288 993 z "},"⁷":{"ha":502,"x_min":43,"x_max":448,"o":"m 448 987 l 448 945 l 199 452 l 123 452 l 372 926 l 43 926 l 43 987 l 448 987 z "},"⁸":{"ha":502,"x_min":54,"x_max":447,"o":"m 447 595 q 421 512 447 546 q 351 461 395 478 q 252 444 307 444 q 151 461 196 444 q 80 512 106 478 q 54 595 54 546 q 80 673 54 640 q 150 724 106 705 q 250 742 195 742 q 351 724 307 742 q 421 673 395 705 q 447 595 447 640 m 376 600 q 359 651 376 629 q 315 684 343 672 q 250 695 286 695 q 186 684 214 695 q 142 651 158 672 q 126 600 126 629 q 142 548 126 570 q 186 515 158 527 q 252 504 215 504 q 316 515 288 504 q 360 548 344 527 q 376 600 376 570 m 433 847 q 409 775 433 806 q 345 727 385 745 q 252 710 304 710 q 158 727 199 710 q 93 775 117 745 q 69 847 69 806 q 93 927 69 895 q 158 977 117 960 q 250 994 199 994 q 343 977 302 994 q 409 927 385 960 q 433 847 433 895 m 361 844 q 347 891 361 871 q 308 923 332 911 q 250 935 283 935 q 171 910 202 935 q 140 844 140 886 q 155 798 140 817 q 194 767 169 778 q 252 755 219 755 q 330 780 299 755 q 361 844 361 804 z "},"⁹":{"ha":502,"x_min":52,"x_max":435,"o":"m 140 506 l 151 506 q 273 529 226 506 q 341 597 319 553 q 363 704 363 642 l 363 791 q 348 870 363 838 q 306 918 333 902 q 242 934 279 934 q 179 916 205 934 q 138 868 153 897 q 123 805 123 839 q 137 745 123 772 q 177 700 151 717 q 241 683 203 683 q 311 700 282 683 q 355 741 340 716 q 370 788 370 766 l 394 766 q 372 697 393 729 q 313 645 350 665 q 227 625 275 625 q 132 649 172 625 q 72 713 93 673 q 52 804 52 754 q 75 900 52 857 q 141 968 98 943 q 242 994 184 994 q 346 968 303 994 q 412 895 389 943 q 435 779 435 846 l 435 736 q 418 615 435 669 q 367 524 401 562 q 278 467 332 486 q 151 447 225 447 l 140 447 l 140 506 z "},"⁺":{"ha":547,"x_min":54,"x_max":492,"o":"m 492 711 l 492 648 l 54 648 l 54 711 l 492 711 m 305 912 l 305 447 l 242 447 l 242 912 l 305 912 z "},"⁻":{"ha":491,"x_min":54,"x_max":437,"o":"m 437 730 l 437 667 l 54 667 l 54 730 l 437 730 z "},"⁼":{"ha":490,"x_min":54,"x_max":436,"o":"m 436 620 l 436 557 l 54 557 l 54 620 l 436 620 m 436 787 l 436 725 l 54 725 l 54 787 l 436 787 z "},"⁽":{"ha":336,"x_min":69,"x_max":281,"o":"m 69 677 l 69 687 q 97 879 69 793 q 167 1025 125 965 q 254 1112 210 1085 l 281 1060 q 212 980 243 1032 q 161 854 180 928 q 142 688 142 781 l 142 676 q 154 545 142 604 q 184 440 165 486 q 229 359 204 393 q 281 303 254 325 l 254 253 q 187 312 220 273 q 128 404 155 350 q 85 527 102 458 q 69 677 69 596 z "},"⁾":{"ha":336,"x_min":54,"x_max":267,"o":"m 267 687 l 267 677 q 239 483 267 569 q 169 339 212 397 q 83 253 127 281 l 54 303 q 123 383 92 332 q 174 507 155 434 q 193 676 193 581 l 193 688 q 182 817 193 758 q 153 923 172 876 q 108 1004 134 970 q 54 1060 83 1039 l 83 1112 q 149 1053 116 1092 q 208 958 181 1013 q 251 835 235 903 q 267 687 267 766 z "},"ⁿ":{"ha":585,"x_min":83,"x_max":509,"o":"m 160 868 l 160 441 l 83 441 l 83 986 l 142 986 l 160 868 m 147 731 l 119 730 q 133 836 119 787 q 174 919 147 884 q 238 975 200 955 q 321 994 275 994 q 421 973 379 994 q 486 905 463 951 q 509 786 509 859 l 509 441 l 433 441 l 433 777 q 417 867 433 834 q 372 915 401 900 q 303 929 342 929 q 217 903 252 929 q 164 832 182 876 q 147 731 147 787 z "},"₀":{"ha":502,"x_min":60,"x_max":441,"o":"m 441 62 l 441 -31 q 419 -157 441 -106 q 353 -233 396 -208 q 252 -259 311 -259 q 150 -233 193 -259 q 83 -157 106 -208 q 60 -31 60 -106 l 60 62 q 83 189 60 138 q 149 265 106 239 q 250 291 192 291 q 353 265 310 291 q 418 189 395 239 q 441 62 441 138 m 370 -37 l 370 69 q 357 157 370 121 q 317 212 343 193 q 250 231 290 231 q 184 212 211 231 q 144 157 158 193 q 131 69 131 121 l 131 -37 q 144 -124 131 -88 q 185 -180 158 -161 q 252 -199 212 -199 q 317 -180 291 -199 q 357 -124 344 -161 q 370 -37 370 -88 z "},"₁":{"ha":502,"x_min":86,"x_max":315,"o":"m 315 289 l 315 -247 l 243 -247 l 243 202 l 86 155 l 86 217 l 306 289 l 315 289 z "},"₂":{"ha":502,"x_min":52,"x_max":452,"o":"m 452 -186 l 452 -247 l 66 -247 l 66 -195 l 262 -3 q 316 55 296 29 q 345 102 336 81 q 354 142 354 123 q 327 210 354 184 q 246 236 299 236 q 154 205 185 236 q 123 127 123 174 l 52 127 q 75 211 52 173 q 141 273 98 250 q 245 296 184 296 q 342 277 301 296 q 405 225 382 259 q 427 142 427 191 q 410 76 427 108 q 365 13 393 44 q 300 -53 336 -19 l 156 -186 l 452 -186 z "},"₃":{"ha":502,"x_min":49,"x_max":442,"o":"m 182 54 l 235 54 q 303 65 276 54 q 345 98 331 77 q 359 144 359 119 q 332 209 359 182 q 246 236 305 236 q 163 212 197 236 q 130 147 130 188 l 58 147 q 83 226 58 193 q 151 277 108 259 q 245 296 193 296 q 343 278 301 296 q 408 228 385 261 q 431 146 431 194 q 409 80 431 111 q 346 32 387 50 q 246 14 304 14 l 182 14 l 182 54 m 182 -2 l 182 37 l 246 37 q 355 21 312 37 q 420 -27 399 4 q 442 -100 442 -58 q 417 -184 442 -149 q 347 -236 391 -218 q 247 -254 303 -254 q 153 -238 198 -254 q 78 -186 107 -221 q 49 -98 49 -151 l 120 -98 q 156 -167 120 -140 q 249 -195 193 -195 q 339 -169 307 -195 q 370 -98 370 -142 q 353 -43 370 -64 q 306 -12 336 -22 q 235 -2 275 -2 l 182 -2 z "},"₄":{"ha":502,"x_min":41,"x_max":471,"o":"m 471 -59 l 471 -120 l 43 -120 l 41 -75 l 310 288 l 368 288 l 293 165 l 118 -59 l 471 -59 m 385 288 l 385 -247 l 313 -247 l 313 288 l 385 288 z "},"₅":{"ha":502,"x_min":74,"x_max":451,"o":"m 144 7 l 87 23 l 120 288 l 434 288 l 434 227 l 180 227 l 159 73 q 202 90 174 81 q 268 98 231 98 q 365 78 323 98 q 428 18 406 57 q 451 -74 451 -20 q 431 -164 451 -123 q 369 -230 411 -205 q 261 -254 327 -254 q 174 -237 216 -254 q 105 -186 132 -220 q 74 -103 77 -153 l 144 -103 q 182 -172 149 -149 q 261 -195 215 -195 q 352 -162 323 -195 q 380 -73 380 -129 q 347 11 380 -22 q 254 43 314 43 q 187 32 210 43 q 144 7 163 22 z "},"₆":{"ha":502,"x_min":66,"x_max":450,"o":"m 357 294 l 369 294 l 369 233 l 361 233 q 242 210 292 233 q 164 139 191 186 q 137 19 137 91 l 137 -56 q 153 -131 137 -100 q 198 -178 170 -162 q 263 -195 227 -195 q 325 -178 299 -195 q 365 -133 351 -161 q 379 -71 379 -105 q 349 13 379 -20 q 260 47 319 47 q 197 33 226 47 q 150 -3 168 20 q 130 -52 132 -25 l 108 -27 q 131 35 109 4 q 190 86 152 66 q 277 107 227 107 q 373 83 334 107 q 431 19 411 60 q 450 -71 450 -21 q 427 -164 450 -123 q 362 -230 404 -205 q 264 -254 321 -254 q 160 -229 204 -254 q 91 -158 115 -203 q 66 -51 66 -112 l 66 -5 q 85 123 66 67 q 143 217 105 178 q 234 275 180 255 q 357 294 288 294 z "},"₇":{"ha":502,"x_min":43,"x_max":448,"o":"m 448 288 l 448 247 l 199 -247 l 123 -247 l 372 228 l 43 228 l 43 288 l 448 288 z "},"₈":{"ha":502,"x_min":54,"x_max":447,"o":"m 447 -103 q 421 -186 447 -153 q 351 -237 395 -220 q 252 -254 307 -254 q 151 -237 196 -254 q 80 -186 106 -220 q 54 -103 54 -153 q 80 -26 54 -58 q 150 25 106 7 q 250 43 195 43 q 351 25 307 43 q 421 -26 395 7 q 447 -103 447 -58 m 376 -99 q 359 -48 376 -69 q 315 -15 343 -26 q 250 -3 286 -3 q 186 -15 214 -3 q 142 -48 158 -26 q 126 -99 126 -69 q 142 -150 126 -129 q 186 -183 158 -172 q 252 -195 215 -195 q 316 -183 288 -195 q 360 -150 344 -172 q 376 -99 376 -129 m 433 149 q 409 77 433 108 q 345 29 385 46 q 252 12 304 12 q 158 29 199 12 q 93 77 117 46 q 69 149 69 108 q 93 229 69 196 q 158 279 117 262 q 250 296 199 296 q 343 279 302 296 q 409 229 385 262 q 433 149 433 196 m 361 146 q 347 193 361 172 q 308 224 332 213 q 250 236 283 236 q 171 212 202 236 q 140 146 140 188 q 155 99 140 119 q 194 68 169 79 q 252 57 219 57 q 330 81 299 57 q 361 146 361 105 z "},"₉":{"ha":502,"x_min":52,"x_max":435,"o":"m 140 -193 l 151 -193 q 273 -169 226 -193 q 341 -101 319 -146 q 363 5 363 -57 l 363 92 q 348 172 363 140 q 306 219 333 203 q 242 235 279 235 q 179 217 205 235 q 138 170 153 199 q 123 106 123 140 q 137 46 123 74 q 177 1 151 18 q 241 -16 203 -16 q 311 1 282 -16 q 355 42 340 18 q 370 90 370 67 l 394 67 q 372 -2 393 31 q 313 -54 350 -34 q 227 -74 275 -74 q 132 -50 172 -74 q 72 15 93 -26 q 52 106 52 56 q 75 201 52 158 q 141 270 98 244 q 242 296 184 296 q 346 270 303 296 q 412 196 389 244 q 435 80 435 148 l 435 37 q 418 -83 435 -30 q 367 -175 401 -137 q 278 -232 332 -212 q 151 -252 225 -252 l 140 -252 l 140 -193 z "},"₊":{"ha":547,"x_min":54,"x_max":492,"o":"m 492 40 l 492 -22 l 54 -22 l 54 40 l 492 40 m 305 241 l 305 -224 l 242 -224 l 242 241 l 305 241 z "},"₋":{"ha":491,"x_min":54,"x_max":437,"o":"m 437 59 l 437 -3 l 54 -3 l 54 59 l 437 59 z "},"₌":{"ha":490,"x_min":54,"x_max":436,"o":"m 436 -51 l 436 -113 l 54 -113 l 54 -51 l 436 -51 m 436 117 l 436 54 l 54 54 l 54 117 l 436 117 z "},"₍":{"ha":336,"x_min":69,"x_max":281,"o":"m 69 33 l 69 43 q 97 223 69 143 q 167 360 125 304 q 254 441 210 416 l 281 389 q 212 315 243 363 q 161 199 180 267 q 142 44 142 131 l 142 33 q 162 -127 142 -58 q 214 -244 182 -196 q 281 -320 245 -292 l 254 -370 q 187 -314 220 -351 q 128 -227 155 -278 q 85 -110 102 -175 q 69 33 69 -44 z "},"₎":{"ha":336,"x_min":54,"x_max":267,"o":"m 267 54 l 267 44 q 239 -142 267 -60 q 169 -281 212 -224 q 83 -363 127 -337 l 55 -313 q 123 -236 92 -285 q 174 -118 155 -188 q 193 43 193 -48 l 193 55 q 175 205 193 139 q 124 317 156 271 q 54 389 93 364 l 83 441 q 150 387 117 422 q 209 302 183 352 q 251 189 235 252 q 267 54 267 127 z "},"₤":{"ha":794,"x_min":66,"x_max":743,"o":"m 743 0 l 66 0 l 66 72 l 742 72 l 743 0 m 266 705 l 281 250 q 265 127 282 180 q 212 45 248 73 l 133 72 q 171 108 157 79 q 192 176 186 137 q 197 250 198 215 l 182 705 q 218 864 182 798 q 315 966 253 930 q 457 1001 376 1001 q 602 968 543 1001 q 693 875 661 935 q 724 738 724 816 l 641 738 q 615 849 641 806 q 546 910 589 891 q 452 930 503 930 q 355 904 397 930 q 290 827 313 878 q 266 705 266 777 m 514 561 l 514 499 l 66 499 l 66 561 l 514 561 m 514 385 l 514 323 l 66 323 l 66 385 l 514 385 z "},"₦":{"ha":1069,"x_min":24,"x_max":1044,"o":"m 1044 621 l 1044 551 l 24 551 l 24 621 l 1044 621 m 1044 417 l 1044 347 l 24 347 l 24 417 l 1044 417 m 901 987 l 901 0 l 817 0 l 250 844 l 250 0 l 165 0 l 165 987 l 250 987 l 818 144 l 818 987 l 901 987 z "},"₧":{"ha":1137,"x_min":125,"x_max":1033,"o":"m 360 397 l 179 397 l 179 467 l 360 467 q 501 499 450 467 q 573 583 552 532 q 595 691 595 634 q 573 802 595 750 q 501 885 552 853 q 360 918 450 918 l 207 918 l 207 0 l 125 0 l 125 987 l 360 987 q 539 949 469 987 q 643 844 609 911 q 677 692 677 777 q 643 541 677 608 q 539 435 609 474 q 360 397 469 397 m 1020 734 l 1020 667 l 652 667 l 652 734 l 1020 734 m 787 922 l 868 922 l 868 179 q 881 102 868 128 q 917 67 895 76 q 964 59 939 59 q 999 61 982 59 q 1029 66 1015 64 l 1033 -3 q 994 -11 1018 -7 q 946 -14 970 -14 q 864 4 900 -14 q 807 64 827 22 q 787 179 787 106 l 787 922 z "},"₨":{"ha":1453,"x_min":123,"x_max":1376,"o":"m 123 987 l 444 987 q 622 954 547 987 q 738 856 697 921 q 779 697 779 791 q 750 570 779 627 q 669 475 721 513 q 549 422 617 437 l 521 412 l 178 412 l 177 483 l 463 483 q 592 513 541 483 q 670 592 644 543 q 696 697 696 641 q 667 813 696 764 q 582 889 638 863 q 444 916 526 916 l 208 916 l 208 0 l 123 0 l 123 987 m 733 0 l 477 441 l 567 443 l 822 9 l 822 0 l 733 0 m 1295 187 q 1280 247 1295 218 q 1223 300 1265 275 q 1099 341 1181 324 q 990 372 1038 355 q 909 412 942 389 q 860 469 877 436 q 843 548 843 503 q 861 625 843 589 q 912 689 879 661 q 994 732 946 716 q 1101 747 1042 747 q 1247 719 1187 747 q 1340 640 1308 690 q 1373 528 1373 591 l 1291 528 q 1269 600 1291 566 q 1205 656 1247 634 q 1101 677 1162 677 q 999 659 1038 677 q 942 610 960 640 q 924 550 924 581 q 932 506 924 526 q 960 469 939 486 q 1020 437 981 452 q 1120 408 1059 422 q 1265 360 1208 388 q 1349 291 1322 332 q 1377 192 1377 250 q 1358 109 1377 146 q 1303 44 1339 71 q 1218 1 1267 16 q 1106 -14 1168 -14 q 949 18 1013 -14 q 851 99 884 49 q 819 207 819 149 l 900 207 q 936 116 903 149 q 1014 70 968 83 q 1106 56 1060 56 q 1210 75 1168 56 q 1274 123 1252 93 q 1295 187 1295 153 z "},"₩":{"ha":1055,"x_min":24,"x_max":1031,"o":"m 1031 654 l 1031 585 l 24 585 l 24 654 l 1031 654 m 1031 435 l 1031 366 l 24 366 l 24 435 l 1031 435 m 288 0 l 339 279 l 488 987 l 552 987 l 501 707 l 353 0 l 288 0 m 140 987 l 287 281 l 332 0 l 269 0 l 55 987 l 140 987 m 724 0 l 770 287 l 913 987 l 998 987 l 784 0 l 724 0 m 570 987 l 716 286 l 767 0 l 701 0 l 555 709 l 505 987 l 570 987 z "},"₪":{"ha":1059,"x_min":105,"x_max":954,"o":"m 105 734 l 444 734 q 542 719 498 734 q 615 672 585 705 q 662 586 646 640 q 677 454 677 532 l 677 234 l 596 234 l 596 454 q 584 558 596 517 q 550 622 572 599 q 495 655 527 646 q 424 665 464 665 l 186 665 l 186 0 l 105 0 l 105 734 m 720 0 l 382 0 l 382 500 l 463 500 l 463 70 l 701 70 q 792 87 753 70 q 852 151 831 105 q 873 279 873 197 l 873 734 l 954 734 l 954 280 q 938 149 954 202 q 892 62 922 95 q 819 15 862 30 q 720 0 775 0 z "},"€":{"ha":770,"x_min":57,"x_max":707,"o":"m 552 58 q 629 64 591 58 q 701 81 667 70 l 707 7 q 631 -8 671 -3 q 551 -14 591 -14 q 404 11 471 -14 q 289 83 337 35 q 213 203 240 132 q 186 371 186 275 l 186 616 q 213 784 186 711 q 288 904 239 856 q 403 977 336 953 q 550 1001 469 1001 q 629 995 591 1001 q 707 980 667 989 l 701 906 q 629 923 667 917 q 551 930 591 930 q 435 910 487 930 q 346 852 383 891 q 290 755 309 814 q 271 617 271 696 l 271 371 q 290 234 271 293 q 347 136 310 175 q 436 77 384 97 q 552 58 488 58 m 555 615 l 555 553 l 57 553 l 57 615 l 555 615 m 555 443 l 555 382 l 57 382 l 57 443 l 555 443 z "},"₱":{"ha":954,"x_min":24,"x_max":933,"o":"m 933 821 l 933 751 l 24 751 l 24 821 l 933 821 m 933 637 l 933 567 l 24 567 l 24 637 l 933 637 m 496 402 l 214 402 l 214 474 l 496 474 q 639 503 584 474 q 719 581 694 531 q 745 692 745 630 q 719 803 745 752 q 639 885 694 854 q 496 916 584 916 l 243 916 l 243 0 l 159 0 l 159 987 l 496 987 q 678 950 604 987 q 790 846 752 913 q 828 693 828 780 q 790 537 828 602 q 679 437 753 471 q 496 402 604 402 z "},"₹":{"ha":679,"x_min":35,"x_max":644,"o":"m 644 730 l 622 659 l 35 659 l 58 730 l 644 730 m 441 0 l 91 418 l 90 478 l 198 478 q 328 508 276 478 q 406 586 380 537 q 432 691 432 635 q 403 809 432 759 q 318 887 374 859 q 179 916 262 916 l 45 916 l 68 987 l 179 987 q 360 952 286 987 q 475 851 435 918 q 515 690 515 785 q 484 549 515 614 q 384 445 452 484 q 205 406 315 406 l 538 9 l 538 0 l 441 0 m 644 987 l 622 916 l 96 916 l 119 987 l 644 987 z "},"₺":{"ha":713,"x_min":31,"x_max":642,"o":"m 259 987 l 259 0 l 176 0 l 176 987 l 259 987 m 559 525 l 642 525 l 642 448 q 615 261 642 345 q 537 117 588 177 q 416 25 487 57 q 258 -7 345 -7 q 217 -5 237 -7 q 176 0 197 -3 l 258 67 q 386 93 330 67 q 480 169 442 119 q 539 289 519 219 q 559 448 559 359 l 559 525 m 423 840 l 423 759 l 31 589 l 31 669 l 423 840 m 423 649 l 423 569 l 31 399 l 31 479 l 423 649 z "},"₼":{"ha":912,"x_min":73,"x_max":840,"o":"m 840 0 l 759 0 l 759 145 q 746 275 759 216 q 708 380 733 334 q 645 459 682 427 q 561 508 608 492 q 456 525 513 525 q 330 499 385 525 q 235 423 274 473 q 175 303 195 374 q 154 145 154 233 l 154 0 l 73 0 l 73 144 q 100 332 73 248 q 178 475 127 416 q 299 567 229 535 q 456 599 370 599 q 585 578 526 599 q 692 518 645 557 q 772 424 739 479 q 823 297 805 368 q 840 144 840 227 l 840 0 m 496 734 l 496 0 l 414 0 l 414 734 l 496 734 z "},"₽":{"ha":892,"x_min":24,"x_max":831,"o":"m 499 402 l 24 402 l 24 474 l 499 474 q 641 502 586 474 q 722 580 696 530 q 747 692 747 629 q 722 802 747 751 q 642 884 697 853 q 499 916 587 916 l 245 916 l 245 0 l 162 0 l 162 987 l 499 987 q 681 950 608 987 q 793 847 755 913 q 831 694 831 781 q 793 537 831 603 q 682 437 755 472 q 499 402 608 402 m 494 302 l 494 230 l 24 230 l 24 302 l 494 302 z "},"℅":{"ha":1022,"x_min":81,"x_max":958,"o":"m 381 701 l 447 701 q 425 622 447 659 q 364 564 404 586 q 269 543 324 543 q 171 570 214 543 q 105 644 129 598 q 81 745 81 690 l 81 798 q 105 900 81 854 q 171 974 129 946 q 268 1002 213 1002 q 363 980 323 1002 q 425 922 403 958 q 447 842 447 886 l 381 842 q 353 911 381 880 q 268 943 326 943 q 202 922 230 943 q 161 868 175 901 q 146 798 146 835 l 146 745 q 161 676 146 709 q 203 623 175 644 q 269 602 231 602 q 354 634 326 602 q 381 701 381 667 m 571 189 l 571 242 q 595 344 571 298 q 662 418 618 390 q 764 446 705 446 q 867 418 824 446 q 934 344 910 390 q 958 242 958 298 l 958 189 q 934 87 958 134 q 868 14 911 41 q 766 -14 825 -14 q 663 14 706 -14 q 595 87 619 41 q 571 189 571 134 m 637 242 l 637 189 q 651 120 637 153 q 693 66 665 87 q 766 45 722 45 q 837 66 808 45 q 879 120 865 87 q 892 189 892 153 l 892 242 q 879 314 892 281 q 836 367 865 347 q 764 387 808 387 q 694 367 722 387 q 651 314 665 347 q 637 242 637 281 m 776 854 l 294 82 l 243 115 l 726 887 l 776 854 z "},"ℓ":{"ha":646,"x_min":62,"x_max":559,"o":"m 477 58 l 477 -14 q 368 7 414 -14 q 290 70 321 29 q 244 166 259 110 q 229 292 229 223 l 229 791 q 240 899 229 852 q 274 980 252 947 q 328 1031 296 1013 q 401 1048 360 1048 q 464 1034 435 1048 q 514 991 493 1019 q 548 924 536 963 q 559 834 559 884 l 559 810 q 538 665 559 739 q 475 526 517 592 q 374 407 434 459 q 235 323 313 354 q 62 293 157 293 l 62 371 q 250 413 172 371 q 379 522 329 455 q 454 665 430 589 q 478 808 478 741 l 478 834 q 472 898 478 871 q 456 942 467 924 q 432 968 446 960 q 401 977 418 977 q 361 965 378 977 q 333 930 345 954 q 316 872 321 907 q 310 791 310 838 l 310 292 q 318 201 310 243 q 346 126 327 159 q 397 76 365 94 q 477 58 429 58 z "},"№":{"ha":1417,"x_min":120,"x_max":1326,"o":"m 1315 360 l 1315 294 l 909 294 l 909 360 l 1315 360 m 888 695 l 888 768 q 915 888 888 836 q 991 969 942 940 q 1107 998 1040 998 q 1224 969 1175 998 q 1300 888 1274 940 q 1326 768 1326 836 l 1326 695 q 1300 575 1326 627 q 1225 494 1274 524 q 1109 465 1176 465 q 991 494 1040 465 q 915 575 942 524 q 888 695 888 627 m 962 768 l 962 695 q 977 611 962 648 q 1025 552 993 574 q 1109 531 1058 531 q 1190 552 1158 531 q 1238 611 1222 574 q 1254 695 1254 648 l 1254 768 q 1238 852 1254 814 q 1189 911 1221 889 q 1107 932 1157 932 q 1026 911 1059 932 q 978 852 994 889 q 962 768 962 814 m 758 987 l 758 0 l 671 0 l 202 844 l 202 0 l 120 0 l 120 987 l 208 987 l 677 144 l 677 987 l 758 987 z "},"™":{"ha":857,"x_min":73,"x_max":734,"o":"m 684 623 l 684 905 l 582 623 l 547 623 l 444 910 l 444 623 l 394 623 l 394 987 l 456 987 l 564 697 l 672 987 l 734 987 l 734 623 l 684 623 m 338 987 l 338 941 l 231 941 l 231 623 l 180 623 l 180 941 l 73 941 l 73 987 l 338 987 z "},"℮":{"ha":881,"x_min":102,"x_max":793,"o":"m 707 134 l 708 64 q 587 7 651 28 q 457 -14 524 -14 q 319 16 383 -14 q 205 98 254 46 q 129 220 157 151 q 102 367 102 289 q 132 514 102 446 q 213 635 162 583 q 327 718 264 688 q 457 747 391 747 q 588 720 527 747 q 694 643 648 692 q 767 527 741 593 q 793 380 793 460 q 793 372 793 378 q 793 349 793 366 l 272 349 l 272 126 q 357 72 309 92 q 457 52 404 52 q 584 72 520 52 q 707 134 647 92 m 457 684 q 358 661 406 684 q 272 601 311 639 l 272 413 l 638 413 l 638 607 q 556 663 603 642 q 457 684 509 684 z "}}}
